<svg width="99" height="82" viewBox="0 0 99 82" fill="none" xmlns="http://www.w3.org/2000/svg">
<g clip-path="url(#clip0_784_29)">
<path d="M99 44.3846C99 34.585 91.3229 25.9312 80.1934 21.6194C80.7688 23.6396 81.0565 25.7955 81.0565 27.9665C81.0565 45.8319 61.2201 60.2449 36.9168 60.2449C36.4777 60.2449 36.19 60.0941 36.0537 60.0941C42.4286 66.1397 52.4073 70.0294 63.7035 70.0294C67.1862 70.0294 70.5023 69.5922 73.6973 69.0193L92.6554 81.9849L83.8275 65.416C93.0946 60.8027 99.0303 53.159 99.0303 44.3695L99 44.3846Z" fill="#EB1E32"/>
<path d="M37.3408 54.4707C33.7218 54.4707 30.1028 54.0335 26.7715 53.3098L6.79887 67.1498L15.9145 49.5709C6.37489 44.6711 0 36.6053 0 27.2278C0 12.257 16.6413 0 37.3408 0C58.0402 0 74.5453 12.257 74.5453 27.2278C74.5453 42.1986 57.8888 54.4707 37.3408 54.4707Z" fill="#446172"/>
</g>
<defs>
<clipPath id="clip0_784_29">
<rect width="99" height="82" fill="white"/>
</clipPath>
</defs>
</svg>
