<svg width="96" height="59" viewBox="0 0 96 59" fill="none" xmlns="http://www.w3.org/2000/svg">
<g clip-path="url(#clip0_784_33)">
<path d="M95.7637 46.1618C95.759 46.1339 95.759 46.1013 95.7498 46.0687C94.7813 40.4264 92.6823 29.1 91.4637 21.0342C91.7231 19.8946 91.8668 18.7085 91.8668 17.4851C91.8668 8.71231 84.7819 1.59547 76.0382 1.59547C73.7955 1.59547 71.6594 2.06993 69.7226 2.91651C61.2291 2.80022 57.2534 0.0558184 48.139 0H47.861C43.3015 0.0279092 40.0301 0.725639 36.8375 1.43732C33.6403 2.14436 30.5219 2.85604 26.2774 2.91651C24.3452 2.06993 22.2091 1.59547 19.9664 1.59547C11.2227 1.59547 4.13322 8.71231 4.13322 17.4851C4.13322 18.7085 4.27686 19.8946 4.53635 21.0342C3.32233 29.1 1.21865 40.4264 0.254851 46.0687C0.245584 46.1013 0.245584 46.1339 0.24095 46.1618C0.0834057 46.8874 0 47.6317 0 48.3992C0 54.2554 4.73096 59 10.5647 59C14.6655 59 18.2195 56.6556 19.9664 53.2275C19.9988 53.1716 20.0313 53.1205 20.0637 53.0646C23.2795 47.0874 26.1848 40.7288 27.2737 38.3007C26.574 36.9517 26.1848 35.4214 26.1848 33.8027C26.1848 28.3743 30.5821 23.9554 35.9942 23.9554C41.4063 23.9554 45.799 28.3743 45.799 33.8027C45.799 35.0214 45.5766 36.1936 45.1688 37.2727H50.8358C50.4234 36.1936 50.201 35.0214 50.201 33.8027C50.201 28.3743 54.603 23.9554 60.0104 23.9554C65.4179 23.9554 69.8199 28.3743 69.8199 33.8027C69.8199 35.4214 69.426 36.9564 68.731 38.3053C69.1573 39.2496 69.8523 40.7846 70.7327 42.6592C72.1228 45.6129 73.9716 49.4085 75.9363 53.0646C75.9687 53.1205 76.0012 53.1716 76.0336 53.2275C77.7851 56.6556 81.3391 59 85.4353 59C91.269 59 96 54.2554 96 48.3992C96 47.6317 95.9166 46.8874 95.7637 46.1618ZM19.9664 25.8346C15.3698 25.8346 11.649 22.0994 11.649 17.4851C11.649 12.8708 15.3698 9.14025 19.9664 9.14025C24.563 9.14025 28.2745 12.8801 28.2745 17.4851C28.2745 22.0901 24.5537 25.8346 19.9664 25.8346ZM69.3194 20.7365C67.5308 20.7365 66.0805 19.2806 66.0805 17.4851C66.0805 15.6896 67.5308 14.2383 69.3194 14.2383C71.108 14.2383 72.5537 15.6943 72.5537 17.4851C72.5537 19.2759 71.1034 20.7365 69.3194 20.7365ZM76.0382 27.4812C74.2496 27.4812 72.7993 26.03 72.7993 24.2345C72.7993 22.439 74.2496 20.983 76.0382 20.983C77.8268 20.983 79.2725 22.439 79.2725 24.2345C79.2725 26.03 77.8268 27.4812 76.0382 27.4812ZM76.0382 13.9918C74.2496 13.9918 72.7993 12.5359 72.7993 10.7404C72.7993 8.94489 74.2496 7.49361 76.0382 7.49361C77.8268 7.49361 79.2725 8.94954 79.2725 10.7404C79.2725 12.5312 77.8268 13.9918 76.0382 13.9918ZM82.757 20.7365C80.9684 20.7365 79.5227 19.2806 79.5227 17.4851C79.5227 15.6896 80.9684 14.2383 82.757 14.2383C84.5456 14.2383 85.9959 15.6943 85.9959 17.4851C85.9959 19.2759 84.5456 20.7365 82.757 20.7365Z" fill="#446172"/>
<path d="M43.3804 35.0111C44.0463 30.9112 41.2752 27.0457 37.1911 26.3772C33.107 25.7088 29.2563 28.4905 28.5904 32.5904C27.9246 36.6903 30.6956 40.5558 34.7797 41.2242C38.8639 41.8927 42.7145 39.1109 43.3804 35.0111Z" fill="#EB1E32"/>
<path d="M60.0053 41.3243C64.1434 41.3243 67.4979 37.9568 67.4979 33.8028C67.4979 29.6487 64.1434 26.2812 60.0053 26.2812C55.8673 26.2812 52.5127 29.6487 52.5127 33.8028C52.5127 37.9568 55.8673 41.3243 60.0053 41.3243Z" fill="#EB1E32"/>
</g>
<defs>
<clipPath id="clip0_784_33">
<rect width="96" height="59" fill="white"/>
</clipPath>
</defs>
</svg>
