<svg width="102" height="69" viewBox="0 0 102 69" fill="none" xmlns="http://www.w3.org/2000/svg">
<g clip-path="url(#clip0_572_35)">
<path d="M87.3897 23.355C79.7177 23.355 74.8477 31.9111 73.6975 31.9111C72.6941 31.9111 68.02 23.355 60.0053 23.355C51.9907 23.355 45.8482 29.7813 45.4322 37.5785C45.1997 41.9729 46.6191 45.3268 48.6135 48.3624C52.6025 54.4215 70.0634 69.0123 73.722 69.0123C77.3806 69.0123 94.7681 54.4827 98.7815 48.3624C100.788 45.3145 102.195 41.9851 101.963 37.5785C101.547 29.7935 95.1841 23.355 87.3897 23.355Z" fill="#BBC5E2"/>
<path d="M44.4907 51.0796C42.6186 48.2275 40.1591 43.7107 40.5017 37.3212C40.7709 32.2903 42.9 27.5777 46.4852 24.0279C50.156 20.4047 54.9648 18.4218 60.0061 18.4218C65.9283 18.4218 69.0363 20.3925 71.9485 23.1956C72.6092 23.881 73.3923 23.3669 73.5392 22.5346C73.7472 21.3105 73.7472 19.9885 73.6615 18.5319C73.1231 8.3845 64.8271 0.0119629 54.6711 0.0119629C44.5152 0.0119629 38.336 11.1509 36.8432 11.1509C35.5339 11.1509 29.4526 0.0119629 19.0152 0.0119629C8.5778 0.0119629 0.575401 8.37226 0.0370131 18.5197C-0.268889 24.2483 1.57876 28.6059 4.18505 32.5596C9.38538 40.4548 32.12 59.4521 36.8921 59.4521C38.4828 59.4521 41.9456 57.4324 46.0814 54.4457C46.3016 54.2866 46.6443 53.8949 46.2038 53.3318C45.3105 52.3036 45.078 51.9486 44.4907 51.0673V51.0796Z" fill="#747B8F"/>
</g>
<defs>
<clipPath id="clip0_572_35">
<rect width="102" height="69" fill="white"/>
</clipPath>
</defs>
</svg>
