<svg width="91" height="71" viewBox="0 0 91 71" fill="none" xmlns="http://www.w3.org/2000/svg">
<g clip-path="url(#clip0_572_39)">
<path d="M29.5551 0C24.2034 0 19.7547 3.67468 18.6536 8.59612C17.5744 7.98367 16.3191 7.61183 14.9977 7.61183C10.9674 7.61183 7.70801 10.8053 7.70801 14.7425C7.70801 18.6796 10.7032 21.6106 14.5132 21.8512H30.0616C36.0079 21.6106 40.7429 16.8204 40.7429 10.9365C40.7429 5.05268 35.7216 0 29.5551 0Z" fill="#BBC5E2"/>
<path d="M90.8461 69.3815L58.2957 12.3146C56.5779 9.31801 52.2173 9.36176 50.5876 12.4021L37.3516 37.0531C37.1754 37.3812 37.1754 37.7749 37.3516 38.103L44.0687 49.7613C45.3461 51.9705 44.8836 54.7046 43.1217 56.3889C42.3509 56.2795 42.1527 56.2358 41.3819 56.1264L27.4852 31.9785C25.7674 28.9819 21.3848 29.0475 19.7551 32.1098L0.132371 69.4034C-0.242024 70.1252 0.286533 71.0001 1.10139 71.0001H89.8991C90.736 71.0001 91.2645 70.1033 90.8461 69.3596V69.3815Z" fill="#747B8F"/>
</g>
<defs>
<clipPath id="clip0_572_39">
<rect width="91" height="71" fill="white"/>
</clipPath>
</defs>
</svg>
