<svg width="74" height="84" viewBox="0 0 74 84" fill="none" xmlns="http://www.w3.org/2000/svg">
<g clip-path="url(#clip0_572_28)">
<path d="M3.58887 38.2764V77.3194C3.58887 81.0053 6.57583 84 10.2676 84H67.321C71.0093 84 73.9997 81.0088 73.9997 77.3194V38.2764H3.58887ZM51.6574 62.3976L32.2883 73.0106C31.1695 73.6232 29.7941 72.8292 29.7941 71.5697V50.3473C29.7941 49.0912 31.1695 48.2972 32.2883 48.9064L51.6574 59.5194C52.8036 60.1491 52.8036 61.7713 51.6574 62.3942V62.3976Z" fill="#747B8F"/>
<path d="M52.1469 2.50171L45.0199 20.4181L34.6631 24.8844L41.7866 6.96455L52.1469 2.50171Z" fill="#BBC5E2"/>
<path d="M31.4296 11.4309L24.3061 29.3473L13.9492 33.8136L21.0728 15.8937L31.4296 11.4309Z" fill="#BBC5E2"/>
<path d="M10.7164 20.3601L3.59283 38.2799L0.472431 31.0346C-0.783256 28.1187 0.561389 24.7374 3.47308 23.4814L10.7164 20.3601Z" fill="#BBC5E2"/>
<path d="M65.1311 3.16232L68.2515 10.4042L55.3799 15.9519L61.7233 0C63.2014 0.509941 64.4674 1.61538 65.1311 3.16232Z" fill="#BBC5E2"/>
</g>
<defs>
<clipPath id="clip0_572_28">
<rect width="74" height="84" fill="white"/>
</clipPath>
</defs>
</svg>
