<svg width="83" height="81" viewBox="0 0 83 81" fill="none" xmlns="http://www.w3.org/2000/svg">
<g clip-path="url(#clip0_784_19)">
<path d="M46.3044 14.529C46.0874 16.4563 44.54 18.0189 42.6006 18.2585C41.4524 18.4009 40.3776 18.0918 39.5339 17.4807C39.3099 17.3175 39.0438 17.2202 38.7638 17.2202H38.5887C37.8921 17.2202 37.3249 17.7828 37.3249 18.4738V28.0823H27.6383C26.9381 28.0823 26.371 27.5197 26.371 26.8252V26.6551C26.371 26.3807 26.4655 26.1168 26.6301 25.8946C27.1447 25.1931 27.4492 24.3319 27.4492 23.3978C27.4492 20.8942 25.2682 18.8975 22.6847 19.1753C20.7417 19.3836 19.1629 20.9185 18.9178 22.8422C18.7708 23.9847 19.0859 25.0542 19.6985 25.8911C19.863 26.1133 19.9611 26.3807 19.9611 26.6551V26.8252C19.9611 27.5197 19.3939 28.0823 18.6938 28.0823H9.00712V18.4738C9.00712 17.7793 8.44 17.2168 7.73984 17.2168H7.5648C7.28474 17.2168 7.01868 17.314 6.79463 17.4772C5.95094 18.0884 4.8727 18.3974 3.72095 18.2516C1.78151 18.0085 0.234169 16.4424 0.0241224 14.5151C-0.25594 11.9524 1.75701 9.78903 4.28107 9.78903C5.22278 9.78903 6.09097 10.0911 6.79813 10.6016C7.02218 10.7648 7.28824 10.8586 7.5648 10.8586H7.73984C8.44 10.8586 9.00712 10.296 9.00712 9.60152V0H18.6938C19.3939 0 19.9611 0.562548 19.9611 1.25705V1.43068C19.9611 1.70501 19.8665 1.96892 19.702 2.19116C19.1874 2.89261 18.8828 3.75379 18.8828 4.6879C18.8828 7.19159 21.0638 9.18829 23.6474 8.91049C25.5903 8.70213 27.1692 7.16728 27.4142 5.24351C27.5613 4.10105 27.2497 3.03151 26.6336 2.19463C26.469 1.97239 26.371 1.70501 26.371 1.43068V1.25705C26.371 0.562548 26.9381 0 27.6383 0H37.3249V9.60846C37.3249 10.2995 37.8921 10.862 38.5887 10.862H38.7638C39.0403 10.862 39.3064 10.7683 39.5304 10.6051C40.2376 10.0946 41.1058 9.79251 42.0475 9.79251C44.5751 9.79251 46.588 11.9628 46.3009 14.5256L46.3044 14.529Z" fill="#446172"/>
<path d="M82.9997 0.125055V9.73352C82.9997 10.428 82.4326 10.9871 81.7324 10.9871H81.5609C81.2843 10.9871 81.0183 10.8899 80.7942 10.7301C80.0905 10.2162 79.2154 9.91756 78.2771 9.91756C75.7531 9.91756 73.7401 12.0809 74.0237 14.6402C74.2337 16.5674 75.7811 18.1335 77.7205 18.3766C78.8758 18.519 79.9505 18.2099 80.7942 17.5988C81.0183 17.439 81.2878 17.3418 81.5644 17.3418H81.7359C82.4361 17.3418 83.0032 17.9044 83.0032 18.5954V28.2038H73.32C72.6199 28.2038 72.0528 28.7664 72.0528 29.4609V29.6311C72.0528 29.9089 72.1508 30.1728 72.3153 30.395C72.9315 31.2319 73.2395 32.3049 73.096 33.4439C72.8509 35.3677 71.2721 36.899 69.3291 37.1143C66.7491 37.3921 64.5681 35.3954 64.5681 32.8918C64.5681 31.9611 64.8692 31.0965 65.3873 30.395C65.5483 30.1762 65.6463 29.9123 65.6463 29.6345V29.4644C65.6463 28.7699 65.0792 28.2073 64.379 28.2073H54.6959V18.5989C54.6959 17.9078 55.263 17.3453 55.9597 17.3453H56.1347C56.4113 17.3453 56.6773 17.4425 56.9014 17.6022C57.6085 18.1127 58.4802 18.4148 59.4184 18.4148C61.9425 18.4148 63.9555 16.2514 63.6719 13.6887C63.4618 11.7649 61.918 10.1988 59.9751 9.95576C58.8198 9.81339 57.7451 10.119 56.9014 10.7301C56.6773 10.8933 56.4113 10.9906 56.1312 10.9906H55.9562C55.2595 10.9906 54.6924 10.428 54.6924 9.73352V0.125055H64.3755C65.0757 0.125055 65.6428 0.687603 65.6428 1.37863V1.55226C65.6428 1.82659 65.5448 2.0905 65.3838 2.31274C64.8657 3.01419 64.5646 3.87885 64.5646 4.80948C64.5646 7.31317 66.7456 9.30987 69.3256 9.02859C71.2686 8.82024 72.8474 7.28886 73.0925 5.36161C73.236 4.21568 72.9279 3.14962 72.3118 2.31274C72.1473 2.0905 72.0493 1.82312 72.0493 1.54879V1.37516C72.0493 0.68413 72.6164 0.121582 73.3165 0.121582H82.9997V0.125055Z" fill="#446172"/>
<path d="M83.0003 43.9829V53.5914C83.0003 54.2859 82.4296 54.845 81.733 54.845H81.5614C81.2849 54.845 81.0153 54.7477 80.7948 54.588C80.0876 54.074 79.2159 53.7754 78.2777 53.7754C75.7537 53.7754 73.7407 55.9388 74.0208 58.498C74.2343 60.4253 75.7782 61.9914 77.7211 62.2345C78.8728 62.3768 79.9511 62.0678 80.7948 61.4566C81.0188 61.2969 81.2849 61.1997 81.5649 61.1997H81.7365C82.4331 61.1997 83.0038 61.7622 83.0038 62.4532V72.0617H73.3171C72.6204 72.0617 72.0533 71.4992 72.0533 70.8046V70.6345C72.0533 70.3602 72.1478 70.0963 72.3124 69.874C72.827 69.1726 73.1316 68.3079 73.1316 67.3773C73.1316 64.8736 70.9506 62.8769 68.367 63.1582C66.4241 63.3665 64.8487 64.9014 64.6037 66.8251C64.4566 67.9711 64.7682 69.0371 65.3843 69.874C65.5454 70.0963 65.6434 70.3636 65.6434 70.638V70.8081C65.6434 71.5026 65.0763 72.0652 64.3796 72.0652H54.693V62.4567C54.693 61.7657 55.2636 61.2031 55.9602 61.2031H56.1353C56.4118 61.2031 56.6779 61.3004 56.9019 61.4601C57.6056 61.9706 58.4773 62.2727 59.419 62.2727C61.9396 62.2727 63.9525 60.1058 63.6725 57.5466C63.4624 55.6228 61.9151 54.0567 59.9756 53.8136C58.8204 53.6712 57.7456 53.9768 56.9019 54.588C56.6744 54.7512 56.4083 54.8484 56.1318 54.8484H55.9567C55.2601 54.8484 54.6895 54.2859 54.6895 53.5914V43.9864H64.3761C65.0728 43.9864 65.6399 44.5489 65.6399 45.24V45.4136C65.6399 45.6879 65.5454 45.9518 65.3808 46.1741C64.8662 46.8755 64.5617 47.7402 64.5617 48.6708C64.5617 51.1745 66.7461 53.1712 69.3262 52.8899C71.2691 52.6816 72.8445 51.1502 73.0896 49.2229C73.2366 48.077 72.925 47.0109 72.3089 46.1741C72.1478 45.9518 72.0498 45.6844 72.0498 45.4101V45.2365C72.0498 44.5455 72.6169 43.9829 73.3136 43.9829H83.0003Z" fill="#446172"/>
<path d="M47.527 58.5085C47.3134 60.4358 45.7626 61.9984 43.8232 62.238C42.6714 62.3769 41.5967 62.0713 40.7565 61.4602C40.5324 61.3004 40.2629 61.2032 39.9863 61.2032H39.8113C39.1146 61.2032 38.5475 61.7658 38.5475 62.4568V72.0653H28.8608C28.1607 72.0653 27.5935 72.6278 27.5935 73.3223V73.4925C27.5935 73.7703 27.6916 74.0342 27.8526 74.2529C28.3707 74.9544 28.6753 75.819 28.6753 76.7497C28.6753 79.2568 26.4873 81.2535 23.9037 80.9688C21.9608 80.757 20.3854 79.2221 20.1439 77.2949C20.0038 76.1524 20.3119 75.0898 20.928 74.2529C21.0891 74.0307 21.1871 73.7668 21.1871 73.489V73.3188C21.1871 72.6243 20.6235 72.0618 19.9233 72.0618H10.2367V62.4533C10.2367 61.7623 9.66954 61.1997 8.97288 61.1997H8.79784C8.51778 61.1997 8.25172 61.297 8.02767 61.4602C7.18399 62.0713 6.10574 62.3769 4.95399 62.2345C3.01456 61.9915 1.47071 60.4254 1.25716 58.4981C0.973601 55.9354 2.98655 53.7755 5.51061 53.7755C6.44882 53.7755 7.32052 54.0741 8.02767 54.5881C8.25172 54.7478 8.51778 54.845 8.79434 54.845H8.96938C9.66604 54.845 10.2332 54.2825 10.2332 53.588V43.983H19.9198C20.6165 43.983 21.1836 43.417 21.1836 42.7259V42.5558C21.1836 42.278 21.0856 42.0141 20.9245 41.7883C20.3084 40.9515 19.9968 39.8819 20.1439 38.7395C20.3889 36.8192 21.9643 35.2843 23.9072 35.0725C26.4908 34.7947 28.6718 36.7914 28.6718 39.2916C28.6718 40.2257 28.3672 41.0904 27.8526 41.7883C27.6881 42.0106 27.59 42.2745 27.59 42.5488V42.7225C27.59 43.4135 28.1607 43.9795 28.8573 43.9795H38.544V53.588C38.544 54.279 39.1111 54.8415 39.8078 54.8415H39.9828C40.2594 54.8415 40.5254 54.7443 40.7495 54.5846C41.4531 54.0707 42.3283 53.772 43.2665 53.772C45.7906 53.772 47.807 55.9389 47.52 58.5016L47.527 58.5085Z" fill="#EB1E32"/>
</g>
<defs>
<clipPath id="clip0_784_19">
<rect width="83" height="81" fill="white"/>
</clipPath>
</defs>
</svg>
