<svg width="54" height="70" viewBox="0 0 54 70" fill="none" xmlns="http://www.w3.org/2000/svg">
<g clip-path="url(#clip0_764_437)">
<path d="M8.09181 49.3858C7.23767 49.3858 6.36497 49.0515 5.71508 48.4016C0.163177 42.8675 0.163177 33.8608 5.69651 28.3082L29.7424 4.27796C32.4162 1.60381 35.9813 0.118164 39.7878 0.118164C43.5757 0.118164 47.1408 1.60381 49.8332 4.27796C52.507 6.95212 53.9925 10.5177 53.9925 14.3246C53.9925 18.1316 52.507 21.6786 49.8332 24.3713L25.8059 48.4016C24.4876 49.7201 22.3522 49.7201 21.0339 48.4016C19.7155 47.083 19.7155 44.9474 21.0339 43.6289L45.0612 19.5987C46.4724 18.1873 47.2522 16.3117 47.2522 14.3246C47.2522 12.3376 46.4724 10.462 45.0612 9.05059C43.65 7.63923 41.7746 6.85927 39.7878 6.85927C37.801 6.85927 35.9256 7.63923 34.5144 9.05059L10.4871 33.0809C7.5719 35.9964 7.5719 40.7133 10.4871 43.6289C11.8055 44.9474 11.8055 47.083 10.4871 48.4016C9.81866 49.0515 8.96452 49.3858 8.11038 49.3858H8.09181Z" fill="#446172"/>
<path d="M14.8131 69.6834C11.0252 69.6834 7.46008 68.1978 4.76768 65.5236C2.09386 62.8494 0.608398 59.2653 0.608398 55.4769C0.608398 51.6886 2.09386 48.123 4.76768 45.4303L28.795 21.4C30.1133 20.0815 32.2487 20.0815 33.567 21.4C34.8854 22.7185 34.8854 24.8541 33.567 26.1726L9.53972 50.2029C8.12853 51.6143 7.34867 53.4899 7.34867 55.4769C7.34867 57.464 8.12853 59.3396 9.53972 60.751C10.9509 62.1623 12.8263 62.9423 14.8131 62.9423C16.7999 62.9423 18.6753 62.1623 20.0865 60.751L44.1138 36.7207C47.0104 33.8051 47.0104 29.0882 44.1138 26.1726C42.7954 24.8541 42.7954 22.7185 44.1138 21.4C45.4321 20.0815 47.5675 20.0815 48.8858 21.4C54.4191 26.934 54.4191 35.9407 48.8858 41.4748L24.8585 65.505C22.1847 68.1792 18.6196 69.6648 14.8131 69.6648V69.6834Z" fill="#EB1E32"/>
<path d="M49.8141 4.27796C47.1403 1.60381 43.5752 0.118164 39.7687 0.118164C35.9808 0.118164 32.4157 1.60381 29.7233 4.27796L5.69599 28.3082C1.64812 32.3752 0.57116 38.2806 2.46512 43.3318C3.33783 40.9733 5.28749 39.0606 8.33268 38.7449C8.22127 36.7021 8.92687 34.6408 10.468 33.0809L34.4953 9.05059C35.9065 7.63923 37.7819 6.85927 39.7687 6.85927C41.7555 6.85927 43.6309 7.63923 45.0421 9.05059C46.4533 10.462 47.2331 12.3376 47.2331 14.3246C47.2331 16.3117 46.4533 18.1873 45.0421 19.5987L21.0148 43.6289C19.6964 44.9474 19.6964 47.083 21.0148 48.4016C22.3331 49.7201 24.4685 49.7201 25.7868 48.4016L49.8141 24.3713C52.4879 21.6786 53.9734 18.113 53.9734 14.3246C53.9734 10.5362 52.4879 6.97069 49.8141 4.27796Z" fill="#446172"/>
</g>
<defs>
<clipPath id="clip0_764_437">
<rect width="53.3651" height="69.5652" fill="white" transform="translate(0.608398 0.118164)"/>
</clipPath>
</defs>
</svg>
