<svg width="73" height="67" viewBox="0 0 73 67" fill="none" xmlns="http://www.w3.org/2000/svg">
<g clip-path="url(#clip0_764_466)">
<path d="M15.0859 56.6522C20.0446 61.729 26.509 65.117 33.4545 66.3028C28.9095 62.3364 25.3165 57.6156 22.7614 52.248C20.0384 53.4401 17.4595 54.9179 15.0859 56.6522Z" fill="#EB1E32"/>
<path d="M6.18359 39.6844C7.25373 45.2175 9.6833 50.3667 13.378 54.7637C15.962 52.8534 18.7742 51.2236 21.7451 49.9249C19.9222 45.4307 18.8645 40.6644 18.6011 35.7449L10.7669 35.749C10.2858 37.9004 8.44104 39.5168 6.18359 39.6844Z" fill="#EB1E32"/>
<path d="M37.8406 46.2389V35.7366L21.1426 35.7448C21.4029 40.3332 22.3973 44.7777 24.101 48.9739C28.4914 47.3492 33.11 46.4293 37.8406 46.2389Z" fill="#EB1E32"/>
<path d="M37.842 66.5791V48.7742C33.4775 48.9553 29.2042 49.8038 25.127 51.297C28.0024 57.271 32.3856 62.5403 37.842 66.5791Z" fill="#EB1E32"/>
<path d="M18.5394 14.3223C19.4644 13.3465 20.7699 12.7297 22.2237 12.7297C22.6654 12.7297 23.0885 12.8032 23.4981 12.9098C25.9878 8.15899 29.3631 3.85003 33.458 0.268555C25.9121 1.55275 19.032 5.38569 13.9219 11.1734C15.3871 12.3313 16.9342 13.3744 18.5394 14.3213V14.3223Z" fill="#EB1E32"/>
<path d="M22.3649 22.8658C21.5063 26.2248 21.0677 29.6893 21.0625 33.2097L37.8424 33.1994V22.5905C33.9476 22.4332 30.1348 21.7647 26.4578 20.614C25.5691 21.9417 24.0717 22.8192 22.3649 22.8668V22.8658Z" fill="#EB1E32"/>
<path d="M12.3171 13.1384C8.64005 17.9948 6.42305 23.6148 5.76562 29.5743C5.78014 29.5743 5.79466 29.5702 5.80814 29.5702C8.11432 29.5702 10.0399 31.1141 10.6621 33.2148L18.5191 33.2096C18.5253 29.4926 18.9867 25.8356 19.8879 22.2903C18.2578 21.4448 17.1337 19.7643 17.1337 17.8054C17.1337 17.3667 17.2073 16.9496 17.311 16.544C15.5752 15.5226 13.9005 14.3947 12.316 13.1384H12.3171Z" fill="#EB1E32"/>
<path d="M54.125 54.9491C53.9767 54.9491 53.8388 54.918 53.6957 54.9067C51.2661 59.2104 48.1262 63.061 44.2988 66.3806C51.6508 65.2403 58.4387 61.6619 63.5706 56.2147C61.844 55.0008 60.0117 53.9339 58.1038 52.9995C57.1736 54.1782 55.7457 54.9501 54.125 54.9501V54.9491Z" fill="#EB1E32"/>
<path d="M65.2478 54.295C69.5687 48.9554 72.101 42.5468 72.5914 35.717L59.2438 35.7232C59.0551 39.2633 58.4547 42.7268 57.4551 46.0651C58.5231 46.9965 59.2117 48.3479 59.2117 49.8743C59.2117 50.1485 59.1733 50.4134 59.1308 50.6763C61.2679 51.7194 63.318 52.9218 65.2478 54.295Z" fill="#EB1E32"/>
<path d="M56.9961 19.0689C58.5287 23.6055 59.3095 28.3532 59.3199 33.1899L72.6841 33.1827C72.6634 26.1098 70.4547 19.3669 66.2965 13.6506C63.4273 15.832 60.3019 17.6533 56.9961 19.0689Z" fill="#EB1E32"/>
<path d="M37.8416 20.0531V-0.00463867C32.7222 3.7838 28.5941 8.62361 25.7207 14.135C26.6954 15.0591 27.3093 16.3578 27.3093 17.8055C27.3093 17.9442 27.2782 18.0735 27.2689 18.208C30.6887 19.276 34.2299 19.8968 37.8416 20.0531Z" fill="#EB1E32"/>
<path d="M40.3828 20.082C44.9661 20.0002 49.4613 19.1755 53.7553 17.6243C50.9898 10.8018 46.3826 4.82785 40.3828 0.282959V20.082Z" fill="#EB1E32"/>
<path d="M56.1172 16.6857C59.1679 15.3705 62.06 13.6786 64.7301 11.6555C59.4697 5.46011 52.267 1.42435 44.2949 0.191895C49.5015 4.71919 53.5694 10.392 56.1172 16.6857Z" fill="#EB1E32"/>
<path d="M40.3838 33.1994L56.7822 33.189C56.7718 28.6804 56.047 24.2472 54.6284 20.0024C50.0472 21.6602 45.2575 22.5408 40.3828 22.6226V33.1994H40.3838Z" fill="#EB1E32"/>
<path d="M40.3828 48.7412V66.2916C44.822 62.9295 48.5063 58.7468 51.2428 54.0508C49.9124 53.135 49.0382 51.6087 49.0382 49.8743C49.0382 49.8464 49.0445 49.8216 49.0455 49.7946C46.2146 49.15 43.3163 48.7919 40.3828 48.7412Z" fill="#EB1E32"/>
<path d="M49.732 47.3545C50.6113 45.8323 52.2393 44.7975 54.1255 44.7975C54.4739 44.7975 54.8141 44.8327 55.1417 44.9C55.9962 41.928 56.524 38.8598 56.7023 35.7253L40.3828 35.7347V46.2111C43.5517 46.2618 46.6771 46.6509 49.732 47.3545Z" fill="#EB1E32"/>
<path d="M22.222 12.7308C20.7672 12.7308 19.4627 13.3475 18.5378 14.3233C17.9529 14.938 17.5288 15.6976 17.3121 16.544C17.2084 16.9497 17.1348 17.3667 17.1348 17.8055C17.1348 19.7644 18.2588 21.4449 19.8889 22.2904C20.5909 22.6556 21.3769 22.8802 22.2231 22.8802C22.2718 22.8802 22.3174 22.8678 22.3641 22.8657C24.0709 22.8181 25.5683 21.9406 26.457 20.6129C26.9225 19.9155 27.1973 19.0907 27.2689 18.207C27.2782 18.0725 27.3093 17.9431 27.3093 17.8044C27.3093 16.3567 26.6954 15.0581 25.7207 14.134C25.1058 13.5503 24.3447 13.1292 23.4975 12.9098C23.0889 12.8042 22.6648 12.7297 22.2231 12.7297L22.222 12.7308Z" fill="#446172"/>
<path d="M5.80798 29.5702C5.7945 29.5702 5.77998 29.5743 5.76547 29.5743C2.97503 29.5971 0.720703 31.8592 0.720703 34.647C0.720703 37.4347 2.99888 39.7217 5.80798 39.7217C5.93656 39.7217 6.05685 39.6927 6.18336 39.6834C8.4408 39.5157 10.2855 37.8994 10.7667 35.748C10.8465 35.392 10.8953 35.0257 10.8953 34.6459C10.8953 34.144 10.7999 33.6701 10.664 33.2127C10.0419 31.1121 8.1152 29.5681 5.81006 29.5681L5.80798 29.5702Z" fill="#446172"/>
<path d="M55.1426 44.9001C54.8149 44.8328 54.4737 44.7976 54.1263 44.7976C52.2401 44.7976 50.6121 45.8324 49.7328 47.3546C49.317 48.078 49.0619 48.9037 49.0463 49.7947C49.0453 49.8216 49.0391 49.8464 49.0391 49.8744C49.0391 51.6087 49.9132 53.1351 51.2436 54.0509C51.9498 54.5383 52.7918 54.8301 53.697 54.9067C53.8401 54.9181 53.9781 54.9491 54.1263 54.9491C55.7471 54.9491 57.175 54.1782 58.1051 52.9985C58.6309 52.3352 58.9907 51.5466 59.1317 50.6764C59.1742 50.4135 59.2126 50.1486 59.2126 49.8744C59.2126 48.348 58.5251 46.9966 57.456 46.0653C56.8048 45.4982 56.0219 45.077 55.1426 44.9001Z" fill="#446172"/>
</g>
<defs>
<clipPath id="clip0_764_466">
<rect width="71.9644" height="66.5839" fill="white" transform="translate(0.720703 -0.00463867)"/>
</clipPath>
</defs>
</svg>
