<svg width="64" height="64" viewBox="0 0 64 64" fill="none" xmlns="http://www.w3.org/2000/svg">
<g clip-path="url(#clip0_764_452)">
<path d="M42.243 35.3006C42.243 39.0848 41.0456 42.7496 38.9168 45.7903C42.0701 48.4194 44.4517 51.7921 45.8487 55.6029H63.1319C63.1319 48.0609 58.7412 41.5679 52.3681 38.4873C55.8274 35.9379 58.0893 31.8482 58.0893 27.2141C58.0893 19.473 51.796 13.1924 44.0525 13.1924C39.3026 13.1924 35.1116 15.5559 32.5703 19.1543C38.3314 22.2481 42.2563 28.3295 42.2563 35.3006H42.243Z" fill="#446172"/>
<path d="M4.80273 63.6893H42.9747C42.9747 56.1606 38.5708 49.6543 32.211 46.5737C35.6703 44.0243 37.9321 39.9347 37.9321 35.3006C37.9321 27.5594 31.6389 21.2788 23.8954 21.2788C16.1519 21.2788 9.84532 27.5594 9.84532 35.3006C9.84532 39.9214 12.1072 44.0111 15.5665 46.5737C9.20668 49.6543 4.80273 56.1606 4.80273 63.6893Z" fill="#EB1E32"/>
<path d="M28.4726 17.5477C29.7765 15.4763 31.4662 13.6705 33.4753 12.2497C32.5705 5.39819 26.6897 0.0869141 19.5582 0.0869141C11.8014 0.0869141 5.52148 6.36749 5.52148 14.0954C5.52148 17.9062 7.07817 21.3453 9.5529 23.8681C12.9191 19.6722 18.0947 16.9635 23.8824 16.9635C25.4657 16.9635 27.009 17.1627 28.4726 17.5344V17.5477Z" fill="#446172"/>
</g>
<defs>
<clipPath id="clip0_764_452">
<rect width="62.6532" height="63.6025" fill="white" transform="translate(0.478516 0.0869141)"/>
</clipPath>
</defs>
</svg>
