<svg width="56" height="35" viewBox="0 0 56 35" fill="none" xmlns="http://www.w3.org/2000/svg">
<g clip-path="url(#clip0_1170_397)">
<path d="M55.8221 0H0V35H55.8221V0Z" fill="#F42525"/>
<path d="M11.4776 9.86632L12.9877 14.1616L9.36352 11.4603L9.34674 11.4435V11.4603L5.7058 14.1616L7.23264 9.86632L7.28298 9.83277H7.24942L3.50781 7.31599H8.02124L9.24607 3.00391L10.6387 7.31599H10.6555H15.2024L11.4441 9.83277H11.4273L11.4776 9.86632Z" fill="white"/>
<path d="M21.4609 14.2439L21.7294 13.3379L22.0146 14.2272L21.7462 15.0493L21.4609 14.2439Z" fill="white"/>
<path d="M22.0133 14.2266H22.9361L22.1643 14.7467L21.3086 14.7299L22.0133 14.2266Z" fill="white"/>
<path d="M22.1813 14.7463L22.4833 15.6188L21.745 15.0819L21.4766 14.2598L22.1813 14.7463Z" fill="white"/>
<path d="M21.4775 14.2266H20.5547L21.3265 14.7467L22.1822 14.7299L21.4775 14.2266Z" fill="white"/>
<path d="M21.3098 14.7463L21.0078 15.6188L21.7461 15.0819L22.0145 14.2598L21.3098 14.7463Z" fill="white"/>
<path d="M17.2656 18.641L17.769 17.8691L17.8025 18.792L17.316 19.4967L17.2656 18.641Z" fill="white"/>
<path d="M17.8026 18.791L18.6919 19.0427L17.8026 19.3279L16.9805 19.0763L17.8026 18.791Z" fill="white"/>
<path d="M17.8025 19.3293L17.8529 20.2689L17.2992 19.5307L17.2656 18.6582L17.8025 19.3293Z" fill="white"/>
<path d="M17.2838 18.6415L16.3945 18.373L16.9818 19.0945L17.8207 19.3126L17.2838 18.6415Z" fill="white"/>
<path d="M16.9834 19.0938L16.4297 19.8489L17.3022 19.5301L17.7887 18.8086L16.9834 19.0938Z" fill="white"/>
<path d="M22.5697 8.79233L23.2744 8.20508L23.0227 9.09434L22.3516 9.63125L22.5697 8.79233Z" fill="white"/>
<path d="M23.0198 9.09375L23.8084 9.59711L22.8688 9.61388L22.1641 9.11053L23.0198 9.09375Z" fill="white"/>
<path d="M22.8689 9.61396L22.6508 10.52L22.332 9.64752L22.5669 8.80859L22.8689 9.61396Z" fill="white"/>
<path d="M22.5843 8.79162L21.8125 8.27148L22.1648 9.12719L22.8863 9.59699L22.5843 8.79162Z" fill="white"/>
<path d="M22.1652 9.12811L21.4102 9.6818L22.333 9.64824L23.0209 9.11133L22.1652 9.12811Z" fill="white"/>
<path d="M19.9492 3.69093L20.4526 2.90234L20.4694 3.82516L19.9828 4.54664L19.9492 3.69093Z" fill="white"/>
<path d="M20.4706 3.82422L21.3598 4.09268L20.4874 4.37791L19.6484 4.10945L20.4706 3.82422Z" fill="white"/>
<path d="M20.4861 4.37933L20.5197 5.30214L19.966 4.56389L19.9492 3.69141L20.4861 4.37933Z" fill="white"/>
<path d="M19.9674 3.67471L19.0781 3.40625L19.6654 4.11095L20.4875 4.36263L19.9674 3.67471Z" fill="white"/>
<path d="M19.6474 4.12783L19.0938 4.86609L19.9662 4.56407L20.4696 3.85938L19.6474 4.12783Z" fill="white"/>
</g>
<defs>
<clipPath id="clip0_1170_397">
<rect width="55.8221" height="35" fill="white"/>
</clipPath>
</defs>
</svg>
