<svg width="56" height="35" viewBox="0 0 56 35" fill="none" xmlns="http://www.w3.org/2000/svg">
<g clip-path="url(#clip0_1170_364)">
<path d="M55.9835 0.0839844V34.9669L55.9667 34.9836H0.0507812V0.0839844H55.9835Z" fill="#2E4593"/>
<path d="M55.9835 31.336V34.9665L55.9667 34.9833H50.1498L32.985 24.2591L31.2702 23.1883L29.236 21.9336L28.5635 21.4986L26.4957 20.2103L25.7224 19.7251L25.0835 19.3403L23.789 18.5205L23.3687 18.2696L22.7299 17.8681L16.644 14.0535L13.9037 12.347L0.0507812 3.71415V0.083652L0.101217 0L0.202087 0.083652H5.86765L23.3687 10.9919L25.0835 12.0626L25.5374 12.347L28.2945 14.0535L28.5635 14.2376L29.6059 14.8901L31.2702 15.9273L31.556 16.0946L32.985 16.9981L34.3972 17.8681L38.1462 20.2103L40.9034 21.9336L55.9835 31.336Z" fill="#FCF5FF"/>
<path d="M55.9835 34.8662L56.0003 35L52.2513 34.9833L32.985 22.9541L31.3375 21.9336L31.2702 21.8834L29.6059 20.8461L28.614 20.2103L26.7815 19.0727L25.0835 18.0186L24.8481 17.8681L23.789 17.2156L23.3687 16.9479L18.7455 14.0535L16.0051 12.347L0.0507812 2.39245V0H0.101217L0.202087 0.083652L19.8887 12.347L22.6122 14.0535L23.3687 14.522L25.0835 15.6095L25.7223 16.011L26.7815 16.6635L28.7148 17.8681L31.2702 19.4575L31.556 19.6415L32.4807 20.2103L32.985 20.5282L35.221 21.9336L55.9835 34.8662Z" fill="#F42525"/>
<path d="M55.9835 0.769931V4.40043L43.2234 12.3474L40.4831 14.0539L34.3972 17.8684L32.985 18.7384L31.556 19.6418L31.2702 19.8091L30.6146 20.2107L29.6059 20.8464L28.5635 21.4989L27.8743 21.9339L25.0835 23.6739L23.3687 24.7446L6.96042 34.9836H0.0507812V32.0223L16.2237 21.9339L18.964 20.2107L22.7299 17.8684L23.3687 17.4836L23.789 17.2159L25.0835 16.3961L25.7224 16.0113L28.5635 14.2379L28.8325 14.0539L31.2702 12.5481L31.5728 12.3474L32.985 11.4774L51.2594 0.0839844H55.5464L55.9835 0.769931Z" fill="#FCF5FF"/>
<path d="M55.8322 0.953965L37.5578 12.3474L34.8175 14.0539L32.985 15.2083L31.556 16.095L31.2702 16.279L28.7148 17.8684L26.7815 19.073L25.7224 19.7255L25.0835 20.1437L24.949 20.2107L23.3687 21.2145L22.2087 21.9339L1.31166 34.9836H0.0507812V33.344L18.342 21.9339L21.0823 20.2107L23.3687 18.7886L23.789 18.5209L24.8481 17.8684L25.0835 17.7178L26.7815 16.6638L29.6059 14.8904L30.934 14.0539L31.2702 13.8531L32.985 12.7824L33.6743 12.3474L53.3441 0.0839844H55.2943H55.9835V0.836853L55.8322 0.953965Z" fill="#F42525"/>
<path d="M56 12.3477H0V21.9174H56V12.3477Z" fill="white"/>
<path d="M56 14.0527H0V20.2095H56V14.0527Z" fill="#F42525"/>
<path d="M31.2688 0.0839844H25.082V34.9836H31.2688V0.0839844Z" fill="#CD002A"/>
<path d="M31.2531 21.9339H32.9679V34.9836H23.3516V21.9339H25.0664V12.3474H23.3516V0.0839844H32.9679V12.3474H31.2531V21.9339Z" fill="white"/>
<path d="M31.2852 0.0839844H25.0312V34.9836H31.2852V0.0839844Z" fill="#F42525"/>
</g>
<defs>
<clipPath id="clip0_1170_364">
<rect width="56" height="35" fill="white"/>
</clipPath>
</defs>
</svg>
