<svg width="69" height="90" viewBox="0 0 69 90" fill="none" xmlns="http://www.w3.org/2000/svg">
<path d="M69 41.9523V82.5132C69 86.6409 65.6356 90 61.5013 90H7.4987C3.36439 90 0 86.6409 0 82.5132V41.9523L1.62693 39.6846H67.6147L69 41.9523Z" fill="#446172"/>
<path d="M34.8474 79.9052C43.4799 79.9052 50.4779 72.9183 50.4779 64.2995C50.4779 55.6808 43.4799 48.6938 34.8474 48.6938C26.2148 48.6938 19.2168 55.6808 19.2168 64.2995C19.2168 72.9183 26.2148 79.9052 34.8474 79.9052Z" fill="#E7F3FF"/>
<path d="M39.9701 66.8244C39.8764 66.8244 39.7818 66.816 39.6863 66.7992L34.5657 65.8986C33.7883 65.7621 33.2207 65.0869 33.2207 64.2986V55.555C33.2207 54.6582 33.9494 53.9307 34.8476 53.9307C35.7459 53.9307 36.4746 54.6582 36.4746 55.555V62.9352L40.2501 63.5991C41.1353 63.7543 41.7263 64.5969 41.5699 65.4806C41.4312 66.269 40.7438 66.8235 39.9692 66.8235L39.9701 66.8244Z" fill="#446172"/>
<path d="M34.8473 81.5294C25.3311 81.5294 17.5898 73.7995 17.5898 64.2994C17.5898 54.7992 25.3321 47.0693 34.8473 47.0693C44.3626 47.0693 52.1048 54.7992 52.1048 64.2994C52.1048 73.7995 44.3626 81.5294 34.8473 81.5294ZM34.8473 50.318C27.1257 50.318 20.8437 56.59 20.8437 64.2994C20.8437 72.0087 27.1257 78.2807 34.8473 78.2807C42.569 78.2807 48.851 72.0087 48.851 64.2994C48.851 56.59 42.569 50.318 34.8473 50.318Z" fill="#CE2C2C"/>
<path d="M69 18.8115V32.7861H0V18.8115C0 14.4925 3.36439 10.9778 7.4987 10.9778H61.5013C65.6356 10.9778 69 14.4925 69 18.8115Z" fill="#EB1E32"/>
<path d="M15.6853 0.399414H15.6844C13.7337 0.399414 12.1523 2.05141 12.1523 4.08925V16.8985C12.1523 18.9363 13.7337 20.5883 15.6844 20.5883H15.6853C17.636 20.5883 19.2174 18.9363 19.2174 16.8985V4.08925C19.2174 2.05141 17.636 0.399414 15.6853 0.399414Z" fill="#446172"/>
<path d="M53.3162 0.399414H53.3152C51.3646 0.399414 49.7832 2.05141 49.7832 4.08925V16.8985C49.7832 18.9363 51.3646 20.5883 53.3152 20.5883H53.3162C55.2669 20.5883 56.8482 18.9363 56.8482 16.8985V4.08925C56.8482 2.05141 55.2669 0.399414 53.3162 0.399414Z" fill="#446172"/>
</svg>
