<svg width="78" height="70" viewBox="0 0 78 70" fill="none" xmlns="http://www.w3.org/2000/svg">
<g clip-path="url(#clip0_810_419)">
<path d="M70.6935 49.489L74.8282 65.4032L61.7537 57.3972C66.3913 50.9561 69.143 43.0479 69.143 34.497C69.143 19.6028 60.8318 6.63673 48.6094 0C64.8827 0.293413 77.9991 13.5529 77.9991 29.9142C77.9991 37.4032 75.2473 44.2495 70.7075 49.489H70.6935Z" fill="#EB1E32"/>
<path d="M29.9345 4.55493C13.3958 4.55493 0 17.9681 0 34.4971C0 41.9861 2.75179 48.8324 7.29155 54.0719L3.15688 69.9861L17.0136 61.505C20.9248 63.3773 25.2969 64.4252 29.9205 64.4252C46.4452 64.4252 59.8549 51.026 59.8549 34.4831C59.8549 17.9402 46.4592 4.55493 29.9345 4.55493ZM14.9183 38.7166C12.5856 38.7166 10.6999 36.8304 10.6999 34.4971C10.6999 32.1637 12.5856 30.2775 14.9183 30.2775C17.2511 30.2775 19.1368 32.1637 19.1368 34.4971C19.1368 36.8304 17.2511 38.7166 14.9183 38.7166ZM29.9345 38.7166C27.6017 38.7166 25.716 36.8304 25.716 34.4971C25.716 32.1637 27.6017 30.2775 29.9345 30.2775C32.2672 30.2775 34.1529 32.1637 34.1529 34.4971C34.1529 36.8304 32.2672 38.7166 29.9345 38.7166ZM44.9645 38.7166C42.6318 38.7166 40.7461 36.8304 40.7461 34.4971C40.7461 32.1637 42.6318 30.2775 44.9645 30.2775C47.2973 30.2775 49.183 32.1637 49.183 34.4971C49.183 36.8304 47.2973 38.7166 44.9645 38.7166Z" fill="#446172"/>
</g>
<defs>
<clipPath id="clip0_810_419">
<rect width="78" height="70" fill="white"/>
</clipPath>
</defs>
</svg>
