<svg width="78" height="68" viewBox="0 0 78 68" fill="none" xmlns="http://www.w3.org/2000/svg">
<path fill-rule="evenodd" clip-rule="evenodd" d="M46.4509 43.4631H29.7963C22.6016 43.4631 16.7478 37.5665 16.7478 30.3171V12.0268C16.7478 11.3227 16.8042 10.6303 16.9098 9.95532H11.7155C5.54781 9.95386 0.548828 14.9948 0.548828 21.2091V39.4995C0.548828 45.7124 5.54781 50.7503 11.717 50.7503H29.0905L47.5444 67.4022L47.6558 50.7503H48.5931C50.2927 50.7503 51.9026 50.3655 53.3448 49.6818L46.4524 43.4616L46.4509 43.4631Z" fill="#EB1E32"/>
<path fill-rule="evenodd" clip-rule="evenodd" d="M29.7975 0.769775H66.6722C72.84 0.769775 77.8404 5.81066 77.8404 12.025V30.3154C77.8404 36.5283 72.84 41.5663 66.6722 41.5663H65.7349L65.6236 58.2181L47.1696 41.5663H29.7961C23.6269 41.5663 18.6279 36.5283 18.6279 30.3154V12.025C18.6279 5.81066 23.6284 0.769775 29.7975 0.769775Z" fill="#446172"/>
</svg>
