<svg width="58" height="58" viewBox="0 0 58 58" fill="none" xmlns="http://www.w3.org/2000/svg">
<g clip-path="url(#clip0_936_825)">
<path d="M42.3697 0H8.12969C5.66969 0 3.67969 2 3.67969 4.46V52.7C3.67969 55.16 5.67969 57.16 8.13969 57.16H42.3797C44.8397 57.16 46.8397 55.17 46.8397 52.7V4.46C46.8397 2 44.8397 0 42.3797 0H42.3697ZM10.7397 52.67C7.90969 52.67 5.61969 50.38 5.61969 47.55C5.61969 44.72 7.91969 42.43 10.7397 42.43C13.5597 42.43 15.8597 44.72 15.8597 47.55C15.8597 50.38 13.5597 52.67 10.7397 52.67ZM10.7397 39.72C7.90969 39.72 5.61969 37.43 5.61969 34.6C5.61969 31.77 7.91969 29.48 10.7397 29.48C13.5597 29.48 15.8597 31.77 15.8597 34.6C15.8597 37.43 13.5597 39.72 10.7397 39.72ZM10.7397 26.77C7.90969 26.77 5.61969 24.48 5.61969 21.65C5.61969 18.82 7.91969 16.53 10.7397 16.53C13.5597 16.53 15.8597 18.82 15.8597 21.65C15.8597 24.48 13.5597 26.77 10.7397 26.77ZM10.7397 13.82C7.90969 13.82 5.61969 11.53 5.61969 8.7C5.61969 5.87 7.91969 3.58 10.7397 3.58C13.5597 3.58 15.8597 5.87 15.8597 8.7C15.8597 11.53 13.5597 13.82 10.7397 13.82Z" fill="#446172"/>
<path d="M13.38 8.70018C13.38 10.5102 11.92 11.9702 10.11 11.9702H3.27C1.46 11.9702 0 10.5002 0 8.70018C0 6.89018 1.46 5.43018 3.27 5.43018H10.11C11.92 5.43018 13.38 6.89018 13.38 8.70018Z" fill="#EB1E32"/>
<path d="M13.38 21.6499C13.38 23.4599 11.92 24.9199 10.11 24.9199H3.27C1.46 24.9199 0 23.4499 0 21.6499C0 19.8399 1.46 18.3799 3.27 18.3799H10.11C11.92 18.3799 13.38 19.8399 13.38 21.6499Z" fill="#EB1E32"/>
<path d="M13.38 34.6001C13.38 36.4101 11.92 37.8701 10.11 37.8701H3.27C1.46 37.8701 0 36.4101 0 34.6001C0 32.7901 1.46 31.3301 3.27 31.3301H10.11C11.92 31.3301 13.38 32.8001 13.38 34.6001Z" fill="#EB1E32"/>
<path d="M13.38 47.5498C13.38 49.3598 11.92 50.8198 10.11 50.8198H3.27C1.46 50.8198 0 49.3498 0 47.5498C0 45.7398 1.46 44.2798 3.27 44.2798H10.11C11.92 44.2798 13.38 45.7498 13.38 47.5498Z" fill="#EB1E32"/>
<path d="M54.3697 1.6001L57.3097 6.8401H51.4297L54.3697 1.6001Z" fill="#446172"/>
<path d="M57.3097 39.6704H51.4297V41.0104H57.3097V39.6704Z" fill="#446172"/>
<path d="M57.3097 8.59033H51.4297V37.9603H57.3097V8.59033Z" fill="#EB1E32"/>
<path d="M57.3097 45.7705H51.4297V56.4605H57.3097V45.7705Z" fill="#EB1E32"/>
<path d="M57.3097 42.7202H51.4297V44.0602H57.3097V42.7202Z" fill="#446172"/>
</g>
<defs>
<clipPath id="clip0_936_825">
<rect width="57.31" height="57.16" fill="white"/>
</clipPath>
</defs>
</svg>
