<svg width="57" height="55" viewBox="0 0 57 55" fill="none" xmlns="http://www.w3.org/2000/svg">
<g clip-path="url(#clip0_936_383)">
<path d="M56.5493 23.8363C56.5493 17.2542 51.2712 11.9211 44.757 11.9211C43.0724 11.9211 41.4753 12.2803 40.0259 12.9214C40.0532 12.5898 40.0697 12.2582 40.0697 11.9211C40.0697 5.33896 34.7916 0.00585938 28.2774 0.00585938C21.7632 0.00585938 16.4851 5.33896 16.4851 11.9211C16.4851 12.2582 16.5015 12.5898 16.5289 12.9214C15.0794 12.2803 13.4824 11.9211 11.7977 11.9211C5.27808 11.9155 0 17.2542 0 23.8363C0 29.4788 3.88882 34.2095 9.10127 35.4364C7.38384 37.5089 6.3501 40.1727 6.3501 43.0851C6.3501 49.6672 11.6282 55.0003 18.1424 55.0003C22.4469 55.0003 26.2154 52.6681 28.2719 49.1864C30.3285 52.6681 34.0969 55.0003 38.4015 55.0003C44.9156 55.0003 50.1937 49.6672 50.1937 43.0851C50.1937 40.1727 49.16 37.5089 47.4426 35.4364C52.6605 34.204 56.5438 29.4788 56.5438 23.8363H56.5493ZM47.2019 15.0878C47.2019 15.0878 49.7015 21.5593 39.9548 23.6483C39.9548 23.6483 47.4207 20.139 47.2019 15.0878ZM34.1571 5.4716C34.1571 5.4716 37.4826 11.8658 30.9028 16.5357C30.9028 16.5357 34.5509 11.9487 34.1571 5.4716ZM28.2774 18.5916C30.4816 13.2087 27.6156 2.01199 27.6156 2.01199C33.3039 9.35122 28.2774 18.5916 28.2774 18.5916ZM26.6639 15.0712C26.6639 15.0712 26.1388 6.7648 21.4022 5.14C21.4022 5.14 28.2774 5.14 26.6639 15.0712ZM17.9838 21.8578C17.9838 21.8578 14.5434 17.1105 8.24803 15.8228C8.24803 15.8228 15.2162 14.2256 17.9838 21.8578ZM3.25436 21.3162C11.743 17.6576 19.2746 24.9526 19.2746 24.9526C14.6966 21.4101 3.25436 21.3162 3.25436 21.3162ZM4.63268 28.1912C4.63268 28.1912 6.41027 21.482 15.4897 25.6213C15.4897 25.6213 7.41119 23.991 4.63268 28.1912ZM10.4194 44.826C10.4194 44.826 10.6601 37.6084 18.6674 36.8402C18.6674 36.8402 13.2526 38.9955 10.4194 44.826ZM21.342 51.4965C21.342 51.4965 15.3693 48.059 21.6374 40.2335C21.6374 40.2335 18.0275 47.7108 21.342 51.4965ZM14.4122 51.0986C13.0667 41.8748 21.9601 36.3649 21.9601 36.3649C17.404 39.935 14.4122 51.0986 14.4122 51.0986ZM28.2774 36.3594C23.9182 36.3594 20.3849 32.7892 20.3849 28.3846C20.3849 23.9799 23.9182 20.4098 28.2774 20.4098C32.6366 20.4098 36.1699 23.9799 36.1699 28.3846C36.1699 32.7892 32.6366 36.3594 28.2774 36.3594ZM33.2711 39.6255C33.2711 39.6255 33.0851 45.5058 37.2583 50.441C37.2583 50.441 30.7934 47.3572 33.2711 39.6255ZM34.1407 36.3815C35.5792 42.0241 44.5382 49.2196 44.5382 49.2196C35.6229 46.81 34.1407 36.3815 34.1407 36.3815ZM47.6449 42.9525C47.6449 42.9525 42.1535 47.1306 37.5318 38.2163C37.5318 38.2163 42.8974 44.5331 47.6449 42.9525ZM40.1517 28.1746C40.1517 28.1746 45.7033 29.9431 51.5338 27.2185C51.5338 27.2185 46.8464 32.6732 40.1517 28.1746ZM37.2966 26.4503C43.0615 26.5719 52.3432 19.8074 52.3432 19.8074C47.6395 27.8264 37.2966 26.4503 37.2966 26.4503Z" fill="#EB1E32"/>
</g>
<defs>
<clipPath id="clip0_936_383">
<rect width="56.5493" height="55" fill="white"/>
</clipPath>
</defs>
</svg>
