<svg width="73" height="55" viewBox="0 0 73 55" fill="none" xmlns="http://www.w3.org/2000/svg">
<g clip-path="url(#clip0_936_392)">
<path d="M36.215 30.283C38.5355 30.283 40.4728 31.1754 41.822 32.8646C43.4075 34.8513 44.0165 37.8154 43.4233 40.6095C43.3235 41.0663 43.1765 41.5178 42.9928 41.9587C43.9955 40.5935 44.7988 39.0956 45.1348 37.5391C45.8855 34.0173 45.1242 30.2936 43.145 27.813C41.4965 25.7466 39.113 24.6523 36.2465 24.6523C33.1648 24.6523 30.5083 25.9856 28.7705 28.4132C26.9173 31.0001 26.3765 34.4795 27.3478 37.5073C27.7415 38.7343 28.3978 39.9402 29.1695 41.0769C29.117 40.9335 29.0645 40.7954 29.0173 40.652C28.2298 38.2191 28.6708 35.4197 30.1565 33.3374C31.5688 31.372 33.716 30.2883 36.2098 30.2883L36.215 30.283Z" fill="#EB1E32"/>
<path d="M40.3348 43.2285C40.6918 41.5658 40.3348 39.8129 39.4003 38.6443C38.6338 37.6828 37.5208 37.1729 36.1873 37.1729C34.7436 37.1729 33.5046 37.7943 32.6961 38.9258C31.8298 40.1369 31.5726 41.7677 32.0293 43.186C32.5806 44.8858 34.1608 46.5113 35.2686 47.4887C35.6886 47.8286 36.0193 48.0889 36.2241 48.243C37.0588 47.6587 39.8361 45.5551 40.3348 43.2232V43.2285Z" fill="#EB1E32"/>
<path d="M60.984 13.7469L57.0727 18.3896C57.0727 18.3896 59.5035 29.9909 53.6182 35.6428C56.9782 28.7904 58.317 19.2607 52.185 7.19727C52.7257 10.0604 53.7547 16.8225 53.13 24.1212C52.647 29.7731 51.2715 34.6335 49.056 38.575C46.4678 43.1698 42.714 46.5057 37.8945 48.503C53.1615 49.5601 61.8135 46.4048 66.423 43.5045C69.8669 41.3372 71.5889 39.0159 72.3502 37.7145C71.2529 36.5724 67.179 33.4543 56.7682 35.7756C58.6897 34.761 61.11 34.2139 62.979 33.927C64.554 28.8807 66.6067 21.7361 60.9787 13.7522L60.984 13.7469Z" fill="#EB1E32"/>
<path d="M72.4601 38.9521C71.4836 40.3598 69.7511 42.2987 66.8216 44.1472C62.7476 46.7129 55.6024 49.4751 43.7164 49.4751C41.5219 49.4751 39.1594 49.3795 36.6289 49.1724C38.1619 51.2015 43.4854 56.9066 53.3239 54.3674C53.3239 54.3674 53.2609 52.2905 52.1899 51.3662C52.1899 51.3662 68.9006 51.5468 72.4601 38.9575V38.9521Z" fill="#EB1E32"/>
<path d="M5.43957 44.1422C2.85132 42.5114 1.19758 40.8063 0.173828 39.457C4.03782 51.5311 20.2918 51.3558 20.2918 51.3558C19.2208 52.2801 19.1578 54.3571 19.1578 54.3571C29.0278 56.9068 34.3512 51.154 35.8685 49.146C33.2487 49.3691 30.8075 49.4701 28.5448 49.4701C16.6588 49.4701 9.51356 46.7079 5.43957 44.1422Z" fill="#EB1E32"/>
<path d="M5.90624 43.5371C10.5157 46.4162 19.1572 49.5502 34.3717 48.4985C29.5522 46.5012 25.7984 43.1653 23.2102 38.5704C20.9894 34.6343 19.6192 29.7685 19.1362 24.1166C18.5535 17.3545 19.3987 11.0439 19.9552 7.87793C14.217 19.6174 15.5715 28.9186 18.8685 35.6382C12.9832 29.9916 15.414 18.385 15.414 18.385L11.5027 13.7423C5.87474 21.7262 7.92748 28.8708 9.50248 33.9171C11.3715 34.204 13.797 34.7564 15.7132 35.7657C4.83524 33.3381 0.871498 36.8547 0 37.8427C0.813748 39.176 2.55149 41.4336 5.90624 43.5318V43.5371Z" fill="#EB1E32"/>
<path d="M27.1266 9.13105C27.6516 9.13105 28.0716 8.70079 28.0716 8.1749C28.0716 7.64902 27.6464 7.21875 27.1266 7.21875C26.6069 7.21875 26.1816 7.64902 26.1816 8.1749C26.1816 8.70079 26.6069 9.13105 27.1266 9.13105Z" fill="#EB1E32"/>
<path d="M20.9098 4.80684C21.4348 4.80684 21.8548 4.37657 21.8548 3.85068C21.8548 3.3248 21.4296 2.89453 20.9098 2.89453C20.3901 2.89453 19.9648 3.3248 19.9648 3.85068C19.9648 4.37657 20.3901 4.80684 20.9098 4.80684Z" fill="#EB1E32"/>
<path d="M16.8102 9.03535C17.3352 9.03535 17.7552 8.60508 17.7552 8.0792C17.7552 7.55332 17.33 7.12305 16.8102 7.12305C16.2905 7.12305 15.8652 7.55332 15.8652 8.0792C15.8652 8.60508 16.2905 9.03535 16.8102 9.03535Z" fill="#EB1E32"/>
<path d="M14.1286 13.6359C14.6536 13.6359 15.0736 13.2057 15.0736 12.6798C15.0736 12.1539 14.6483 11.7236 14.1286 11.7236C13.6088 11.7236 13.1836 12.1539 13.1836 12.6798C13.1836 13.2057 13.6088 13.6359 14.1286 13.6359Z" fill="#EB1E32"/>
<path d="M12.2321 10.9533C12.7571 10.9533 13.1771 10.5231 13.1771 9.99717C13.1771 9.47128 12.7519 9.04102 12.2321 9.04102C11.7124 9.04102 11.2871 9.47128 11.2871 9.99717C11.2871 10.5231 11.7124 10.9533 12.2321 10.9533Z" fill="#EB1E32"/>
<path d="M30.6278 4.98279C31.1003 4.98279 31.4783 4.59502 31.4783 4.12226C31.4783 3.64949 31.0951 3.26172 30.6278 3.26172C30.1606 3.26172 29.7773 3.64949 29.7773 4.12226C29.7773 4.59502 30.1606 4.98279 30.6278 4.98279Z" fill="#EB1E32"/>
<path d="M36.2411 1.72596C36.7136 1.72596 37.0916 1.33818 37.0916 0.86542C37.0916 0.392656 36.7084 0.00488281 36.2411 0.00488281C35.7739 0.00488281 35.3906 0.392656 35.3906 0.86542C35.3906 1.33818 35.7739 1.72596 36.2411 1.72596Z" fill="#EB1E32"/>
<path d="M41.165 4.98279C41.6375 4.98279 42.0154 4.59502 42.0154 4.12226C42.0154 3.64949 41.6322 3.26172 41.165 3.26172C40.6977 3.26172 40.3145 3.64949 40.3145 4.12226C40.3145 4.59502 40.6977 4.98279 41.165 4.98279Z" fill="#EB1E32"/>
<path d="M44.1942 9.03553C44.6667 9.03553 45.0447 8.64775 45.0447 8.17499C45.0447 7.70223 44.6615 7.31445 44.1942 7.31445C43.727 7.31445 43.3438 7.70223 43.3438 8.17499C43.3438 8.64775 43.727 9.03553 44.1942 9.03553Z" fill="#EB1E32"/>
<path d="M52.4258 3.84071C52.746 3.49012 52.725 2.94299 52.3785 2.62427C52.032 2.30024 51.4965 2.32149 51.1763 2.67208C50.856 3.02267 50.877 3.5698 51.2235 3.88852C51.57 4.21255 52.1108 4.1913 52.4258 3.84071Z" fill="#EB1E32"/>
<path d="M54.6006 7.93107C54.9891 8.19667 55.5194 8.09574 55.7819 7.70266C56.0444 7.30957 55.9446 6.77307 55.5561 6.50747C55.1676 6.24187 54.6374 6.3428 54.3749 6.73588C54.1124 7.12897 54.2121 7.66548 54.6006 7.93107Z" fill="#EB1E32"/>
<path d="M57.5664 12.9081C57.8867 12.5575 57.8656 12.0104 57.5192 11.6917C57.1727 11.3676 56.6319 11.3889 56.3169 11.7395C55.9967 12.0901 56.0177 12.6372 56.3642 12.9559C56.7107 13.2799 57.2514 13.2587 57.5664 12.9081Z" fill="#EB1E32"/>
<path d="M61.2305 11.1229C61.5507 10.7723 61.5297 10.2252 61.1832 9.9065C60.8367 9.58247 60.3012 9.60372 59.981 9.95431C59.6607 10.3049 59.6817 10.852 60.0282 11.1707C60.3747 11.4948 60.9155 11.4735 61.2305 11.1229Z" fill="#EB1E32"/>
<path d="M47.9482 6.7035C48.4207 6.7035 48.7987 6.31572 48.7987 5.84296C48.7987 5.37019 48.4154 4.98242 47.9482 4.98242C47.4809 4.98242 47.0977 5.37019 47.0977 5.84296C47.0977 6.31572 47.4809 6.7035 47.9482 6.7035Z" fill="#EB1E32"/>
<path d="M25.1263 32.323C22.3963 23.4892 27.5675 13.8268 27.5675 13.8268L20.9315 6.74593C20.4538 9.10444 19.2148 16.2809 19.8868 24.0629C20.9105 35.9617 25.709 43.8553 34.151 47.5683C31.8042 45.5816 27.935 41.8208 26.6173 37.7359C25.5673 34.485 26.15 30.7347 28.145 27.9566C30.0298 25.3272 32.9015 23.8823 36.2352 23.8823C39.338 23.8823 41.9262 25.0722 43.7217 27.3298C45.8427 29.9857 46.6617 33.9591 45.8637 37.6987C45.029 41.6136 41.5115 45.0983 39.0177 47.1434C46.8927 43.2709 51.3762 35.5208 52.3684 24.0629C53.0247 16.4827 51.8592 9.47628 51.3604 6.93716L44.9082 13.8268C44.9082 13.8268 49.7487 22.8677 47.591 31.4572C48.1632 23.3139 46.0475 13.4762 36.3245 4.80176C26.255 13.7843 24.344 24.0151 25.1315 32.323H25.1263ZM36.2352 9.37535C36.6657 9.37535 37.0122 9.72594 37.0122 10.1615C37.0122 10.5971 36.6657 10.9477 36.2352 10.9477C35.8047 10.9477 35.4582 10.5971 35.4582 10.1615C35.4582 9.72594 35.8047 9.37535 36.2352 9.37535ZM36.965 13.9277C36.965 14.3367 36.6395 14.6661 36.2352 14.6661C35.831 14.6661 35.5055 14.3367 35.5055 13.9277C35.5055 13.5187 35.831 13.1893 36.2352 13.1893C36.6395 13.1893 36.965 13.5187 36.965 13.9277ZM36.2352 17.168C37.1067 17.168 37.8155 17.8851 37.8155 18.7669C37.8155 19.6487 37.1067 20.3658 36.2352 20.3658C35.3637 20.3658 34.655 19.6487 34.655 18.7669C34.655 17.8851 35.3637 17.168 36.2352 17.168Z" fill="#EB1E32"/>
</g>
<defs>
<clipPath id="clip0_936_392">
<rect width="72.4603" height="55" fill="white"/>
</clipPath>
</defs>
</svg>
