<svg width="58" height="55" viewBox="0 0 58 55" fill="none" xmlns="http://www.w3.org/2000/svg">
<g clip-path="url(#clip0_936_389)">
<path d="M55.091 23.8899C55.6126 23.3233 55.9265 22.5912 55.852 21.6291C55.5381 17.5887 54.8675 16.7443 55.7669 14.9218C53.8511 15.5739 53.106 14.7989 49.1627 13.9491C48.226 13.746 47.4544 13.9652 46.8318 14.4034C46.438 12.3404 44.9904 11.2021 42.3296 11.8113C42.1274 11.9556 41.9358 12.116 41.7389 12.271C40.8076 13.0299 39.9508 13.8957 39.1525 14.8149L38.5725 15.5258C38.3756 15.7609 38.2053 16.0174 38.0243 16.2633C37.6518 16.7496 37.3272 17.2734 36.9919 17.7918C36.8163 18.0483 36.6726 18.3156 36.5183 18.5881L36.0606 19.3952C35.7733 19.9403 35.5072 20.5015 35.2251 21.0573C35.4433 20.4801 35.6562 19.8922 35.885 19.315L36.2629 18.4599C36.3906 18.1766 36.5077 17.888 36.6567 17.6101C36.9387 17.0543 37.2154 16.4878 37.5401 15.9533C37.6997 15.6861 37.8487 15.4028 38.0243 15.1463L38.5459 14.3553C39.2377 13.3612 40.004 12.4099 40.8661 11.5281C40.8023 10.534 40.5788 9.54529 40.1317 8.57794C38.8279 5.75071 36.9121 5.30177 34.9963 6.42411C34.9165 5.65985 34.5706 4.93835 33.7989 4.36115C30.5633 1.93475 29.4937 1.88665 28.7167 0.0107422C27.945 1.892 26.8701 1.9401 23.6345 4.36115C22.8628 4.93835 22.5222 5.65985 22.4371 6.42411C20.5213 5.30177 18.6055 5.75071 17.3016 8.57794C16.812 9.64683 16.5832 10.7424 16.5566 11.8434C17.2963 12.6344 17.9615 13.4735 18.5735 14.35L19.0951 15.141C19.2707 15.4028 19.4144 15.6807 19.5793 15.948C19.9093 16.4824 20.1807 17.0489 20.4627 17.6048C20.6117 17.8773 20.7288 18.1713 20.8565 18.4545L21.2344 19.3096C21.4632 19.8868 21.6761 20.4747 21.8943 21.0519C21.6122 20.4961 21.3461 19.9403 21.0588 19.3898L20.6011 18.5828C20.4468 18.3156 20.3031 18.043 20.1275 17.7865C19.7922 17.2681 19.4676 16.7443 19.0951 16.2579C18.9088 16.0121 18.7438 15.7556 18.5469 15.5204L17.9669 14.8096C17.142 13.8583 16.2586 12.9657 15.29 12.1855C12.5174 11.48 11.0167 12.6237 10.6123 14.7294C9.9843 14.2858 9.21798 14.0721 8.28136 14.2751C4.33265 15.1249 3.59294 15.8999 1.67713 15.2478C2.57649 17.0703 1.90596 17.9094 1.59198 21.9552C1.51747 22.9172 1.83146 23.6494 2.35298 24.2159C0.25091 24.9267 -0.675066 26.669 0.586177 29.5176C1.70373 32.0455 3.91224 33.5901 6.4028 34.5254C6.52519 34.5467 6.64759 34.5681 6.76999 34.5842L7.21169 34.6429L7.6534 34.6804C7.95141 34.7124 8.24943 34.7178 8.54744 34.7285C9.74482 34.7605 10.9529 34.6697 12.1609 34.488L13.0602 34.3276C13.3636 34.2795 13.6563 34.194 13.9543 34.1299C14.5556 34.007 15.141 33.8199 15.7264 33.6489C16.0244 33.5687 16.3118 33.4618 16.5992 33.3549L17.4719 33.0449C18.0467 32.8151 18.6108 32.5693 19.1855 32.3288C18.6427 32.6227 18.0999 32.9327 17.5518 33.2213L16.7109 33.6221C16.4289 33.7558 16.1522 33.8947 15.8595 34.007C15.2847 34.2421 14.71 34.4933 14.1139 34.6857C13.8159 34.7819 13.5232 34.8995 13.2199 34.985L12.3152 35.2415C11.0965 35.5515 9.85126 35.7867 8.57405 35.8829C8.33457 35.8989 8.0951 35.9149 7.85562 35.9203C6.9669 36.8716 6.26975 37.9886 5.88127 39.3247C5.00851 42.3176 6.158 43.921 8.33457 44.3432C7.89287 44.9738 7.68 45.7434 7.88223 46.684C8.72838 50.6496 9.50002 51.3925 8.85078 53.3219C10.6655 52.4187 11.501 53.0921 15.5295 53.4074C16.4874 53.4822 17.2165 53.1669 17.7806 52.6431C18.4884 54.7542 20.2233 55.6841 23.0597 54.4175C25.5928 53.2845 27.1361 51.0505 28.0674 48.5332C28.0036 47.6728 27.9929 46.8177 28.0249 45.9625L28.0834 45.0166C28.0994 44.7012 28.1526 44.3913 28.1845 44.0759C28.2431 43.4506 28.3655 42.836 28.4719 42.2161C28.5198 41.9061 28.5943 41.6015 28.6688 41.3022L28.8817 40.3936C29.0466 39.795 29.2329 39.1964 29.4032 38.6032C29.2914 39.2125 29.169 39.8217 29.0679 40.431L28.9508 41.3503C28.9136 41.6549 28.8657 41.9595 28.8497 42.2695C28.8072 42.8841 28.7486 43.4987 28.7539 44.1134C28.7539 44.418 28.7327 44.728 28.7539 45.0326L28.7912 45.9519C28.8072 46.187 28.8497 46.4222 28.9083 46.6466C29.7438 49.7678 31.3616 52.7126 34.4003 54.0701C37.2367 55.3368 38.9716 54.4068 39.6794 52.2957C40.2435 52.8195 40.9726 53.1348 41.9305 53.06C45.9537 52.7447 46.7945 52.0713 48.6092 52.9745C47.96 51.0505 48.7316 50.3023 49.5778 46.342C49.78 45.4014 49.5618 44.6264 49.1254 44.0011C51.302 43.5789 52.4515 41.9756 51.5787 38.9827C51.2381 37.8122 50.6527 36.8021 49.913 35.931H49.4926C49.1733 35.931 48.854 35.8989 48.5347 35.8775C47.2628 35.7813 46.0122 35.5515 44.7935 35.2362L43.8889 34.9796C43.5855 34.8995 43.2928 34.7819 42.9948 34.6804C42.3988 34.488 41.824 34.2421 41.2493 34.0016C40.9566 33.8894 40.6799 33.7504 40.3978 33.6168L39.557 33.216C39.0089 32.9274 38.466 32.6227 37.9232 32.3234C38.498 32.5639 39.0621 32.8098 39.6368 33.0396L40.5096 33.3496C40.7969 33.4511 41.0896 33.5634 41.3823 33.6435C41.973 33.8145 42.5584 34.0016 43.1545 34.1245C43.4525 34.1887 43.7452 34.2742 44.0485 34.3223L44.9479 34.4826C46.1506 34.659 47.3586 34.7552 48.5613 34.7231C48.8593 34.7071 49.1573 34.7071 49.4554 34.675L49.5724 34.6643C52.6431 33.8146 55.5327 32.1952 56.8685 29.1755C58.1297 26.3269 57.2038 24.5846 55.1017 23.8738L55.091 23.8899ZM37.093 34.3704C37.093 34.7766 36.7631 35.1079 36.3586 35.1079C35.9542 35.1079 35.6243 34.7766 35.6243 34.3704C35.6243 33.9642 35.9542 33.6328 36.3586 33.6328C36.7631 33.6328 37.093 33.9642 37.093 34.3704ZM36.6992 22.6553C37.1037 22.6553 37.4336 22.9866 37.4336 23.3928C37.4336 23.799 37.1037 24.1304 36.6992 24.1304C36.2948 24.1304 35.9648 23.799 35.9648 23.3928C35.9648 22.9866 36.2948 22.6553 36.6992 22.6553ZM32.3461 18.524C32.7505 18.524 33.0805 18.8554 33.0805 19.2615C33.0805 19.6677 32.7505 19.9991 32.3461 19.9991C31.9416 19.9991 31.6117 19.6677 31.6117 19.2615C31.6117 18.8554 31.9416 18.524 32.3461 18.524ZM28.5198 8.28399C28.557 7.22044 28.6103 6.15154 28.7167 5.08799C28.8231 6.15154 28.8763 7.22044 28.9136 8.28399C28.9562 9.34754 28.9668 10.4164 28.9721 11.48C28.9721 12.5435 28.9562 13.6124 28.9136 14.676C28.8763 15.7395 28.8231 16.8084 28.7114 17.872C28.6049 16.8084 28.5517 15.7395 28.5091 14.676C28.4666 13.6124 28.4559 12.5435 28.4559 11.48C28.4559 10.4164 28.4719 9.34754 28.5145 8.28399H28.5198ZM25.3534 18.2461C25.7578 18.2461 26.0878 18.5774 26.0878 18.9836C26.0878 19.3898 25.7578 19.7212 25.3534 19.7212C24.9489 19.7212 24.619 19.3898 24.619 18.9836C24.619 18.5774 24.9489 18.2461 25.3534 18.2461ZM19.8241 22.7889C20.2286 22.7889 20.5585 23.1203 20.5585 23.5264C20.5585 23.9326 20.2286 24.264 19.8241 24.264C19.4197 24.264 19.0897 23.9326 19.0897 23.5264C19.0897 23.1203 19.4197 22.7889 19.8241 22.7889ZM16.0351 25.1191C14.7845 24.3922 13.5552 23.6387 12.3258 22.8744C11.1019 22.1048 9.87787 21.3352 8.67516 20.5335C7.46714 19.7425 6.27507 18.9195 5.09898 18.0751C6.37619 18.7538 7.64275 19.4593 8.88803 20.1968C10.1386 20.9237 11.3679 21.6772 12.6026 22.4415C13.8266 23.2111 15.0506 23.9807 16.2533 24.7824C17.4613 25.5734 18.6534 26.3964 19.8294 27.2462C18.5522 26.5674 17.2857 25.862 16.0404 25.1244L16.0351 25.1191ZM18.5097 29.6298C18.5097 29.2236 18.8396 28.8923 19.2441 28.8923C19.6485 28.8923 19.9785 29.2236 19.9785 29.6298C19.9785 30.036 19.6485 30.3674 19.2441 30.3674C18.8396 30.3674 18.5097 30.036 18.5097 29.6298ZM19.6592 39.5064C18.8556 40.7143 18.0307 41.9007 17.1952 43.0872C16.3544 44.2683 15.5082 45.4441 14.6408 46.5985C13.7787 47.7583 12.8846 48.902 11.9693 50.0297C12.725 48.7898 13.5073 47.5712 14.3162 46.3687C15.1197 45.1609 15.9446 43.9744 16.7801 42.7879C17.6209 41.6068 18.4671 40.431 19.3345 39.2766C20.1966 38.1115 21.0907 36.9731 22.006 35.8455C21.2503 37.0854 20.4681 38.3039 19.6592 39.5064ZM21.5111 34.3757C21.1067 34.3757 20.7767 34.0444 20.7767 33.6382C20.7767 33.232 21.1067 32.9006 21.5111 32.9006C21.9156 32.9006 22.2455 33.232 22.2455 33.6382C22.2455 34.0444 21.9156 34.3757 21.5111 34.3757ZM26.4709 38.4536C26.0665 38.4536 25.7365 38.1222 25.7365 37.716C25.7365 37.3098 26.0665 36.9785 26.4709 36.9785C26.8754 36.9785 27.2053 37.3098 27.2053 37.716C27.2053 38.1222 26.8754 38.4536 26.4709 38.4536ZM32.7399 37.716C32.3354 37.716 32.0055 37.3847 32.0055 36.9785C32.0055 36.5723 32.3354 36.2409 32.7399 36.2409C33.1443 36.2409 33.4743 36.5723 33.4743 36.9785C33.4743 37.3847 33.1443 37.716 32.7399 37.716ZM28.8551 35.605C24.5019 35.605 21.0055 31.9279 21.2769 27.492C21.5111 23.6921 24.587 20.603 28.3708 20.3678C32.7825 20.0953 36.4491 23.6066 36.4491 27.9784V27.9944C36.4491 29.058 36.0819 30.0948 35.422 30.9232C35.1985 31.2011 34.9537 31.4683 34.6823 31.7195C33.2721 33.0289 31.4361 33.7077 29.5149 33.6328C26.3858 33.5099 23.9378 30.8484 24.0655 27.7058C24.1613 25.2313 26.2474 23.302 28.7114 23.3982C30.1642 23.457 31.3829 24.4029 31.8565 25.6963C32.3567 27.0591 31.8352 28.5396 30.6006 29.2985C29.5841 29.9238 28.4559 29.7421 27.7747 28.9992C27.4075 28.5983 27.2053 28.0799 27.216 27.5348C27.216 27.2088 27.3171 26.8828 27.5033 26.6209C27.828 26.1666 28.3335 25.9154 28.8657 25.9314C29.0945 25.9368 29.3127 26.0009 29.499 26.1238C29.8662 26.3697 30.0684 26.7705 30.0471 27.1927C30.0471 27.2355 30.0365 27.2783 30.0205 27.3157C29.6852 28.1387 29.0041 28.2135 28.6741 27.8501C28.557 27.7218 28.4985 27.5615 28.5038 27.3851C28.5145 27.1767 28.3495 27.0003 28.1419 26.995C27.9344 26.9843 27.7588 27.15 27.7535 27.3584C27.7322 27.8501 27.9663 28.3151 28.3974 28.5983C28.573 28.7159 28.7752 28.7854 28.9828 28.8068C29.5575 28.8656 30.111 28.6251 30.4728 28.1494C30.6804 27.8768 30.7922 27.5348 30.7975 27.1927C30.8134 26.5514 30.5207 25.9475 29.9833 25.552C29.6693 25.3222 29.2968 25.1993 28.9136 25.1832C27.6151 25.1298 26.5135 26.1506 26.4656 27.4546C26.4017 29.0366 27.6311 30.3727 29.2063 30.4315C30.3877 30.4796 31.5053 29.9345 32.213 28.919C32.5909 28.3792 32.7878 27.7325 32.8144 27.0752C32.8676 25.739 32.3035 24.4724 31.2498 23.5959C30.4941 22.9706 29.5469 22.6499 28.5677 22.6393C25.7685 22.6179 23.4269 24.8412 23.3152 27.6737C23.1768 31.2332 25.9441 34.2421 29.4883 34.3811C31.5425 34.4612 33.5062 33.7611 35.0442 32.4036C33.6659 34.3437 31.4148 35.605 28.8604 35.605H28.8551ZM40.5894 42.9269C41.5207 44.0385 42.4413 45.1502 43.346 46.2832C44.2507 47.4109 45.1341 48.56 45.9909 49.7304C44.9851 48.6882 44.0006 47.6247 43.0427 46.5397C42.0795 45.4602 41.1375 44.3592 40.2009 43.2582C39.2696 42.1466 38.349 41.0349 37.4443 39.9019C36.5396 38.7742 35.6562 37.6252 34.7994 36.4494C35.8105 37.4916 36.7897 38.5551 37.7476 39.64C38.7108 40.7196 39.6528 41.8206 40.5894 42.9215V42.9269ZM38.168 29.9932C37.7636 29.9932 37.4336 29.6619 37.4336 29.2557C37.4336 28.8495 37.7636 28.5182 38.168 28.5182C38.5725 28.5182 38.9024 28.8495 38.9024 29.2557C38.9024 29.6619 38.5725 29.9932 38.168 29.9932ZM49.7268 20.1487C48.4815 20.8863 47.2256 21.5971 45.9643 22.3025C44.6978 23.0027 43.4312 23.6921 42.1487 24.3602C40.8714 25.0336 39.573 25.6749 38.2585 26.2895C39.4718 25.4985 40.7065 24.7396 41.9518 24.0074C43.197 23.2699 44.453 22.5591 45.7142 21.8536C46.9808 21.1588 48.2473 20.464 49.5299 19.8013C50.8124 19.1279 52.1056 18.4866 53.4147 17.872C52.2014 18.663 50.9667 19.4219 49.7214 20.1487H49.7268Z" fill="#EB1E32"/>
</g>
<defs>
<clipPath id="clip0_936_389">
<rect width="57.4265" height="55" fill="white"/>
</clipPath>
</defs>
</svg>
