<svg width="81" height="55" viewBox="0 0 81 55" fill="none" xmlns="http://www.w3.org/2000/svg">
<g clip-path="url(#clip0_936_381)">
<path d="M80.7947 36.4805C80.7947 36.4805 77.0931 30.8583 63.154 33.9313C65.2841 32.8197 67.9672 32.2202 70.0391 31.9059C71.7852 26.3768 74.0608 18.5488 67.8217 9.80114L63.4857 14.8879C63.4857 14.8879 66.1804 27.599 59.6561 33.7916C63.4566 26.1382 64.9291 15.4234 57.654 1.82759L50.0063 9.90008C50.0063 9.90008 55.3725 19.8059 52.9804 29.217C53.6148 20.2948 51.2693 9.51595 40.4905 0.0117188C29.3275 9.85352 27.209 21.063 28.082 30.1657C25.0556 20.4869 30.7884 9.9059 30.7884 9.9059L23.1407 1.83341C15.8656 15.4292 17.3439 26.1382 21.1386 33.7974C14.6143 27.6107 17.309 14.8937 17.309 14.8937L12.973 9.80696C6.73386 18.5546 9.00952 26.3826 10.7556 31.9117C12.8275 32.226 15.5164 32.8313 17.6407 33.9371C3.70159 30.8525 0 36.4805 0 36.4805C3.3582 51.2228 22.7159 51.0133 22.7159 51.0133C21.5286 52.026 21.4587 54.3017 21.4587 54.3017C33.6635 57.4154 39.6058 49.2091 40.3974 48.0101C41.1889 49.2091 47.1312 57.4154 59.336 54.3017C59.336 54.3017 59.2661 52.026 58.0788 51.0133C58.0788 51.0133 77.4365 51.2228 80.7947 36.4805Z" fill="#EB1E32"/>
</g>
<defs>
<clipPath id="clip0_936_381">
<rect width="80.7947" height="55" fill="white"/>
</clipPath>
</defs>
</svg>
