<svg width="58" height="55" viewBox="0 0 58 55" fill="none" xmlns="http://www.w3.org/2000/svg">
<g clip-path="url(#clip0_936_386)">
<path d="M55.306 23.8899C55.8296 23.3233 56.1448 22.5912 56.07 21.6291C55.7548 17.5887 55.0816 16.7443 55.9845 14.9218C54.0612 15.5739 53.3133 14.7989 49.3545 13.9491C48.4142 13.746 47.6396 13.9652 47.0145 14.4034C46.6191 12.3404 45.166 11.2021 42.4948 11.8113C42.2917 11.9556 42.0994 12.116 41.9017 12.271C40.9668 13.0299 40.1067 13.8957 39.3106 14.8149L38.7283 15.5258C38.5306 15.7609 38.3597 16.0174 38.178 16.2633C37.8041 16.7496 37.4782 17.2734 37.1416 17.7918C36.9653 18.0483 36.821 18.3156 36.6661 18.5881L36.2067 19.3952C35.9182 19.9403 35.651 20.5015 35.3679 21.0573C35.5869 20.4801 35.8006 19.8922 36.0304 19.315L36.4097 18.4599C36.5379 18.1766 36.6554 17.888 36.805 17.6101C37.0882 17.0543 37.366 16.4878 37.6919 15.9533C37.8521 15.6861 38.0017 15.4028 38.178 15.1463L38.7016 14.3553C39.3961 13.3612 40.1654 12.4099 41.0309 11.5281C40.9668 10.534 40.7424 9.54529 40.2937 8.57794C38.9847 5.75071 37.0615 5.30177 35.1382 6.42411C35.058 5.65985 34.7108 4.93835 33.9361 4.36115C30.6879 1.93475 29.6141 1.88665 28.8341 0.0107422C28.0594 1.892 26.9802 1.9401 23.732 4.36115C22.9573 4.93835 22.6154 5.65985 22.5299 6.42411C20.6067 5.30177 18.6834 5.75071 17.3745 8.57794C16.8829 9.64683 16.6532 10.7424 16.6265 11.8434C17.3638 12.6344 18.0369 13.4735 18.6513 14.35L19.1749 15.141C19.3512 15.4028 19.4954 15.6807 19.661 15.948C19.9923 16.4824 20.2647 17.0489 20.5479 17.6048C20.6975 17.8773 20.815 18.1713 20.9432 18.4545L21.3225 19.3096C21.5523 19.8868 21.766 20.4747 21.985 21.0519C21.7019 20.4961 21.4347 19.9403 21.1462 19.3898L20.6868 18.5828C20.5319 18.3156 20.3876 18.043 20.2113 17.7865C19.8747 17.2681 19.5488 16.7443 19.1749 16.2579C18.9879 16.0121 18.8223 15.7556 18.6246 15.5204L18.0423 14.8096C17.2142 13.8583 16.3273 12.9658 15.355 12.1908C12.5716 11.4853 11.065 12.629 10.659 14.7348C10.0286 14.2912 9.25924 14.0774 8.31897 14.2805C4.35485 15.1303 3.61225 15.9052 1.68362 15.2532C2.5865 17.0757 1.91334 17.9147 1.59814 21.9605C1.52334 22.9225 1.83855 23.6547 2.36211 24.2212C0.251836 24.932 -0.677754 26.6743 0.588412 29.5229C1.71033 32.0509 3.92746 33.5954 6.42773 34.5307C6.55061 34.5521 6.67349 34.5735 6.79636 34.5895L7.23979 34.6483L7.68321 34.6857C7.98239 34.7178 8.28157 34.7231 8.58075 34.7338C9.7828 34.7659 10.9955 34.675 12.2083 34.4933L13.1112 34.333C13.4157 34.2849 13.7095 34.1994 14.0087 34.1352C14.6124 34.0123 15.2001 33.8252 15.7877 33.6542C16.0869 33.574 16.3754 33.4672 16.6639 33.3603L17.5401 33.0503C18.1171 32.8205 18.6834 32.5746 19.2603 32.3341C18.7154 32.6281 18.1705 32.9381 17.6202 33.2267L16.7761 33.6275C16.4929 33.7611 16.2151 33.9001 15.9213 34.0123C15.3443 34.2475 14.7673 34.4986 14.169 34.691C13.8698 34.7872 13.576 34.9048 13.2714 34.9903L12.3632 35.2469C11.1398 35.5569 9.88965 35.792 8.60746 35.8882C8.36705 35.9042 8.12664 35.9203 7.88623 35.9256C6.99403 36.8716 6.29417 37.9939 5.90417 39.33C5.02801 42.323 6.18198 43.9263 8.36705 44.3485C7.92362 44.9792 7.70993 45.7488 7.91294 46.6894C8.76239 50.655 9.53705 51.3979 8.88527 53.3219C10.7071 52.4187 11.5458 53.0921 15.5901 53.4074C16.5517 53.4822 17.2836 53.1669 17.8499 52.6431C18.5605 54.7542 20.3021 55.6841 23.1497 54.4175C25.6927 53.2845 27.242 51.0505 28.1769 48.5332C28.1128 47.6728 28.1021 46.8177 28.1342 45.9625L28.193 45.0166C28.209 44.7012 28.2624 44.3913 28.2945 44.0813C28.3532 43.456 28.4761 42.8414 28.583 42.2214C28.631 41.9114 28.7058 41.6068 28.7806 41.3075L28.9943 40.3989C29.1599 39.8004 29.3469 39.2018 29.5179 38.6085C29.4057 39.2232 29.2828 39.8271 29.1813 40.4364L29.0638 41.3556C29.0264 41.6602 28.9783 41.9649 28.9623 42.2749C28.9195 42.8895 28.8608 43.5041 28.8661 44.1187C28.8661 44.4233 28.8447 44.7333 28.8661 45.0379L28.9035 45.9572C28.9195 46.1924 28.9623 46.4275 29.021 46.652C29.8652 49.7732 31.4839 52.718 34.5345 54.0755C37.382 55.3421 39.1237 54.4122 39.8342 52.3011C40.4005 52.8249 41.1324 53.1402 42.0941 53.0654C46.133 52.75 46.9771 52.0766 48.7989 52.9798C48.1471 51.0558 48.9217 50.3076 49.7712 46.3473C49.9742 45.4067 49.7552 44.6318 49.3171 44.0065C51.5022 43.5843 52.6561 41.9809 51.78 38.988C51.438 37.8176 50.8504 36.8075 50.1078 35.9363H49.6857C49.3652 35.9363 49.0446 35.9042 48.7241 35.8829C47.4472 35.7867 46.1917 35.5569 44.9683 35.2415L44.0601 34.985C43.7556 34.9048 43.4617 34.7872 43.1626 34.6857C42.5642 34.4933 41.9872 34.2475 41.4102 34.007C41.1164 33.8947 40.8386 33.7558 40.5554 33.6221L39.7113 33.2213C39.1611 32.9327 38.6161 32.6281 38.0712 32.3288C38.6482 32.5693 39.2145 32.8151 39.7915 33.0449L40.6676 33.3549C40.9561 33.4565 41.2446 33.5687 41.5438 33.6489C42.1368 33.8199 42.7245 34.007 43.3228 34.1299C43.622 34.194 43.9158 34.2795 44.2204 34.3276L45.1232 34.488C46.3306 34.6643 47.5434 34.7605 48.7508 34.7285C49.05 34.7124 49.3491 34.7124 49.6483 34.6804L49.7659 34.6697C52.8485 33.8199 55.7494 32.2005 57.0904 29.1809C58.3565 26.3323 57.427 24.59 55.3167 23.8792L55.306 23.8899ZM31.9113 13.4468C32.0075 12.8054 32.1357 12.1694 32.2639 11.5334C32.4028 10.8974 32.5524 10.2668 32.7287 9.64149C32.8997 9.01618 33.092 8.39088 33.3324 7.78161C33.3004 8.43898 33.2202 9.08566 33.1187 9.727C33.0226 10.3683 32.8943 11.0043 32.7661 11.6403C32.6272 12.2763 32.4776 12.907 32.3013 13.5323C32.1304 14.1576 31.938 14.7829 31.6976 15.3921C31.7297 14.7348 31.8098 14.0881 31.9113 13.4468ZM28.631 8.27865C28.6684 7.21509 28.7219 6.1462 28.8287 5.08265C28.9356 6.1462 28.989 7.21509 29.0264 8.27865C29.0691 9.3422 29.0798 10.4111 29.0852 11.4746C29.0852 12.5382 29.0691 13.6071 29.0264 14.6706C28.989 15.7342 28.9356 16.8031 28.8234 17.8666C28.7165 16.8031 28.6578 15.7342 28.6204 14.6706C28.5776 13.6071 28.5669 12.5382 28.5616 11.4746C28.5616 10.4111 28.5776 9.3422 28.6204 8.27865H28.631ZM21.3493 8.32675C21.7553 9.08566 22.1186 9.86061 22.4605 10.6409C22.8078 11.4212 23.1283 12.2122 23.4382 13.0032C23.7427 13.7995 24.0419 14.6012 24.309 15.4082C24.5814 16.2152 24.8379 17.0329 25.0462 17.8666C24.6402 17.1131 24.2769 16.3328 23.935 15.5525C23.5877 14.7722 23.2672 13.9812 22.9573 13.1849C22.6528 12.3885 22.3536 11.5869 22.0865 10.7799C21.8141 9.97284 21.5576 9.15514 21.3493 8.3214V8.32675ZM15.4832 17.2306C16.0442 17.9201 16.5838 18.6256 17.118 19.3364C17.6469 20.0525 18.1651 20.774 18.6673 21.5116C19.1695 22.2491 19.6557 22.992 20.0991 23.7723C19.4847 23.1203 18.9077 22.4415 18.3468 21.7521C17.7805 21.0626 17.2462 20.3572 16.7066 19.6463C16.1777 18.9302 15.6595 18.2087 15.1573 17.4711C14.6551 16.7336 14.169 15.9907 13.7255 15.2104C14.3399 15.8625 14.9169 16.5412 15.4779 17.2306H15.4832ZM12.9402 28.8602C11.8557 28.8656 10.7712 28.8442 9.68664 28.8175C8.60212 28.7801 7.52294 28.732 6.43842 28.6625C5.3539 28.593 4.27472 28.5021 3.19554 28.3632C4.28006 28.2884 5.36458 28.267 6.4491 28.2616C7.53362 28.2563 8.61815 28.2777 9.70267 28.3044C10.7872 28.3418 11.8664 28.3846 12.9509 28.4594C14.0354 28.5289 15.1146 28.6197 16.1938 28.7587C15.1092 28.8335 14.0247 28.8549 12.9402 28.8602ZM16.1029 25.1084C14.8475 24.3815 13.6134 23.628 12.3792 22.8637C11.1505 22.0941 9.92171 21.3245 8.71431 20.5228C7.50157 19.7319 6.30486 18.9088 5.12417 18.0644C6.40636 18.7431 7.67787 19.4486 8.92801 20.1861C10.1835 20.913 11.4176 21.6666 12.6571 22.4255C13.8858 23.1951 15.1146 23.9647 16.322 24.7664C17.5347 25.5573 18.7314 26.3804 19.9121 27.2248C18.6299 26.5461 17.3584 25.8406 16.1083 25.1031L16.1029 25.1084ZM9.77746 39.0521C8.76773 39.3995 7.75267 39.7309 6.72157 40.0141C7.67787 39.5331 8.6502 39.0949 9.63321 38.678C10.6109 38.2558 11.6046 37.8657 12.5983 37.4755C13.5973 37.0961 14.591 36.7219 15.6008 36.3799C16.6105 36.0325 17.6256 35.7011 18.6566 35.4179C17.7003 35.8989 16.728 36.3371 15.745 36.754C14.7673 37.1762 13.7736 37.5664 12.7799 37.9565C11.7862 38.336 10.7872 38.7101 9.77746 39.0521ZM17.2676 43.0712C16.4235 44.2523 15.574 45.4281 14.7032 46.5825C13.8377 47.7476 12.9402 48.886 12.0213 50.0137C12.7799 48.7737 13.5653 47.5552 14.3773 46.3527C15.184 45.1448 16.0121 43.9584 16.8509 42.7719C17.695 41.5908 18.5445 40.415 19.4153 39.2606C20.2808 38.1008 21.1783 36.9571 22.0972 35.8294C21.3386 37.0693 20.5532 38.2879 19.7412 39.4904C18.9345 40.6982 18.1064 41.8847 17.2676 43.0712ZM22.7704 41.7564C22.5406 42.4566 22.2842 43.146 22.0171 43.8301C21.7446 44.5142 21.4668 45.1929 21.1623 45.861C20.8577 46.5291 20.5372 47.1971 20.1739 47.8438C20.3449 47.1223 20.5586 46.4168 20.7936 45.7167C21.0234 45.0166 21.2798 44.3271 21.5469 43.643C21.8194 42.959 22.0972 42.2802 22.4017 41.6121C22.7062 40.9441 23.0268 40.276 23.3901 39.6347C23.2191 40.3562 23.0054 41.0617 22.7704 41.7618V41.7564ZM28.9676 35.5943C24.7578 35.5943 21.3439 32.1791 21.3439 27.9677C21.3439 23.7562 24.7578 20.3411 28.9676 20.3411C33.1775 20.3411 36.5913 23.7562 36.5913 27.9677C36.5913 32.1791 33.1775 35.5943 28.9676 35.5943ZM34.6039 49.228C34.4383 48.1752 34.3047 47.117 34.1765 46.0587C34.059 45.0005 33.9415 43.937 33.8613 42.8734C33.7758 41.8099 33.7064 40.7463 33.685 39.6721C33.9147 40.7196 34.0964 41.7725 34.2567 42.8253C34.4223 43.8782 34.5558 44.9364 34.6841 45.9946C34.8016 47.0528 34.9191 48.1164 34.9993 49.1799C35.0847 50.2435 35.1542 51.307 35.1756 52.3813C34.9458 51.3337 34.7642 50.2809 34.6039 49.228ZM40.8439 37.2564C41.4637 37.6519 42.0674 38.0741 42.6657 38.5017C43.2587 38.9346 43.8464 39.3728 44.4234 39.8378C44.995 40.2974 45.5613 40.7731 46.0956 41.2861C45.4385 40.9441 44.808 40.5593 44.1883 40.1584C43.5686 39.763 42.9649 39.3407 42.3665 38.9185C41.7735 38.4856 41.1805 38.0474 40.6089 37.5824C40.0372 37.1228 39.4709 36.6471 38.9367 36.1287C39.5938 36.4708 40.2242 36.8556 40.8439 37.2564ZM40.7531 42.9162C41.688 44.0278 42.6123 45.1395 43.5205 46.2725C44.4287 47.4002 45.3156 48.5493 46.1757 49.7197C45.166 48.6775 44.1776 47.614 43.216 46.5291C42.249 45.4495 41.3034 44.3485 40.3631 43.2476C39.4282 42.1359 38.5039 41.0243 37.5957 39.8912C36.6875 38.7635 35.8006 37.6145 34.9405 36.444C35.9556 37.4862 36.9386 38.5498 37.9002 39.6347C38.8672 40.7143 39.8128 41.8152 40.7531 42.9162ZM40.3738 20.6458C40.8813 20.1167 41.4156 19.6089 41.9498 19.1012C42.4894 18.6042 43.0343 18.1125 43.6006 17.6422C44.1669 17.1665 44.7386 16.7069 45.353 16.2847C44.8882 16.8619 44.386 17.407 43.8731 17.9308C43.3656 18.4599 42.8313 18.9676 42.2971 19.4753C41.7575 19.9724 41.2126 20.464 40.6463 20.9344C40.08 21.4047 39.5083 21.8696 38.8939 22.2919C39.3587 21.7147 39.8609 21.1695 40.3738 20.6458ZM38.4131 26.2788C39.6312 25.4879 40.8706 24.7289 42.1208 23.9967C43.3709 23.2592 44.6317 22.5484 45.8979 21.8429C47.1694 21.1481 48.4409 20.4534 49.7285 19.7906C51.0107 19.1172 52.3142 18.4759 53.6285 17.8613C52.4104 18.6523 51.1709 19.4112 49.9208 20.138C48.6707 20.8756 47.4098 21.5864 46.1437 22.2919C44.8722 22.992 43.6006 23.6814 42.3131 24.3495C41.0309 25.0229 39.7274 25.6642 38.4131 26.2788ZM50.8824 29.1114C49.8139 29.0687 48.7508 28.9938 47.693 28.9083C46.6298 28.8175 45.5667 28.7213 44.5089 28.593C43.4511 28.4701 42.3932 28.3258 41.3354 28.1387C42.4039 28.1173 43.4724 28.1494 44.5409 28.1975C45.6041 28.2403 46.6726 28.3151 47.7304 28.3953C48.7935 28.4861 49.8567 28.5823 50.9145 28.7106C51.9723 28.8335 53.0301 28.9778 54.0879 29.1649C53.0194 29.1862 51.9509 29.1542 50.8824 29.1061V29.1114Z" fill="#EB1E32"/>
</g>
<defs>
<clipPath id="clip0_936_386">
<rect width="57.6506" height="55" fill="white"/>
</clipPath>
</defs>
</svg>
