<svg width="57" height="55" viewBox="0 0 57 55" fill="none" xmlns="http://www.w3.org/2000/svg">
<g clip-path="url(#clip0_936_420)">
<path d="M56.5069 23.8362C56.5069 17.2542 51.2327 11.9211 44.7234 11.9211C43.0401 11.9211 41.4442 12.2803 39.9959 12.9214C40.0232 12.5898 40.0396 12.2582 40.0396 11.9211C40.0396 5.33896 34.7655 0.00585938 28.2562 0.00585938C21.7469 0.00585938 16.4727 5.33896 16.4727 11.9211C16.4727 12.2582 16.4891 12.5898 16.5165 12.9214C15.0681 12.2803 13.4722 11.9211 11.7889 11.9211C5.27412 11.9155 0 17.2542 0 23.8362C0 29.4788 3.8859 34.2095 9.09444 35.4364C7.3783 37.5089 6.34534 40.1727 6.34534 43.0851C6.34534 49.6672 11.6195 55.0003 18.1288 55.0003C22.43 55.0003 26.1957 52.6681 28.2507 49.1864C30.3057 52.6681 34.0714 55.0003 38.3726 55.0003C44.8819 55.0003 50.156 49.6672 50.156 43.0851C50.156 40.1727 49.1231 37.5089 47.4069 35.4364C52.6209 34.204 56.5014 29.4788 56.5014 23.8362H56.5069ZM28.2507 36.3594C23.8948 36.3594 20.3641 32.7892 20.3641 28.3846C20.3641 23.9799 23.8948 20.4098 28.2507 20.4098C32.6066 20.4098 36.1373 23.9799 36.1373 28.3846C36.1373 32.7892 32.6066 36.3594 28.2507 36.3594Z" fill="#EB1E32"/>
</g>
<defs>
<clipPath id="clip0_936_420">
<rect width="56.5069" height="55" fill="white"/>
</clipPath>
</defs>
</svg>
