<svg width="140" height="80" viewBox="0 0 140 80" fill="none" xmlns="http://www.w3.org/2000/svg">
<g clip-path="url(#clip0_936_332)">
<path d="M100.473 26.5728C99.4484 26.5728 98.4881 25.9309 98.1318 24.9086C94.0038 12.963 82.7187 4.93827 70.0476 4.93827C57.3766 4.93827 46.1608 12.9185 42.0031 24.7951C41.5527 26.084 40.142 26.7605 38.8502 26.3111C37.5583 25.8617 36.8802 24.4543 37.3306 23.1654C42.1813 9.31358 55.3275 0 70.0526 0C84.7777 0 98.0031 9.36296 102.819 23.2988C103.265 24.5877 102.577 25.9951 101.285 26.4395C101.017 26.5333 100.745 26.5728 100.478 26.5728H100.473Z" fill="#F4B869"/>
<path d="M90.786 30.3753C89.7417 30.3753 88.7666 29.7086 88.43 28.6617C85.8513 20.6765 78.4664 15.3086 70.0521 15.3086C61.6377 15.3086 54.4212 20.563 51.7632 28.3852C51.3227 29.679 49.917 30.3704 48.6252 29.9309C47.3284 29.4914 46.6354 28.0938 47.0759 26.8C50.412 16.9728 59.643 10.3704 70.0521 10.3704C80.4611 10.3704 89.905 17.1111 93.142 27.1506C93.5628 28.4494 92.8451 29.842 91.5433 30.2568C91.2909 30.3358 91.0335 30.3753 90.786 30.3753Z" fill="#F4B869"/>
<path d="M82.4266 37.0369C81.0605 37.0369 79.9518 35.9308 79.9518 34.5678C79.9518 29.1209 75.512 24.6913 70.0526 24.6913C64.5931 24.6913 60.2622 29.032 60.1533 34.3653C60.1286 35.7283 58.9902 36.8197 57.629 36.7851C56.2629 36.7604 55.174 35.6295 55.2037 34.2666C55.3621 26.2616 62.0243 19.748 70.0476 19.748C78.071 19.748 84.8965 26.395 84.8965 34.5629C84.8965 35.9258 83.7878 37.032 82.4217 37.032L82.4266 37.0369Z" fill="#F4B869"/>
<path d="M100.473 69.5358C99.4484 69.5358 98.4881 68.8938 98.1318 67.8716C94.0038 55.9259 82.7187 47.9012 70.0476 47.9012C57.3766 47.9012 46.1608 55.8815 42.0031 67.758C41.5527 69.0469 40.142 69.7234 38.8502 69.2741C37.5583 68.8247 36.8802 67.4173 37.3306 66.1284C42.1813 52.2716 55.3275 42.958 70.0476 42.958C84.7678 42.958 97.9981 52.321 102.814 66.2568C103.26 67.5457 102.572 68.9531 101.28 69.3975C101.012 69.4913 100.74 69.5308 100.473 69.5308V69.5358Z" fill="#F4B869"/>
<path d="M90.786 73.3382C89.7417 73.3382 88.7666 72.6715 88.43 71.6246C85.8513 63.6394 78.4664 58.2715 70.0521 58.2715C61.6377 58.2715 54.4212 63.5258 51.7632 71.3481C51.3227 72.6419 49.917 73.3333 48.6252 72.8937C47.3284 72.4542 46.6354 71.0567 47.0759 69.7629C50.412 59.9357 59.643 53.3333 70.0521 53.3333C80.4611 53.3333 89.905 60.074 93.142 70.1135C93.5628 71.4123 92.8451 72.8049 91.5433 73.2197C91.2909 73.2987 91.0335 73.3382 90.786 73.3382Z" fill="#F4B869"/>
<path d="M82.4266 80.0001C81.0605 80.0001 79.9518 78.8939 79.9518 77.5309C79.9518 72.084 75.512 67.6544 70.0526 67.6544C64.5931 67.6544 60.2622 71.9951 60.1533 77.3285C60.1286 78.6914 58.9902 79.7779 57.629 79.7482C56.2629 79.7235 55.174 78.5927 55.2037 77.2297C55.3621 69.2248 62.0243 62.7112 70.0476 62.7112C78.071 62.7112 84.8965 69.3581 84.8965 77.526C84.8965 78.889 83.7878 79.9951 82.4217 79.9951L82.4266 80.0001Z" fill="#F4B869"/>
<path d="M137.526 47.8075C136.501 47.8075 135.541 47.1655 135.184 46.1433C131.057 34.1976 119.771 26.1729 107.1 26.1729C94.4293 26.1729 83.2135 34.1532 79.0558 46.0297C78.6054 47.3186 77.1948 47.9952 75.9029 47.5458C74.6111 47.0964 73.933 45.689 74.3834 44.4001C79.234 30.5433 92.3802 21.2297 107.1 21.2297C121.821 21.2297 135.051 30.5927 139.867 44.5285C140.312 45.8174 139.624 47.2248 138.332 47.6692C138.065 47.7631 137.793 47.8026 137.526 47.8026V47.8075Z" fill="#F4B869"/>
<path d="M127.839 51.6099C126.794 51.6099 125.819 50.9433 125.483 49.8963C122.904 41.9112 115.519 36.5433 107.105 36.5433C98.6905 36.5433 91.4739 41.7976 88.816 49.6198C88.3754 50.9136 86.9698 51.605 85.6779 51.1655C84.3811 50.726 83.6882 49.3284 84.1287 48.0346C87.4647 38.2074 96.6958 31.605 107.105 31.605C117.514 31.605 126.958 38.3457 130.195 48.3852C130.616 49.684 129.898 51.0766 128.596 51.4914C128.344 51.5704 128.086 51.6099 127.839 51.6099Z" fill="#F4B869"/>
<path d="M119.475 58.2718C118.109 58.2718 117 57.1656 117 55.8027C117 50.3558 112.561 45.9261 107.101 45.9261C101.642 45.9261 97.3109 50.2669 97.202 55.6002C97.1772 56.9632 96.0438 58.0348 94.6777 58.0199C93.3116 57.9953 92.2276 56.8644 92.2524 55.5014C92.4108 47.4965 99.0729 40.9829 107.096 40.9829C115.12 40.9829 121.945 47.6298 121.945 55.7977C121.945 57.1607 120.836 58.2669 119.47 58.2669L119.475 58.2718Z" fill="#F4B869"/>
<path d="M63.2815 47.8075C62.257 47.8075 61.2967 47.1655 60.9404 46.1433C56.8124 34.1976 45.5272 26.1729 32.8562 26.1729C20.1852 26.1729 8.96935 34.1532 4.81167 46.0297C4.36125 47.3186 2.95061 47.9952 1.65876 47.5458C0.36691 47.0964 -0.311188 45.689 0.139227 44.4001C4.98985 30.5433 18.136 21.2297 32.8562 21.2297C47.5764 21.2297 60.8067 30.5927 65.6227 44.5285C66.0682 45.8174 65.3802 47.2248 64.0883 47.6692C63.821 47.7631 63.5488 47.8026 63.2815 47.8026V47.8075Z" fill="#F4B869"/>
<path d="M53.5946 51.6099C52.5503 51.6099 51.5752 50.9433 51.2386 49.8963C48.6599 41.9112 41.275 36.5433 32.8607 36.5433C24.4463 36.5433 17.2298 41.7976 14.5718 49.6198C14.1313 50.9136 12.7256 51.605 11.4338 51.1655C10.137 50.726 9.44402 49.3284 9.88453 48.0346C13.2206 38.2074 22.4516 31.605 32.8607 31.605C43.2697 31.605 52.7136 38.3457 55.9506 48.3852C56.3714 49.684 55.6537 51.0766 54.3519 51.4914C54.0995 51.5704 53.8421 51.6099 53.5946 51.6099Z" fill="#F4B869"/>
<path d="M45.2311 58.2718C43.865 58.2718 42.7563 57.1656 42.7563 55.8027C42.7563 50.3558 38.3165 45.9261 32.8571 45.9261C27.3977 45.9261 23.0667 50.2669 22.9578 55.6002C22.9331 56.9632 21.7897 58.0348 20.4335 58.0199C19.0674 57.9953 17.9835 56.8644 18.0082 55.5014C18.1666 47.4965 24.8288 40.9829 32.8521 40.9829C40.8755 40.9829 47.701 47.6298 47.701 55.7977C47.701 57.1607 46.5923 58.2669 45.2262 58.2669L45.2311 58.2718Z" fill="#F4B869"/>
</g>
<defs>
<clipPath id="clip0_936_332">
<rect width="140" height="80" fill="white"/>
</clipPath>
</defs>
</svg>
