<svg width="63" height="164" viewBox="0 0 63 164" fill="none" xmlns="http://www.w3.org/2000/svg">
<g clip-path="url(#clip0_936_350)">
<path d="M41.9152 44.3508C40.5161 40.5594 36.9167 37.8355 32.6665 37.7159V34.7251C33.7958 34.2637 34.5941 33.1574 34.5941 31.8622C34.5941 30.792 34.0489 29.8498 33.2256 29.2939C34.0016 28.7324 34.5107 27.8207 34.5107 26.7895C34.5107 25.7582 34.0239 24.8882 33.2756 24.3212C34.0239 23.757 34.5107 22.8619 34.5107 21.853C34.5107 20.591 33.7541 19.507 32.6693 19.0261V1.25081C32.6693 0.558693 32.1102 0 31.4175 0C30.7249 0 30.1658 0.558693 30.1658 1.25081V19.0289C29.081 19.5098 28.3244 20.5938 28.3244 21.8557C28.3244 22.8647 28.8112 23.757 29.5594 24.324C28.8112 24.8882 28.3244 25.7805 28.3244 26.7922C28.3244 27.8624 28.8668 28.8046 29.693 29.3606C28.9169 29.922 28.4079 30.8337 28.4079 31.865C28.4079 33.0935 29.1255 34.1525 30.1658 34.6501V37.7187C25.8989 37.8382 22.2912 40.5845 20.9004 44.3952C24.2717 43.5892 27.8404 43.1639 31.501 43.1639C35.1616 43.1639 38.5996 43.5753 41.918 44.3535L41.9152 44.3508Z" fill="#EB1E32"/>
<path d="M43.0108 96.8678H41.3168V95.0611C42.0373 95.0611 42.6242 94.4774 42.6242 93.7547V89.2573C39.0999 90.1496 35.3476 90.6138 31.4979 90.6138C27.6482 90.6138 23.8374 90.1385 20.2881 89.2351V91.0307H20.3715V93.7575C20.3715 94.4774 20.9557 95.0639 21.6789 95.0639V96.8706H19.9849C19.3312 96.8706 18.8027 97.3987 18.8027 98.0519C18.8027 98.7051 19.3312 99.2332 19.9849 99.2332H30.2462V101.465C25.651 102.021 21.9876 105.587 21.2895 110.132C21.206 110.685 21.4675 111.196 21.9014 111.48V162.752C21.9014 163.444 22.4605 164.003 23.1531 164.003C23.8457 164.003 24.4048 163.444 24.4048 162.752V111.705H24.683V162.752C24.683 163.444 25.2421 164.003 25.9347 164.003C26.6273 164.003 27.1864 163.444 27.1864 162.752V111.705H27.4646V162.752C27.4646 163.444 28.0237 164.003 28.7163 164.003C29.4089 164.003 29.968 163.444 29.968 162.752V111.705H30.2462V162.752C30.2462 163.444 30.8053 164.003 31.4979 164.003C32.1905 164.003 32.7496 163.444 32.7496 162.752V111.705H33.0277V162.752C33.0277 163.444 33.5868 164.003 34.2794 164.003C34.9721 164.003 35.5312 163.444 35.5312 162.752V111.705H35.8093V162.752C35.8093 163.444 36.3684 164.003 37.061 164.003C37.7536 164.003 38.3127 163.444 38.3127 162.752V111.705H38.5909V162.752C38.5909 163.444 39.15 164.003 39.8426 164.003C40.5352 164.003 41.0943 163.444 41.0943 162.752V111.48C41.5255 111.196 41.7897 110.685 41.7063 110.132C41.0109 105.587 37.3447 102.018 32.7496 101.465V99.2332H43.0108C43.6645 99.2332 44.193 98.7051 44.193 98.0519C44.193 97.3987 43.6645 96.8706 43.0108 96.8706V96.8678Z" fill="#EB1E32"/>
<path d="M37.6072 88.532C42.8366 78.3838 44.2163 67.7742 41.7017 56.9283C40.5307 51.8806 38.7226 47.8391 37.3179 45.2041C35.8048 45.0068 34.2526 44.8845 32.6699 44.8428V88.9295C34.3528 88.8878 36.0023 88.7516 37.6072 88.5292V88.532Z" fill="#EB1E32"/>
<path d="M51.9047 59.0213C50.2942 53.3648 47.4542 49.1621 46.0495 47.3165C44.2581 46.6633 42.3667 46.1241 40.3945 45.7183C41.6963 48.4144 43.1344 52.0279 44.1413 56.3612C45.9327 64.0884 46.5474 75.4346 40.6449 88.001C42.834 87.5368 44.9229 86.9114 46.8812 86.1415C52.881 77.4998 54.575 68.3912 51.9075 59.0213H51.9047Z" fill="#EB1E32"/>
<path d="M25.1947 88.5043C26.808 88.735 28.4686 88.8767 30.1626 88.924V44.8484C28.5715 44.8956 27.0111 45.0235 25.4868 45.2292C24.0737 47.8865 22.2518 51.9641 21.0891 57.0284C18.6079 67.8298 19.9904 78.3978 25.1919 88.5043H25.1947Z" fill="#EB1E32"/>
<path d="M18.676 56.364C19.6746 52.0529 21.1043 48.4561 22.4006 45.7627C20.4089 46.1824 18.498 46.7383 16.6928 47.411C15.2658 49.3011 12.4926 53.4593 10.9098 59.0184C8.25066 68.3522 9.92239 77.4275 15.8666 86.0386C17.8388 86.828 19.9416 87.4757 22.153 87.9565C16.27 75.4096 16.8875 64.08 18.676 56.3612V56.364Z" fill="#EB1E32"/>
<path d="M8.53389 58.2347C9.56863 54.6435 11.0401 51.6305 12.3836 49.354C4.85664 53.3872 0 59.7385 0 66.8875C0 74.0366 4.55623 79.9876 11.6799 84.0319C6.02768 73.8559 6.69804 64.611 8.53389 58.2347Z" fill="#EB1E32"/>
<path d="M50.3438 49.2095C51.7123 51.4998 53.2255 54.5657 54.2825 58.2347C56.1267 64.6416 56.7998 73.9448 51.0558 84.182C58.3324 80.1405 62.9999 73.8976 62.9999 66.8875C62.9999 59.8775 58.0265 53.2315 50.3438 49.2095Z" fill="#EB1E32"/>
</g>
<defs>
<clipPath id="clip0_936_350">
<rect width="63" height="164" fill="white"/>
</clipPath>
</defs>
</svg>
