<svg width="150" height="50" viewBox="0 0 150 50" fill="none" xmlns="http://www.w3.org/2000/svg">
<path d="M137.668 0.000162499H11.9183C11.4599 0.000162499 11.0071 0.0001625 10.5499 0.00266249C10.1672 0.00516248 9.78758 0.012425 9.40122 0.0185374C8.56186 0.0284147 7.72448 0.102257 6.89635 0.239424C6.06939 0.379577 5.26832 0.643805 4.52026 1.02317C3.77311 1.40575 3.09042 1.90287 2.49695 2.49649C1.90037 3.08845 1.40307 3.77267 1.02418 4.52285C0.644248 5.27153 0.380799 6.07382 0.242937 6.90199C0.103763 7.72912 0.0288729 8.56579 0.0189374 9.40448C0.00733748 9.78773 0.00611248 10.1723 0 10.5556V39.4483C0.00611248 39.8364 0.00733748 40.2124 0.0189374 40.6007C0.0288759 41.4393 0.103766 42.2759 0.242937 43.103C0.380419 43.9317 0.643883 44.7344 1.02418 45.4834C1.4029 46.2311 1.90027 46.9126 2.49695 47.5013C3.08817 48.0975 3.7713 48.595 4.52026 48.9746C5.26832 49.355 6.06929 49.6208 6.89635 49.7631C7.72462 49.8992 8.56192 49.9731 9.40122 49.9841C9.78758 49.9926 10.1672 49.9975 10.5499 49.9975C11.0071 50 11.46 50 11.9183 50H137.668C138.117 50 138.574 50 139.023 49.9975C139.404 49.9975 139.795 49.9926 140.175 49.9841C141.013 49.9737 141.849 49.8998 142.675 49.7631C143.505 49.6198 144.309 49.3541 145.061 48.9746C145.809 48.5948 146.491 48.0973 147.082 47.5013C147.677 46.9103 148.176 46.2293 148.559 45.4834C148.937 44.7339 149.198 43.9312 149.333 43.103C149.472 42.2758 149.55 41.4394 149.565 40.6007C149.57 40.2124 149.57 39.8364 149.57 39.4483C149.58 38.9942 149.58 38.5425 149.58 38.081V11.9203C149.58 11.4625 149.58 11.0084 149.57 10.5556C149.57 10.1723 149.57 9.78773 149.565 9.40443C149.55 8.56566 149.472 7.72918 149.333 6.90194C149.197 6.07424 148.936 5.27202 148.559 4.5228C147.788 3.01915 146.564 1.79519 145.061 1.02306C144.309 0.64462 143.505 0.380462 142.675 0.239312C141.849 0.101541 141.013 0.0276721 140.175 0.0183624C139.795 0.0122625 139.404 0.00493748 139.023 0.00249999C138.574 0 138.117 0.000162499 137.668 0.000162499Z" fill="#A6A6A6"/>
<path d="M10.5565 48.9061C10.1757 48.9061 9.80404 48.9012 9.42618 48.8927C8.64341 48.8825 7.86247 48.8144 7.08976 48.6888C6.36926 48.5648 5.67127 48.3339 5.01885 48.004C4.3724 47.6768 3.78279 47.2477 3.2726 46.7332C2.75503 46.2248 2.32413 45.6352 1.99697 44.9876C1.66621 44.3358 1.4373 43.6372 1.31822 42.9161C1.18963 42.1413 1.12005 41.3578 1.1101 40.5724C1.10217 40.3087 1.0918 39.431 1.0918 39.431V10.5554C1.0918 10.5554 1.10285 9.69113 1.11016 9.43722C1.11969 8.65308 1.18886 7.87079 1.31707 7.09714C1.43637 6.37405 1.66545 5.67342 1.99639 5.01952C2.32235 4.37242 2.75086 3.78232 3.26531 3.27209C3.77919 2.75702 4.37069 2.32575 5.01823 1.99401C5.66916 1.66512 6.36582 1.43591 7.08488 1.31409C7.86012 1.18729 8.64377 1.11875 9.42926 1.10901L10.5572 1.09375H139.017L140.159 1.10962C140.937 1.11887 141.714 1.18681 142.482 1.31286C143.208 1.43622 143.912 1.66702 144.57 1.99767C145.868 2.66623 146.923 3.72395 147.589 5.02258C147.915 5.67196 148.14 6.36687 148.258 7.08372C148.388 7.86372 148.46 8.65215 148.475 9.44272C148.479 9.79672 148.479 10.177 148.479 10.5554C148.489 11.0241 148.489 11.4703 148.489 11.9201V38.0809C148.489 38.535 148.489 38.9781 148.479 39.4249C148.479 39.8314 148.479 40.2037 148.474 40.587C148.46 41.3635 148.388 42.1378 148.261 42.9039C148.144 43.6302 147.916 44.3342 147.586 44.9914C147.256 45.6319 146.828 46.2164 146.316 46.7235C145.805 47.2407 145.215 47.6723 144.567 48.0016C143.91 48.3341 143.207 48.5658 142.482 48.6888C141.709 48.815 140.928 48.8832 140.145 48.8927C139.779 48.9012 139.396 48.9061 139.024 48.9061L137.669 48.9086L10.5565 48.9061Z" fill="black"/>
<path d="M30.9614 25.3751C30.9749 24.3318 31.252 23.3088 31.767 22.4014C32.2821 21.494 33.0183 20.7315 33.9071 20.1851C33.3424 19.3786 32.5975 18.715 31.7315 18.2468C30.8655 17.7786 29.9022 17.5188 28.9182 17.488C26.8191 17.2677 24.7842 18.744 23.7146 18.744C22.6242 18.744 20.9774 17.5099 19.204 17.5464C18.0569 17.5834 16.9389 17.917 15.9591 18.5146C14.9793 19.1121 14.1709 19.9533 13.6128 20.9562C11.1953 25.1417 12.9986 31.293 15.3143 34.6762C16.4729 36.3329 17.827 38.1835 19.5988 38.1179C21.3327 38.0459 21.9802 37.0123 24.0731 37.0123C26.1465 37.0123 26.7541 38.1179 28.5618 38.0761C30.4223 38.0459 31.5945 36.4121 32.7124 34.7397C33.5449 33.5593 34.1855 32.2546 34.6105 30.8741C33.5296 30.4169 32.6072 29.6517 31.9583 28.6738C31.3094 27.696 30.9627 26.5487 30.9614 25.3751Z" fill="white"/>
<path d="M27.5474 15.263C28.5618 14.0453 29.0616 12.4801 28.9406 10.8998C27.3908 11.0626 25.9592 11.8033 24.9311 12.9743C24.4284 13.5464 24.0435 14.2119 23.7981 14.9329C23.5528 15.6538 23.452 16.4161 23.5015 17.176C24.2767 17.184 25.0435 17.016 25.7444 16.6846C26.4452 16.3533 27.0617 15.8672 27.5474 15.263Z" fill="white"/>
<path d="M52.8799 33.9241H46.9631L45.5422 38.1196H43.0361L48.6404 22.5972H51.2441L56.8483 38.1196H54.2995L52.8799 33.9241ZM47.5759 31.988H52.2659L49.9539 25.179H49.8892L47.5759 31.988Z" fill="white"/>
<path d="M68.9514 32.4618C68.9514 35.9786 67.0691 38.2381 64.2285 38.2381C63.509 38.2758 62.7933 38.11 62.1636 37.7599C61.5339 37.4097 61.0155 36.8893 60.6678 36.2581H60.614V41.8636H58.291V26.8026H60.5396V28.6849H60.5823C60.946 28.0569 61.4732 27.5391 62.1077 27.1868C62.7422 26.8345 63.4604 26.6608 64.1858 26.6842C67.0581 26.6842 68.9514 28.9547 68.9514 32.4618ZM66.5637 32.4618C66.5637 30.1706 65.3796 28.6642 63.573 28.6642C61.7981 28.6642 60.6043 30.2023 60.6043 32.4618C60.6043 34.7421 61.7981 36.2692 63.573 36.2692C65.3797 36.2692 66.5637 34.7738 66.5637 32.4618Z" fill="white"/>
<path d="M81.4075 32.4618C81.4075 35.9786 79.5252 38.2381 76.6846 38.2381C75.965 38.2758 75.2494 38.11 74.6197 37.7598C73.9899 37.4097 73.4715 36.8892 73.1238 36.2581H73.0701V41.8636H70.7471V26.8026H72.9956V28.6849H73.0383C73.402 28.0569 73.9292 27.5391 74.5637 27.1868C75.1982 26.8345 75.9164 26.6608 76.6418 26.6842C79.5142 26.6842 81.4075 28.9547 81.4075 32.4618ZM79.0198 32.4618C79.0198 30.1705 77.8357 28.6642 76.0291 28.6642C74.2542 28.6642 73.0603 30.2023 73.0603 32.4618C73.0603 34.7421 74.2542 36.2691 76.0291 36.2691C77.8357 36.2691 79.0198 34.7738 79.0198 32.4618Z" fill="white"/>
<path d="M89.6387 33.7947C89.8108 35.334 91.3062 36.3447 93.3496 36.3447C95.3076 36.3447 96.7163 35.334 96.7163 33.946C96.7163 32.7412 95.8667 32.0198 93.855 31.5254L91.8433 31.0407C88.993 30.3523 87.6697 29.0193 87.6697 26.8562C87.6697 24.178 90.0037 22.3384 93.3179 22.3384C96.5979 22.3384 98.8464 24.178 98.9221 26.8562H96.5771C96.4368 25.3071 95.1562 24.3721 93.2849 24.3721C91.4136 24.3721 90.1331 25.3181 90.1331 26.6951C90.1331 27.7925 90.9509 28.4382 92.9517 28.9326L94.6618 29.3525C97.8466 30.1057 99.1699 31.385 99.1699 33.6554C99.1699 36.5595 96.8567 38.3783 93.1775 38.3783C89.7351 38.3783 87.4109 36.6022 87.2607 33.7946L89.6387 33.7947Z" fill="white"/>
<path d="M104.185 24.1243V26.8025H106.337V28.6421H104.185V34.8811C104.185 35.8503 104.615 36.302 105.561 36.302C105.817 36.2975 106.072 36.2796 106.326 36.2482V38.0768C105.9 38.1563 105.468 38.1923 105.035 38.1842C102.744 38.1842 101.851 37.3236 101.851 35.1288V28.6421H100.205V26.8025H101.851V24.1243H104.185Z" fill="white"/>
<path d="M107.583 32.4616C107.583 28.9009 109.68 26.6633 112.95 26.6633C116.232 26.6633 118.319 28.9008 118.319 32.4616C118.319 36.0322 116.243 38.26 112.95 38.26C109.659 38.26 107.583 36.0322 107.583 32.4616ZM115.952 32.4616C115.952 30.019 114.833 28.5774 112.95 28.5774C111.068 28.5774 109.95 30.03 109.95 32.4616C109.95 34.914 111.068 36.3447 112.95 36.3447C114.833 36.3447 115.952 34.914 115.952 32.4616Z" fill="white"/>
<path d="M120.234 26.8025H122.45V28.7288H122.504C122.654 28.1272 123.006 27.5955 123.502 27.2231C123.998 26.8508 124.606 26.6604 125.226 26.6841C125.494 26.6832 125.761 26.7122 126.022 26.7708V28.9436C125.684 28.8403 125.331 28.7929 124.978 28.8032C124.641 28.7895 124.304 28.8491 123.992 28.9777C123.679 29.1063 123.399 29.3009 123.169 29.5483C122.939 29.7957 122.765 30.0899 122.66 30.4107C122.554 30.7315 122.519 31.0714 122.557 31.407V38.1196H120.234L120.234 26.8025Z" fill="white"/>
<path d="M136.732 34.7956C136.42 36.8501 134.419 38.26 131.859 38.26C128.567 38.26 126.523 36.0542 126.523 32.5154C126.523 28.9656 128.578 26.6633 131.761 26.6633C134.893 26.6633 136.862 28.8142 136.862 32.2456V33.0415H128.868V33.1819C128.832 33.5984 128.884 34.0179 129.021 34.4127C129.159 34.8075 129.379 35.1685 129.667 35.4717C129.955 35.7749 130.304 36.0133 130.691 36.1712C131.079 36.3291 131.495 36.4028 131.913 36.3874C132.462 36.4388 133.013 36.3117 133.484 36.0249C133.954 35.7381 134.32 35.307 134.526 34.7956L136.732 34.7956ZM128.879 31.418H134.537C134.558 31.0435 134.501 30.6687 134.371 30.3172C134.24 29.9657 134.038 29.645 133.777 29.3753C133.516 29.1056 133.203 28.8927 132.856 28.7499C132.509 28.6071 132.136 28.5376 131.761 28.5456C131.383 28.5434 131.008 28.6161 130.658 28.7595C130.308 28.9029 129.99 29.1143 129.722 29.3813C129.454 29.6483 129.242 29.9658 129.097 30.3154C128.952 30.6649 128.878 31.0397 128.879 31.418Z" fill="white"/>
<path d="M45.9226 14.0667H46.9199C47.0916 14.0881 47.2658 14.0737 47.4317 14.0244C47.5975 13.9751 47.7513 13.892 47.8834 13.7803C48.0156 13.6686 48.1231 13.5307 48.1993 13.3754C48.2755 13.22 48.3187 13.0506 48.3261 12.8778C48.3261 12.1899 47.8086 11.7456 46.9309 11.7456C46.755 11.721 46.576 11.7319 46.4044 11.7777C46.2328 11.8234 46.0721 11.9031 45.9318 12.012C45.7915 12.1209 45.6744 12.2568 45.5875 12.4117C45.5006 12.5666 45.4456 12.7373 45.4258 12.9138H44.3308C44.3496 12.5934 44.4342 12.2803 44.5793 11.9941C44.7244 11.7078 44.9268 11.4545 45.1741 11.2499C45.4213 11.0452 45.708 10.8937 46.0163 10.8047C46.3247 10.7156 46.648 10.691 46.9663 10.7324C48.4348 10.7324 49.4688 11.5545 49.4688 12.738C49.4722 13.1345 49.3396 13.5201 49.093 13.8306C48.8464 14.1411 48.5007 14.3575 48.1138 14.4439V14.5318C48.5725 14.5522 49.0045 14.7533 49.3154 15.0913C49.6263 15.4292 49.7907 15.8766 49.7727 16.3354C49.7387 16.6653 49.6393 16.985 49.4802 17.276C49.321 17.5669 49.1054 17.8231 48.846 18.0296C48.5865 18.2362 48.2885 18.3888 47.9693 18.4786C47.6501 18.5685 47.3161 18.5937 46.9871 18.5528C46.6573 18.5978 46.3218 18.5759 46.0007 18.4884C45.6796 18.401 45.3794 18.2498 45.118 18.0438C44.8565 17.8378 44.6392 17.5814 44.479 17.2896C44.3188 16.9979 44.219 16.6769 44.1855 16.3458H45.2976C45.3647 17.0593 46.0203 17.5195 46.9871 17.5195C47.9538 17.5195 48.5849 17.0026 48.5849 16.2738C48.5849 15.5347 47.9905 15.0793 46.9517 15.0793H45.9226V14.0667Z" fill="white"/>
<path d="M51.0361 16.7804C51.0361 15.7672 51.7917 15.1831 53.1296 15.1001L54.6543 15.0122V14.5264C54.6543 13.9319 54.2624 13.5962 53.5019 13.5962C52.8818 13.5962 52.4534 13.8238 52.3289 14.2218H51.2534C51.3669 13.255 52.2776 12.6349 53.5544 12.6349C54.9656 12.6349 55.7615 13.3374 55.7615 14.5264V18.3722H54.6909V17.5812H54.603C54.4246 17.8649 54.1741 18.0962 53.8771 18.2515C53.5801 18.4067 53.2472 18.4804 52.9124 18.4649C52.6761 18.4895 52.4372 18.4643 52.2113 18.3909C51.9853 18.3175 51.7773 18.1976 51.6005 18.0389C51.4237 17.8802 51.2822 17.6862 51.185 17.4694C51.0878 17.2527 51.0371 17.0179 51.0361 16.7804ZM54.6543 16.2994V15.8288L53.2797 15.9167C52.5046 15.9686 52.153 16.2323 52.153 16.7285C52.153 17.2351 52.5925 17.5299 53.1968 17.5299C53.3738 17.5478 53.5527 17.5299 53.7227 17.4773C53.8927 17.4247 54.0504 17.3384 54.1864 17.2236C54.3224 17.1088 54.4339 16.9679 54.5143 16.8091C54.5946 16.6503 54.6423 16.477 54.6543 16.2994Z" fill="white"/>
<path d="M58.7095 13.6786V18.3722H57.5986V12.7435H61.3047V13.6785L58.7095 13.6786Z" fill="white"/>
<path d="M68.0366 15.5554C68.0366 17.3437 67.1321 18.4649 65.7112 18.4649C65.3624 18.4887 65.014 18.4124 64.7072 18.2449C64.4003 18.0774 64.1477 17.8257 63.979 17.5195H63.8911V20.2435H62.7803V12.7435H63.8496V13.6737H63.9326C64.1043 13.3567 64.3602 13.0934 64.6721 12.9128C64.9841 12.7322 65.3399 12.6413 65.7002 12.6501C67.1321 12.6501 68.0366 13.7664 68.0366 15.5554ZM66.894 15.5554C66.894 14.3664 66.3313 13.648 65.3901 13.648C64.4551 13.648 63.8704 14.3816 63.8704 15.5602C63.8704 16.7333 64.4551 17.4676 65.3853 17.4676C66.3313 17.4676 66.894 16.7492 66.894 15.5554Z" fill="white"/>
<path d="M69.5162 20.3882V19.4317C69.6364 19.447 69.7575 19.454 69.8787 19.4525C70.1153 19.47 70.3501 19.3995 70.538 19.2546C70.7259 19.1096 70.8536 18.9003 70.8967 18.667L70.9797 18.3929L68.9424 12.7435H70.1521L71.5633 17.2143H71.6512L73.0574 12.7435H74.2354L72.137 18.6047C71.6561 19.9743 71.1238 20.4138 69.9764 20.4138C69.8836 20.4138 69.6199 20.4034 69.5162 20.3882Z" fill="white"/>
<path d="M75.1006 16.7747H76.2065C76.3152 17.2709 76.7803 17.5296 77.4309 17.5296C78.1707 17.5296 78.6247 17.2037 78.6247 16.6972C78.6247 16.1546 78.217 15.8958 77.4309 15.8958H76.5886V15.0327H77.4163C78.0876 15.0327 78.4294 14.7746 78.4294 14.304C78.4294 13.8908 78.0986 13.5752 77.4163 13.5752C76.7949 13.5752 76.3408 13.8389 76.2688 14.2832H75.1982C75.2783 13.7727 75.5555 13.3139 75.9703 13.0056C76.3851 12.6973 76.9043 12.5641 77.4163 12.6347C78.7541 12.6347 79.5195 13.2395 79.5195 14.1905C79.5258 14.4553 79.4409 14.7142 79.2792 14.9239C79.1174 15.1337 78.8885 15.2816 78.6308 15.3428V15.4307C78.9377 15.4703 79.2193 15.6211 79.4222 15.8546C79.6252 16.088 79.7354 16.3878 79.7319 16.6972C79.7319 17.7672 78.8213 18.4751 77.4309 18.4751C76.2017 18.4751 75.2031 17.9117 75.1006 16.7747Z" fill="white"/>
<path d="M81.3301 18.3722V12.7435H82.4311V16.615H82.519L85.113 12.7435H86.2141V18.3722H85.113V14.48H85.03L82.4311 18.3722L81.3301 18.3722Z" fill="white"/>
<path d="M92.2811 13.6785H90.5086V18.3721H89.3965V13.6785H87.624V12.7435H92.2811V13.6785Z" fill="white"/>
<path d="M98.2645 16.8521C98.1131 17.3665 97.7858 17.8114 97.3398 18.1091C96.8938 18.4067 96.3574 18.5382 95.8243 18.4805C95.4535 18.4903 95.0849 18.4193 94.7443 18.2724C94.4037 18.1255 94.0991 17.9062 93.8517 17.6298C93.6043 17.3534 93.4201 17.0264 93.3117 16.6716C93.2033 16.3169 93.1735 15.9428 93.2242 15.5753C93.1748 15.2067 93.2052 14.8318 93.3133 14.4759C93.4214 14.1201 93.6047 13.7916 93.8508 13.5128C94.0969 13.2339 94.4 13.0112 94.7397 12.8597C95.0793 12.7082 95.4475 12.6314 95.8194 12.6346C97.3856 12.6346 98.3316 13.7046 98.3316 15.4721V15.8597H94.357V15.922C94.3394 16.1286 94.3652 16.3366 94.4328 16.5326C94.5004 16.7286 94.6082 16.9084 94.7494 17.0602C94.8906 17.2121 95.062 17.3327 95.2526 17.4144C95.4431 17.4961 95.6487 17.537 95.856 17.5345C96.1216 17.5662 96.3906 17.5183 96.6288 17.3968C96.867 17.2753 97.0637 17.0857 97.1939 16.8521L98.2645 16.8521ZM94.357 15.0382H97.1988C97.2128 14.8494 97.1872 14.6597 97.1236 14.4814C97.06 14.303 96.9598 14.14 96.8294 14.0027C96.6991 13.8654 96.5414 13.7568 96.3667 13.6841C96.1919 13.6113 96.0038 13.5759 95.8145 13.5801C95.6223 13.5774 95.4316 13.6134 95.2535 13.6857C95.0755 13.7581 94.9137 13.8654 94.7779 14.0013C94.642 14.1373 94.5347 14.2991 94.4625 14.4772C94.3902 14.6552 94.3543 14.846 94.357 15.0382Z" fill="white"/>
<path d="M102.975 12.7435H105.512C106.614 12.7435 107.259 13.3014 107.259 14.1748C107.261 14.4519 107.167 14.7212 106.994 14.9377C106.821 15.1541 106.579 15.3045 106.308 15.3637V15.4516C106.637 15.4724 106.945 15.6186 107.169 15.8601C107.393 16.1016 107.516 16.4199 107.512 16.7492C107.512 17.7313 106.773 18.3721 105.538 18.3721H102.975V12.7435ZM104.076 13.5962V15.0537H105.177C105.848 15.0537 106.169 14.7955 106.169 14.3194C106.169 13.8806 105.89 13.5962 105.3 13.5962L104.076 13.5962ZM104.076 15.8704V17.5195H105.393C106.05 17.5195 106.401 17.2296 106.401 16.6974C106.401 16.134 106.003 15.8704 105.254 15.8704L104.076 15.8704Z" fill="white"/>
</svg>
