<svg width="170" height="50" viewBox="0 0 170 50" fill="none" xmlns="http://www.w3.org/2000/svg">
<mask id="mask0_99_1676" style="mask-type:luminance" maskUnits="userSpaceOnUse" x="0" y="0" width="170" height="50">
<path d="M169.328 0H0.580078V50H169.328V0Z" fill="white"/>
</mask>
<g mask="url(#mask0_99_1676)">
<path d="M163.077 50H6.83106C3.39341 50 0.580078 47.1867 0.580078 43.749V6.25098C0.580078 2.81333 3.39341 0 6.83106 0H163.079C166.517 0 169.33 2.81333 169.33 6.25098V43.7516C169.33 47.1893 166.517 50.0026 163.079 50.0026" fill="black"/>
<path d="M163.077 1.00047C165.971 1.00047 168.327 3.35667 168.327 6.25098V43.7516C168.327 46.6459 165.971 49.0021 163.077 49.0021H6.83106C3.93675 49.0021 1.58055 46.6459 1.58055 43.7516V6.25098C1.58055 3.35406 3.93413 1.00047 6.83106 1.00047H163.079H163.077ZM163.077 0H6.83106C3.39341 0 0.580078 2.81333 0.580078 6.25098V43.7516C0.580078 47.1893 3.39341 50.0026 6.83106 50.0026H163.079C166.517 50.0026 169.33 47.1893 169.33 43.7516V6.25098C169.328 2.81333 166.514 0 163.077 0Z" fill="#A6A5A5"/>
<path d="M85.748 27.1877C82.8092 27.1877 80.4112 29.4237 80.4112 32.5061C80.4112 35.5885 82.8066 37.8219 85.748 37.8219C88.6893 37.8219 91.0847 35.565 91.0847 32.5061C91.0847 29.4472 88.6893 27.1877 85.748 27.1877ZM85.748 35.7269C84.1362 35.7269 82.7465 34.3973 82.7465 32.5061C82.7465 30.6149 84.1362 29.2826 85.748 29.2826C87.3597 29.2826 88.7467 30.5914 88.7467 32.5061C88.7467 34.4208 87.3571 35.7269 85.748 35.7269ZM74.1054 27.1877C71.1667 27.1877 68.7687 29.4237 68.7687 32.5061C68.7687 35.5885 71.1641 37.8219 74.1054 37.8219C77.0467 37.8219 79.4421 35.565 79.4421 32.5061C79.4421 29.4472 77.0441 27.1877 74.1054 27.1877ZM74.1054 35.7269C72.4963 35.7269 71.1066 34.3973 71.1066 32.5061C71.1066 30.6149 72.4963 29.2826 74.1054 29.2826C75.7145 29.2826 77.1068 30.5914 77.1068 32.5061C77.1068 34.4208 75.7171 35.7269 74.1054 35.7269ZM60.2582 28.8203V31.0746H65.655C65.493 32.3441 65.0724 33.2689 64.4272 33.9141C63.641 34.7003 62.4132 35.565 60.2582 35.565C56.9355 35.565 54.3363 32.8875 54.3363 29.5648C54.3363 26.2421 56.9328 23.5646 60.2582 23.5646C62.0501 23.5646 63.3588 24.2672 64.3254 25.1737L65.9162 23.5828C64.5657 22.295 62.7737 21.3076 60.2582 21.3076C55.7077 21.3076 51.8809 25.0143 51.8809 29.5648C51.8809 34.1152 55.7077 37.8219 60.2582 37.8219C62.7136 37.8219 64.5657 37.0147 66.0181 35.5049C67.507 34.0159 67.972 31.921 67.972 30.2283C67.972 29.7058 67.9328 29.2226 67.8518 28.8203H60.2608H60.2582ZM116.893 30.5705C116.449 29.3819 115.101 27.1877 112.343 27.1877C109.584 27.1877 107.33 29.3427 107.33 32.5061C107.33 35.4866 109.584 37.8219 112.604 37.8219C115.041 37.8219 116.449 36.333 117.034 35.4657L115.221 34.2563C114.615 35.1418 113.792 35.7269 112.604 35.7269C111.415 35.7269 110.569 35.1836 110.026 34.1178L117.133 31.1765L116.893 30.5731V30.5705ZM109.644 32.3441C109.584 30.2883 111.235 29.2435 112.424 29.2435C113.351 29.2435 114.137 29.7058 114.398 30.3719L109.647 32.3467L109.644 32.3441ZM103.864 37.498H106.199V21.8719H103.864V37.498ZM100.037 28.3762H99.9557C99.4332 27.7519 98.4249 27.1877 97.158 27.1877C94.4988 27.1877 92.0642 29.523 92.0642 32.5244C92.0642 35.5258 94.5014 37.8193 97.158 37.8193C98.4275 37.8193 99.4332 37.2551 99.9557 36.6098H100.037V37.3752C100.037 39.4101 98.95 40.4968 97.1972 40.4968C95.7683 40.4968 94.8802 39.4702 94.5197 38.6056L92.4848 39.4519C93.0673 40.8625 94.619 42.5944 97.1972 42.5944C99.9348 42.5944 102.252 40.9827 102.252 37.0565V27.5116H100.037V28.3788V28.3762ZM97.3591 35.7269C95.7474 35.7269 94.3995 34.379 94.3995 32.527C94.3995 30.6749 95.7474 29.2853 97.3591 29.2853C98.9709 29.2853 100.199 30.654 100.199 32.527C100.199 34.3999 98.95 35.7269 97.3591 35.7269ZM127.836 21.8745H122.248V37.5006H124.578V31.5814H127.836C130.422 31.5814 132.961 29.7084 132.961 26.7279C132.961 23.7474 130.419 21.8745 127.836 21.8745ZM127.896 29.4054H124.578V24.0478H127.896C129.641 24.0478 130.631 25.4924 130.631 26.7253C130.631 27.9583 129.641 29.4028 127.896 29.4028M142.31 27.1589C140.622 27.1589 138.872 27.9034 138.149 29.5491L140.22 30.4137C140.661 29.5491 141.487 29.267 142.352 29.267C143.558 29.267 144.784 29.9906 144.804 31.2758V31.4377C144.381 31.1974 143.477 30.8343 142.372 30.8343C140.142 30.8343 137.869 32.0594 137.869 34.3529C137.869 36.4453 139.7 37.7906 141.748 37.7906C143.318 37.7906 144.18 37.0879 144.723 36.2624H144.804V37.4693H147.056V31.4769C147.056 28.7027 144.987 27.1563 142.312 27.1563M142.03 35.7191C141.265 35.7191 140.199 35.3377 140.199 34.3921C140.199 33.1853 141.526 32.7255 142.673 32.7255C143.697 32.7255 144.18 32.9476 144.804 33.248C144.624 34.6951 143.378 35.7217 142.03 35.7217M155.258 27.4985L152.584 34.2745H152.503L149.728 27.4985H147.215L151.377 36.9677L149.005 42.2339H151.437L157.85 27.4985H155.256H155.258ZM134.251 37.4954H136.584V21.8692H134.251V37.4954Z" fill="white"/>
<path d="M26.4771 24.2804L13.168 38.4046C13.168 38.4046 13.168 38.4098 13.168 38.4124C13.5755 39.9458 14.9756 41.0742 16.6396 41.0742C17.3057 41.0742 17.9274 40.894 18.4629 40.5805L18.5047 40.5544L33.4856 31.9107L26.4745 24.2778L26.4771 24.2804Z" fill="#EA4435"/>
<path d="M39.9411 21.8746L39.928 21.8668L33.4602 18.1183L26.1748 24.6018L33.4863 31.9107L39.9176 28.1987C41.046 27.5875 41.8114 26.3989 41.8114 25.0301C41.8114 23.6614 41.0565 22.4859 39.9385 21.8746" fill="#F9BC15"/>
<path d="M13.1687 11.5956C13.0877 11.8908 13.0459 12.2016 13.0459 12.5203V37.4798C13.0459 37.8011 13.0877 38.1093 13.1687 38.4045L26.9323 24.6409L13.1661 11.5956H13.1687Z" fill="#547DBF"/>
<path d="M26.5737 25.0013L33.4621 18.1156L18.4995 9.44051C17.9561 9.11398 17.3214 8.9259 16.6422 8.9259C14.9808 8.9259 13.5781 10.057 13.168 11.593C13.168 11.593 13.168 11.593 13.168 11.5956L26.5764 25.0013H26.5737Z" fill="#33A851"/>
</g>
<path d="M54.4147 16.0574C53.7956 15.7022 53.3071 15.2137 52.9518 14.5894C52.5966 13.965 52.4189 13.278 52.4189 12.5231C52.4189 11.7682 52.5966 11.0812 52.9518 10.4569C53.3071 9.83256 53.7956 9.34408 54.4147 8.98882C55.0338 8.63356 55.7208 8.45593 56.4757 8.45593C57.6433 8.45593 58.6046 8.87911 59.3569 9.72807L58.521 10.5431C58.252 10.2244 57.9542 9.98407 57.6251 9.82472C57.2959 9.66538 56.9171 9.5844 56.4887 9.5844C55.9585 9.5844 55.4778 9.70456 55.0416 9.9475C54.608 10.1904 54.2632 10.5352 54.0072 10.9819C53.7538 11.4286 53.6258 11.9406 53.6258 12.5205C53.6258 13.1004 53.7538 13.6124 54.0072 14.0591C54.2605 14.5058 54.6054 14.8506 55.0416 15.0909C55.4752 15.3338 55.9585 15.4566 56.4887 15.4566C57.3743 15.4566 58.1161 15.0909 58.7169 14.3569L59.5764 15.1823C59.2002 15.6238 58.7457 15.9686 58.218 16.2168C57.6877 16.4623 57.1078 16.5877 56.4783 16.5877C55.7234 16.5877 55.0364 16.4101 54.4173 16.0548L54.4147 16.0574Z" fill="white"/>
<path d="M60.9111 8.63066H62.1075V12.4053H62.1728L65.2735 8.63066H66.7755V8.69597L63.492 12.5881L66.9505 16.3497V16.415H65.3832L62.1754 12.8467H62.1101V16.415H60.9137V8.62805L60.9111 8.63066Z" fill="white"/>
<path d="M70.6327 8.63086H71.9911L74.9376 16.4178H73.6211L72.9027 14.4169H69.7263L69.0079 16.4178H67.6914L70.6275 8.63086H70.6327ZM72.5135 13.3067L71.6436 10.9191L71.3511 10.0284H71.2858L70.9932 10.9191L70.1234 13.3067H72.5161H72.5135Z" fill="white"/>
<path d="M79.4419 12.9487C78.956 13.3771 78.3578 13.5913 77.6473 13.5913C77.1771 13.5913 76.7514 13.4947 76.37 13.304C75.9886 13.1133 75.6908 12.8338 75.474 12.4733C75.2572 12.1102 75.1475 11.6844 75.1475 11.1907V8.63599H76.3543V10.9843C76.3543 11.4545 76.4927 11.8203 76.767 12.0762C77.0413 12.3349 77.4122 12.4629 77.8772 12.4629C78.5067 12.4629 79.0292 12.2173 79.4445 11.7236V8.63599H80.6305V16.4229H79.4445V12.9539L79.4419 12.9487Z" fill="white"/>
<path d="M84.6171 8.63086H85.9755L88.922 16.4178H87.6055L86.8871 14.4169H83.7107L82.9923 16.4178H81.6758L84.6119 8.63086H84.6171ZM86.4979 13.3067L85.628 10.9191L85.3355 10.0284H85.2702L84.9776 10.9191L84.1077 13.3067H86.5005H86.4979Z" fill="white"/>
<path d="M90.9452 9.76194H88.7588V8.63086H94.3149V9.76194H92.139V16.4178H90.9426V9.76194H90.9452Z" fill="white"/>
<path d="M95.5557 8.63086H96.7521V11.405H98.4056C98.8914 11.405 99.3407 11.5043 99.7535 11.7054C100.166 11.9039 100.495 12.1939 100.743 12.5753C100.989 12.9567 101.112 13.4007 101.112 13.9075C101.112 14.4143 100.989 14.8583 100.743 15.2397C100.498 15.6211 100.166 15.911 99.7535 16.1148C99.3407 16.3185 98.8914 16.4204 98.4056 16.4204H95.5557V8.63347V8.63086ZM98.4918 15.2972C98.7739 15.2972 99.0247 15.2319 99.2415 15.1013C99.4583 14.9707 99.6255 14.7982 99.7404 14.584C99.8553 14.3698 99.9154 14.1426 99.9154 13.9049C99.9154 13.6672 99.8579 13.4399 99.7404 13.2257C99.6255 13.0115 99.4583 12.8391 99.2415 12.7033C99.0247 12.57 98.7739 12.5021 98.4918 12.5021H96.7521V15.2972H98.4918Z" fill="white"/>
<path d="M104.965 8.63086H106.15V12.9384L106.085 14.4404H106.15L109.64 8.63347H110.999V16.4204H109.813V12.0058L109.878 10.5038H109.813L106.268 16.4204H104.962V8.63347L104.965 8.63086Z" fill="white"/>
<path d="M113.342 16.0913C112.853 15.7569 112.516 15.2658 112.336 14.6128L113.433 14.1765C113.527 14.5814 113.71 14.9027 113.982 15.1326C114.253 15.3651 114.575 15.48 114.943 15.48C115.343 15.48 115.682 15.3546 115.964 15.1039C116.246 14.8531 116.387 14.5449 116.387 14.1739C116.387 13.9336 116.32 13.7168 116.181 13.5157C116.043 13.3171 115.855 13.1578 115.617 13.0428C115.377 12.9279 115.118 12.8678 114.833 12.8678H114.191V11.823H114.768C115.16 11.823 115.486 11.7159 115.747 11.5017C116.009 11.2875 116.139 11.0001 116.139 10.637C116.139 10.3183 116.019 10.0545 115.776 9.84291C115.533 9.63393 115.23 9.52683 114.867 9.52683C114.541 9.52683 114.266 9.6261 114.042 9.8194C113.817 10.0153 113.66 10.2478 113.574 10.5142L112.519 10.078C112.67 9.64961 112.947 9.27084 113.352 8.9417C113.754 8.61257 114.264 8.448 114.88 8.448C115.35 8.448 115.771 8.53943 116.137 8.72489C116.502 8.91036 116.79 9.16374 116.996 9.48504C117.202 9.80895 117.307 10.172 117.307 10.5769C117.307 11.3319 116.978 11.8883 116.317 12.2514V12.3167C116.688 12.4838 116.988 12.7268 117.221 13.0455C117.453 13.3641 117.568 13.7534 117.568 14.2105C117.568 14.6676 117.453 15.0542 117.226 15.4173C116.999 15.7804 116.683 16.0652 116.286 16.2715C115.886 16.4779 115.442 16.5824 114.948 16.5824C114.368 16.5824 113.833 16.4152 113.344 16.0808L113.342 16.0913Z" fill="white"/>
</svg>
