<svg width="157" height="34" viewBox="0 0 157 34" fill="none" xmlns="http://www.w3.org/2000/svg">
<g clip-path="url(#clip0_354_147)">
<path d="M28.2452 3.63184H31.5142L35.8488 16.551H32.634L31.8574 13.8407H27.9021L27.1435 16.551H23.9468L28.2452 3.63184ZM31.1349 11.3291L30.4306 8.81757C30.1958 8.00448 29.9068 6.59511 29.9068 6.59511H29.8707C29.8707 6.59511 29.5817 8.00448 29.3469 8.81757L28.6245 11.3291H31.1349Z" fill="#404041"/>
<path d="M37.3115 3.63184H40.418V13.8588H44.7345L45.6195 16.5691H37.3115V3.63184Z" fill="#404041"/>
<path d="M50.2432 3.63184H47.1367V16.551H50.2432V3.63184Z" fill="#404041"/>
<path d="M51.8506 3.63184H56.5283C59.0749 3.63184 60.8448 4.78824 60.8448 7.0107C60.8448 8.09482 60.321 9.19702 59.3638 9.75715V9.79329C60.8267 10.245 61.3505 11.564 61.3505 12.7024C61.3505 15.5211 59.0387 16.551 56.5102 16.551H51.8145L51.8506 3.63184ZM56.5644 8.63688C57.341 8.63688 57.6842 8.05868 57.6842 7.44435C57.6842 6.83001 57.341 6.34215 56.5102 6.34215H54.957V8.63688H56.5644ZM56.8353 13.8588C57.7384 13.8588 58.1899 13.2264 58.1899 12.5036C58.1899 11.7809 57.7564 11.1846 56.8534 11.1846H54.957V13.8588H56.8353Z" fill="#404041"/>
<path d="M62.2896 3.63184H66.7325C68.0329 3.63184 68.665 3.72218 69.2068 3.939C70.6517 4.49914 71.5547 5.81816 71.5547 7.69731C71.5547 9.07053 70.9226 10.5702 69.6583 11.2207V11.2569C69.8389 11.5098 70.0015 11.7628 70.146 12.0338L72.6203 16.551H69.1526L66.895 12.1964H65.4321V16.551H62.3257L62.2896 3.63184ZM66.7686 9.48612C67.7619 9.48612 68.3941 8.92598 68.3941 7.89607C68.3941 7.24559 68.2315 6.75773 67.6355 6.52284C67.2562 6.37829 66.8589 6.32408 66.4616 6.34215H65.4141V9.48612H66.7686Z" fill="#404041"/>
<path d="M76.0519 3.63184H79.3209L83.6374 16.551H80.4406L79.664 13.8407H75.6906L74.9321 16.551H71.7354L76.0519 3.63184ZM78.9416 11.3291L78.2372 8.81757C78.0024 8.00448 77.7134 6.59511 77.7134 6.59511H77.6773C77.6773 6.59511 77.3884 8.00448 77.1716 8.81757L76.4492 11.3291H78.9416Z" fill="#404041"/>
<path d="M88.4592 14.0214C89.3081 14.8706 90.4459 15.3585 91.6379 15.3946C93.0828 15.3946 94.1123 14.5634 94.1123 13.2625C94.1123 10.1185 87.9897 10.8593 87.9897 6.99262C87.9897 4.95085 89.6874 3.6499 91.8547 3.6499C93.0105 3.6499 94.2748 4.06548 95.1056 4.86051L94.5096 5.89043C93.7691 5.22188 92.8119 4.84244 91.8005 4.82437C90.4098 4.82437 89.2359 5.60133 89.2359 6.92035C89.2359 9.91976 95.3584 9.12474 95.3584 13.136C95.3584 15.0513 93.9678 16.5691 91.6018 16.5691C90.157 16.5691 88.7663 15.9909 87.7368 14.961L88.4592 14.0214Z" fill="#404041"/>
<path d="M102.438 3.63184C103.991 3.63184 105.707 4.11969 106.881 5.23996L106.231 6.14339C105.165 5.25802 103.847 4.78824 102.474 4.77017C99.476 4.77017 97.5255 7.04683 97.5255 9.97397C97.5255 12.9011 99.4941 15.3765 102.528 15.3765C104.009 15.3585 105.436 14.7622 106.502 13.7142L107.206 14.5815C105.978 15.8463 104.262 16.551 102.492 16.5149C98.7536 16.5149 96.2612 13.6239 96.2612 9.97397C96.2612 6.32408 98.8439 3.63184 102.438 3.63184Z" fill="#404041"/>
<path d="M108.669 3.84863H109.879V9.54029H116.995V3.84863H118.223V16.3522H116.995V10.6425H109.879V16.3522H108.669V3.84863Z" fill="#404041"/>
<path d="M126.658 3.63184C130.27 3.63184 132.925 6.41443 132.925 9.99204C132.925 13.5697 130.252 16.551 126.658 16.551C123.064 16.551 120.391 13.6781 120.391 9.99204C120.391 6.43249 123.082 3.63184 126.658 3.63184ZM126.658 15.4127C129.547 15.4127 131.661 13.0637 131.661 10.0101C131.661 6.95649 129.547 4.80631 126.658 4.80631C123.768 4.80631 121.655 7.0649 121.655 10.0101C121.655 12.9553 123.804 15.4127 126.658 15.4127Z" fill="#404041"/>
<path d="M141.106 3.63184C144.719 3.63184 147.373 6.41443 147.373 9.99204C147.373 13.5697 144.7 16.551 141.106 16.551C137.512 16.551 134.839 13.6781 134.839 9.99204C134.839 6.30601 137.494 3.63184 141.106 3.63184ZM141.106 15.4127C143.996 15.4127 146.109 13.0637 146.109 10.0101C146.109 6.95649 143.996 4.80631 141.106 4.80631C138.217 4.80631 136.104 7.04683 136.104 9.99204C136.104 12.9373 138.235 15.4127 141.106 15.4127Z" fill="#404041"/>
<path d="M150.101 3.84863H151.311V15.25H157V16.3522H150.101V3.84863Z" fill="#404041"/>
<path d="M10.7984 18.9723C10.7984 19.7312 10.1663 20.2009 9.40777 20.2009C8.64922 20.2009 8.01709 19.7492 8.01709 18.9723V13.8046C8.01709 13.0276 8.64922 12.594 9.40777 12.594C10.1663 12.594 10.7984 13.0457 10.7984 13.8046V18.9723Z" fill="#EB008B"/>
<path d="M13.4535 8.61885C12.8033 8.88988 12.1892 8.5285 11.9003 7.85996C11.6293 7.19141 11.7919 6.5048 12.4601 6.23377L17.3365 4.21007C17.9867 3.93904 18.6008 4.31848 18.8717 4.96896C19.1426 5.61943 18.9981 6.32411 18.3299 6.59515L13.4535 8.61885Z" fill="#8BC53F"/>
<path d="M5.70536 9.21511C6.33749 9.59456 7.0238 9.30546 7.38501 8.67305C7.74623 8.04064 7.69204 7.29982 7.05992 6.93845L2.36413 4.17393C1.73201 3.79448 1.06376 4.10165 0.684485 4.73406C0.30521 5.36647 0.359392 6.08922 1.00958 6.46866L5.70536 9.21511Z" fill="#10357E"/>
<path d="M9.26308 5.05933L2.74316 7.40827V12.847L9.17278 15.214V9.73914L15.494 7.46247L9.26308 5.05933Z" fill="#FFE450"/>
<path d="M1.6776 14.2924C1.00935 14.5634 0.395289 14.2021 0.124378 13.5335C-0.146532 12.865 0.016014 12.1784 0.68426 11.9073L5.09108 10.0643C5.75932 9.79328 6.35533 10.1727 6.62624 10.8232C6.89715 11.4737 6.7346 12.1784 6.08441 12.4494L1.6776 14.2924Z" fill="#0082C9"/>
<path d="M15.4941 12.9192L9.17285 15.2139V9.73907L15.4941 7.4624V12.9192Z" fill="#F6921E"/>
<path d="M17.1739 15.4126C17.806 15.792 18.5104 15.5029 18.8896 14.8525C19.2689 14.202 19.1967 13.4612 18.5465 13.0817L14.2661 10.5521C13.6159 10.1727 12.9477 10.4798 12.5684 11.1122C12.1891 11.7627 12.2613 12.4855 12.8935 12.8649L17.1739 15.4126Z" fill="#F6921E"/>
<path d="M10.7984 6.32407C10.7984 7.10102 10.1663 7.55274 9.40776 7.55274C8.64921 7.55274 7.99902 7.10102 7.99902 6.32407V1.21061C7.99902 0.451719 8.63115 0 9.3897 0C10.1482 0 10.7804 0.451719 10.7804 1.21061L10.7984 6.32407Z" fill="#EC1C24"/>
<path d="M0.850439 31.792V23.793H2.25376V29.3455L6.3409 23.793H7.77853V31.792H6.37521V26.0841L2.20319 31.792H0.848633H0.850439Z" fill="#404041"/>
<path d="M9.44727 31.7921V25.9993H10.7061V28.2777H13.3682V25.9993H14.6271V31.7921H13.3682V29.3817H10.7061V31.7921H9.44727Z" fill="#404041"/>
<path d="M15.897 28.8902C15.897 27.2351 17.0366 25.8564 18.8698 25.8564C20.7029 25.8564 21.8552 27.2351 21.8552 28.8902C21.8552 30.5453 20.7282 31.9366 18.8698 31.9366C17.0113 31.9366 15.897 30.5579 15.897 28.8902ZM20.5476 28.8902C20.5476 27.8711 19.948 26.9713 18.8698 26.9713C17.7915 26.9713 17.2028 27.8711 17.2028 28.8902C17.2028 29.9093 17.8024 30.8217 18.8698 30.8217C19.9372 30.8217 20.5476 29.9219 20.5476 28.8902Z" fill="#404041"/>
<path d="M22.7651 28.8902C22.7651 27.1393 24.0005 25.8564 25.7614 25.8564C26.8884 25.8564 27.5711 26.3371 27.9793 26.8882L27.1521 27.6561C26.8288 27.2008 26.3845 26.9731 25.821 26.9731C24.7663 26.9731 24.0709 27.7645 24.0709 28.892C24.0709 30.0195 24.7663 30.8235 25.821 30.8235C26.3845 30.8235 26.8288 30.5832 27.1521 30.1405L27.9793 30.9085C27.5711 31.4596 26.8884 31.9402 25.7614 31.9402C23.9987 31.9402 22.7651 30.6573 22.7651 28.8938V28.8902Z" fill="#404041"/>
<path d="M30.1397 31.7921V27.1033H28.4854V25.9993H33.0655V27.1033H31.3985V31.7921H30.1397Z" fill="#404041"/>
<path d="M35.3536 30.9898V34H34.0947V26.001H35.3536V26.7924C35.7852 26.216 36.4571 25.8564 37.212 25.8564C38.711 25.8564 39.7766 26.9839 39.7766 28.8902C39.7766 30.7964 38.7092 31.9366 37.212 31.9366C36.4805 31.9366 35.8213 31.6132 35.3536 30.9898ZM38.4708 28.8902C38.4708 27.7753 37.8351 26.9713 36.84 26.9713C36.253 26.9713 35.6299 27.3182 35.3536 27.7501V30.0412C35.6299 30.4604 36.253 30.8199 36.84 30.8199C37.8351 30.8199 38.4708 30.0159 38.4708 28.8884V28.8902Z" fill="#404041"/>
<path d="M44.5608 31.792V31.1687C44.1291 31.6601 43.4573 31.9366 42.6915 31.9366C41.7451 31.9366 40.6777 31.3006 40.6777 30.0177C40.6777 28.7348 41.7451 28.1349 42.6915 28.1349C43.4699 28.1349 44.1418 28.3861 44.5608 28.8793V28.0157C44.5608 27.3435 44.0099 26.937 43.2062 26.937C42.5597 26.937 41.9962 27.1773 41.4923 27.6687L40.9775 26.7924C41.6494 26.1564 42.4874 25.8564 43.4103 25.8564C44.6926 25.8564 45.8196 26.3967 45.8196 27.956V31.7938H44.5608V31.792ZM44.5608 30.473V29.5985C44.2736 29.2028 43.7336 28.9986 43.1828 28.9986C42.4748 28.9986 41.9474 29.407 41.9474 30.043C41.9474 30.679 42.4748 31.0747 43.1828 31.0747C43.7336 31.0747 44.2736 30.8705 44.5608 30.4748V30.473Z" fill="#404041"/>
<path d="M47.4507 31.7921V25.9993H48.7095V28.2777H51.3717V25.9993H52.6305V31.7921H51.3717V29.3817H48.7095V31.7921H47.4507Z" fill="#404041"/>
<path d="M54.2598 31.7921V25.9993H55.5186V28.2777H58.1808V25.9993H59.4396V31.7921H58.1808V29.3817H55.5186V31.7921H54.2598Z" fill="#404041"/>
<path d="M62.3291 25.9993V28.0989H64.379C65.6613 28.0989 66.2971 28.9499 66.2971 29.9455C66.2971 30.9411 65.6252 31.7921 64.379 31.7921H61.0703V25.9993H62.3291ZM62.3291 29.2011V30.6881H64.2237C64.7276 30.6881 65.0148 30.3755 65.0148 29.9437C65.0148 29.5118 64.7276 29.1992 64.2237 29.1992H62.3291V29.2011ZM67.173 31.7921V25.9993H68.4319V31.7921H67.173Z" fill="#404041"/>
<path d="M69.7017 28.8902C69.7017 27.2116 70.9244 25.8564 72.6383 25.8564C74.3523 25.8564 75.4919 27.1881 75.4919 29.0113V29.3112H71.0201C71.1158 30.1875 71.775 30.9067 72.8659 30.9067C73.4294 30.9067 74.1013 30.679 74.5076 30.2706L75.0838 31.0982C74.5076 31.6493 73.657 31.9384 72.7341 31.9384C70.9966 31.9384 69.7017 30.7278 69.7017 28.892V28.8902ZM72.6383 26.8882C71.5601 26.8882 71.0671 27.7157 71.0075 28.424H74.2674C74.2439 27.741 73.7762 26.8882 72.6365 26.8882H72.6383Z" fill="#404041"/>
<path d="M79.6151 31.7921L81.0419 29.6329C80.2869 29.4649 79.6873 28.8415 79.6873 27.8459C79.6873 26.8503 80.3592 25.9993 81.6054 25.9993H84.9141V31.7921H83.6553V29.6925H82.3242L81.0527 31.7921H79.6133H79.6151ZM83.6553 28.5903V27.1033H81.7607C81.2803 27.1033 80.9696 27.4159 80.9696 27.8477C80.9696 28.2795 81.2568 28.5921 81.7607 28.5921H83.6553V28.5903Z" fill="#404041"/>
<path d="M85.9706 31.0006L86.5575 30.1966C87.0975 30.6772 87.8633 30.9049 88.6309 30.9049C89.5177 30.9049 90.0451 30.5923 90.0451 30.1261C90.0451 29.575 89.4093 29.3708 88.5225 29.3708H87.2872V28.3626H88.5225C89.3858 28.3626 89.9367 28.1114 89.9367 27.6073C89.9367 27.1881 89.3497 26.8882 88.546 26.8882C87.7423 26.8882 87.1553 27.1158 86.6876 27.5838L86.0645 26.8159C86.6153 26.2522 87.4317 25.8691 88.4864 25.8691C90.1877 25.8564 91.2443 26.4563 91.2443 27.4411C91.2443 28.2325 90.4406 28.724 89.7091 28.8324C90.4045 28.8812 91.3635 29.3112 91.3635 30.2237C91.3635 31.2193 90.3322 31.9384 88.6309 31.9384C87.4443 31.9384 86.5449 31.5662 85.9688 31.0024L85.9706 31.0006Z" fill="#404041"/>
<path d="M93.8936 25.9993V28.0989H95.9435C97.2258 28.0989 97.8615 28.9499 97.8615 29.9455C97.8615 30.9411 97.1897 31.7921 95.9435 31.7921H92.6348V25.9993H93.8936ZM93.8936 29.2011V30.6881H95.7882C96.2921 30.6881 96.5792 30.3755 96.5792 29.9437C96.5792 29.5118 96.2921 29.1992 95.7882 29.1992H93.8936V29.2011ZM98.7375 31.7921V25.9993H99.9963V31.7921H98.7375Z" fill="#404041"/>
<path d="M105.464 31.7921L103.69 29.4052L102.886 30.2328V31.7921H101.627V25.9993H102.886V28.7945L105.44 25.9993H106.999L104.589 28.6265L107.047 31.7921H105.465H105.464Z" fill="#404041"/>
<path d="M107.933 31.7921V25.9993H109.191V29.8967L111.854 25.9993H113.112V31.7921H111.854V27.7863L109.144 31.7921H107.934H107.933Z" fill="#404041"/>
<path d="M117.463 28.8902C117.463 27.2351 118.603 25.8564 120.436 25.8564C122.269 25.8564 123.421 27.2351 123.421 28.8902C123.421 30.5453 122.294 31.9366 120.436 31.9366C118.577 31.9366 117.463 30.5579 117.463 28.8902ZM122.114 28.8902C122.114 27.8711 121.514 26.9713 120.436 26.9713C119.357 26.9713 118.769 27.8711 118.769 28.8902C118.769 29.9093 119.368 30.8217 120.436 30.8217C121.503 30.8217 122.114 29.9219 122.114 28.8902Z" fill="#404041"/>
<path d="M124.693 31.7921V25.9993H125.952V28.2777H128.614V25.9993H129.873V31.7921H128.614V29.3817H125.952V31.7921H124.693Z" fill="#404041"/>
<path d="M130.904 30.9049C131.395 30.9049 131.671 30.3412 131.863 28.818L132.209 25.9993H136.681V31.7921H135.422V27.1033H133.324L133.12 28.9625C132.892 31.0621 132.173 31.9367 130.902 31.9367V30.9049H130.904Z" fill="#404041"/>
<path d="M141.849 31.792V31.1687C141.417 31.6601 140.745 31.9366 139.98 31.9366C139.033 31.9366 137.966 31.3006 137.966 30.0177C137.966 28.7348 139.033 28.1349 139.98 28.1349C140.758 28.1349 141.43 28.3861 141.849 28.8793V28.0157C141.849 27.3435 141.298 26.937 140.494 26.937C139.848 26.937 139.284 27.1773 138.78 27.6687L138.266 26.7924C138.937 26.1564 139.776 25.8564 140.698 25.8564C141.981 25.8564 143.108 26.3967 143.108 27.956V31.7938H141.849V31.792ZM141.849 30.473V29.5985C141.562 29.2028 141.022 28.9986 140.471 28.9986C139.763 28.9986 139.235 29.407 139.235 30.043C139.235 30.679 139.763 31.0747 140.471 31.0747C141.022 31.0747 141.562 30.8705 141.849 30.4748V30.473Z" fill="#404041"/>
<path d="M144.738 31.7921V25.9993H145.997V29.8967L148.659 25.9993H149.918V31.7921H148.659V27.7863L145.95 31.7921H144.74H144.738ZM147.328 25.3885C146.478 25.3885 145.71 24.9802 145.219 24.3333L145.795 23.8545C146.142 24.3333 146.671 24.6459 147.33 24.6459C147.989 24.6459 148.504 24.346 148.853 23.8545L149.429 24.3333C148.948 24.9802 148.193 25.3885 147.33 25.3885H147.328Z" fill="#404041"/>
<path d="M151.547 31.7921V25.9993H152.806V28.2777H155.468V25.9993H156.727V31.7921H155.468V29.3817H152.806V31.7921H151.547Z" fill="#404041"/>
</g>
<defs>
<clipPath id="clip0_354_147">
<rect width="157" height="34" fill="white"/>
</clipPath>
</defs>
</svg>
