<svg width="434" height="62" viewBox="0 0 434 62" fill="none" xmlns="http://www.w3.org/2000/svg">
<g clip-path="url(#clip0_446_2)">
<path d="M79.1214 0H86.7014L96.7523 30.177H89.2979L87.4971 23.8462H78.3257L76.5668 30.177H69.1543L79.1214 0ZM85.7801 17.9374L84.1468 12.0708C83.6024 10.1715 82.9323 6.87951 82.9323 6.87951H82.8486C82.8486 6.87951 82.1785 10.1715 81.6341 12.0708L79.959 17.9374H85.7801Z" fill="#404041"/>
<path d="M100.103 0H107.348V23.8462H117.357L119.367 30.177H100.103V0Z" fill="#404041"/>
<path d="M130.087 0H122.884V30.177H130.087V0Z" fill="#404041"/>
<path d="M133.856 0H144.703C150.608 0 154.712 2.70116 154.712 7.89244C154.712 10.4248 153.497 12.9993 151.32 14.3077V14.3921C154.712 15.4472 155.926 18.5283 155.926 21.1872C155.926 27.7713 150.566 30.177 144.703 30.177H133.814L133.856 0ZM144.787 11.6909C146.587 11.6909 147.383 10.3404 147.383 8.90538C147.383 7.47039 146.587 6.33084 144.661 6.33084H141.059V11.6909H144.787ZM145.373 23.8462C147.467 23.8462 148.514 22.369 148.514 20.6807C148.514 18.9925 147.509 17.5997 145.415 17.5997H141.018V23.8462H145.373Z" fill="#404041"/>
<path d="M158.062 0H168.364C171.379 0 172.803 0.211028 174.102 0.717495C177.452 2.02587 179.546 5.10688 179.546 9.49626C179.546 12.7039 178.08 16.2069 175.148 17.7263V17.8108C175.567 18.4016 175.944 18.9925 176.279 19.6256L182.017 30.177H173.976L168.741 20.0054H165.349V30.177H158.146L158.062 0ZM168.406 13.6746C170.709 13.6746 172.175 12.3662 172.175 9.96052C172.175 8.44112 171.798 7.30157 170.458 6.75289C169.579 6.41525 168.657 6.28863 167.736 6.33084H165.307V13.6746H168.406Z" fill="#404041"/>
<path d="M189.932 0H197.512L207.521 30.177H200.108L198.308 23.8462H189.094L187.335 30.177H179.923L189.932 0ZM196.632 17.9374L194.999 12.0708C194.455 10.1715 193.785 6.87951 193.785 6.87951H193.701C193.701 6.87951 193.031 10.1715 192.528 12.0708L190.853 17.9374H196.632Z" fill="#404041"/>
<path d="M70.7871 56.3022C72.4623 57.9904 74.7237 58.9612 77.1108 59.0456C80.0004 59.0456 82.0525 57.3574 82.0525 54.7828C82.0525 48.4942 69.8658 49.9714 69.8658 42.2056C69.8658 38.1116 73.258 35.4949 77.5715 35.4949C79.8748 35.4949 82.3875 36.2968 84.0627 37.9006L82.89 39.9687C81.4243 38.6181 79.4979 37.8584 77.4877 37.8162C74.7237 37.8162 72.3785 39.3778 72.3785 42.0367C72.3785 48.0721 84.5652 46.4683 84.5652 54.5296C84.5652 58.3703 81.8012 61.4091 77.0689 61.4091C74.1793 61.4091 71.4153 60.2696 69.3633 58.2015L70.7871 56.3022Z" fill="#404041"/>
<path d="M98.5945 35.4949C101.694 35.4949 105.086 36.4656 107.431 38.7447L106.133 40.5595C104.039 38.7869 101.359 37.8162 98.6364 37.8162C92.6896 37.8162 88.7949 42.3744 88.7949 48.241C88.7949 54.1075 92.6896 59.0878 98.762 59.0878C101.735 59.0456 104.583 57.8638 106.677 55.7536L108.059 57.484C105.588 60.0163 102.196 61.4091 98.6783 61.3669C91.2239 61.3669 86.2822 55.5425 86.2822 48.241C86.2822 40.9394 91.4333 35.4949 98.5945 35.4949Z" fill="#404041"/>
<path d="M110.991 35.917H113.42V47.3125H127.575V35.917H130.045V60.9449H127.575V49.5072H113.42V60.9449H110.991V35.917Z" fill="#404041"/>
<path d="M146.839 35.4949C154 35.4949 159.319 41.066 159.319 48.241C159.319 55.4159 154 61.4091 146.839 61.4091C139.677 61.4091 134.359 55.6269 134.359 48.241C134.359 40.855 139.677 35.4949 146.839 35.4949ZM146.839 59.0878C152.576 59.0878 156.806 54.403 156.806 48.241C156.806 42.0789 152.576 37.8162 146.839 37.8162C141.059 37.774 136.872 42.3322 136.872 48.241C136.872 54.1497 141.143 59.0878 146.839 59.0878Z" fill="#404041"/>
<path d="M175.568 35.4949C182.729 35.4949 188.048 41.066 188.048 48.241C188.048 55.4159 182.729 61.4091 175.568 61.4091C168.406 61.4091 163.088 55.6269 163.088 48.241C163.088 40.855 168.406 35.4949 175.568 35.4949ZM175.568 59.0878C181.305 59.0878 185.535 54.403 185.535 48.241C185.535 42.0789 181.305 37.8162 175.568 37.8162C169.83 37.8162 165.601 42.3322 165.601 48.241C165.601 54.1497 169.83 59.0878 175.568 59.0878Z" fill="#404041"/>
<path d="M193.45 35.917H195.879V58.7502H207.228V60.9449H193.45V35.917Z" fill="#404041"/>
<path d="M32.3845 57.3153C32.3845 59.6366 30.5 61.0294 28.1966 61.0294C25.8933 61.0294 24.0088 59.6366 24.0088 57.3153V41.6992C24.0088 39.3779 25.8933 38.0273 28.1966 38.0273C30.5 38.0273 32.3845 39.3779 32.3845 41.6992V57.3153Z" fill="#EB008B"/>
<path d="M40.3418 26.0408C38.3735 26.8849 36.5309 25.7454 35.6933 23.7617C34.8557 21.7781 35.3583 19.6678 37.3684 18.8237L52.0259 12.6617C53.9942 11.8175 55.8369 12.9571 56.6326 14.9408C57.4283 16.9244 57.0095 19.0347 54.9993 19.8788L40.3418 26.0408Z" fill="#8BC53F"/>
<path d="M17.0992 27.8136C18.9837 28.9531 21.0357 28.0668 22.1665 26.1676C23.2972 24.2683 23.0878 22.0314 21.1614 20.8919L7.09018 12.5352C5.20564 11.3956 3.19547 12.3241 2.06475 14.2234C0.934032 16.1227 1.10155 18.3173 3.02796 19.4569L17.0992 27.8136Z" fill="#10357E"/>
<path d="M27.778 15.2783L8.2207 22.3689V38.829L27.4848 45.9618V29.4172L46.4977 22.5377L27.778 15.2783Z" fill="#FFE450"/>
<path d="M5.03787 43.1763C3.0277 44.0204 1.22692 42.8809 0.389347 40.8972C-0.448224 38.9135 0.0543192 36.8032 2.02261 36.0013L15.2562 30.4302C17.2245 29.5861 19.0672 30.7256 19.8629 32.7093C20.7004 34.693 20.1979 36.8032 18.2296 37.6474L5.03787 43.1763Z" fill="#0082C9"/>
<path d="M46.4977 39.0402L27.4849 45.9619V29.4174L46.4977 22.5378V39.0402Z" fill="#F6921E"/>
<path d="M51.5652 46.5528C53.4916 47.6924 55.5437 46.8061 56.6744 44.8646C57.8051 42.9231 57.5957 40.644 55.6693 39.5045L42.8126 31.8653C40.8862 30.7257 38.8341 31.612 37.7034 33.5957C36.5727 35.5372 36.7402 37.7741 38.6666 38.9136L51.5652 46.5528Z" fill="#F6921E"/>
<path d="M32.3845 19.0769C32.3845 21.3982 30.5 22.791 28.1966 22.791C25.8933 22.791 24.0088 21.4404 24.0088 19.0769V3.67189C24.0088 1.35058 25.8933 0 28.1966 0C30.5 0 32.3845 1.35058 32.3845 3.67189V19.0769Z" fill="#EC1C24"/>
<path d="M227.832 0.59082H226.617V61.9999H227.832V0.59082Z" fill="#404041"/>
<path d="M248.981 55.2048L252.122 50.6044L252.75 49.7181V49.6759C251.912 49.3804 251.201 48.8318 250.698 48.0721C250.154 47.3124 249.86 46.3839 249.902 45.4553C249.902 43.9781 250.363 42.8386 251.284 41.9945C252.206 41.1504 253.462 40.7705 255.011 40.7705H261.419V55.1626H257.859V50.2668H256.017L252.834 55.1626H248.981V55.2048ZM255.975 47.861H257.859V43.1762H256.017C254.3 43.1762 253.42 43.9359 253.42 45.4553C253.378 46.1306 253.629 46.8059 254.132 47.228C254.676 47.65 255.346 47.861 255.975 47.861Z" fill="#404041"/>
<path d="M263.932 53.4322L265.439 51.1531C266.57 52.2505 267.784 52.7991 269.041 52.7991C269.669 52.8413 270.297 52.6303 270.842 52.2927C271.26 51.955 271.512 51.4063 271.512 50.8577C271.512 49.6759 270.716 49.085 269.125 49.085H267.366V46.5527H268.831C270.297 46.5527 271.051 46.004 271.051 44.9067C271.051 43.8093 270.339 43.2185 268.915 43.1763C267.659 43.2185 266.486 43.6405 265.481 44.358L264.35 42.0789C265.9 40.9816 267.701 40.4329 269.585 40.4751C270.883 40.4329 272.14 40.8127 273.187 41.5302C274.108 42.2055 274.653 43.3029 274.611 44.4002C274.611 45.9196 273.941 47.017 272.642 47.65V47.6923C274.234 48.2831 275.071 49.3805 275.071 50.9843C275.113 52.2927 274.527 53.5588 273.48 54.3185C272.307 55.1626 270.883 55.5425 269.46 55.5003C267.408 55.6269 265.439 54.825 263.932 53.4322Z" fill="#404041"/>
<path d="M278.044 55.2049V40.8127H281.604V45.7508H284.159C285.876 45.7508 287.174 46.1729 288.137 46.9748C289.1 47.7767 289.561 48.9584 289.561 50.52C289.645 51.7862 289.142 53.0524 288.221 53.9809C287.341 54.825 285.959 55.2471 284.159 55.2471L278.044 55.2049ZM281.604 52.7569H283.572C284.242 52.7991 284.871 52.5881 285.331 52.1238C285.75 51.7018 285.959 51.1109 285.918 50.4778C285.959 49.8447 285.708 49.2539 285.289 48.7896C284.787 48.3253 284.117 48.1143 283.489 48.1565H281.604V52.7569ZM291.446 55.2049V40.8127H295.005V55.2049H291.446Z" fill="#404041"/>
<path d="M298.858 55.2049V40.8127H302.418V46.2995H304.177L307.653 40.8127H311.589L307.025 47.6501V47.6923L312.134 55.1626H308.03L304.261 49.3383H302.418V55.1626H298.858V55.2049Z" fill="#404041"/>
<path d="M314.228 55.2049V40.8127H317.62V48.4942C317.62 49.085 317.578 49.6337 317.536 50.2246H317.578C317.662 50.0558 317.997 49.4649 318.625 48.4942L323.943 40.8127H327.377V55.2049H323.985V47.5234C323.985 47.1014 324.027 46.5527 324.069 45.793H324.027C323.985 45.9196 323.608 46.5105 322.98 47.5234L317.662 55.2049H314.228Z" fill="#404041"/>
<path d="M339.564 53.4322C336.591 50.52 336.549 45.7508 339.397 42.7964C339.439 42.7542 339.481 42.712 339.564 42.6276C341.072 41.2348 343.04 40.4329 345.092 40.5173C347.144 40.4751 349.154 41.2348 350.662 42.6698C353.635 45.5398 353.719 50.309 350.83 53.3056C350.788 53.3478 350.704 53.4322 350.662 53.4744C347.521 56.26 342.747 56.26 339.564 53.4322ZM340.904 48.0299C340.863 49.2116 341.281 50.3934 342.119 51.2797C343.794 52.9679 346.474 52.9679 348.149 51.2797C349.825 49.4649 349.825 46.6793 348.149 44.8223C346.516 43.134 343.878 43.134 342.203 44.7801L342.161 44.8223C341.323 45.6664 340.863 46.8059 340.904 48.0299Z" fill="#404041"/>
<path d="M355.897 55.2049V40.8127H359.457V46.3839H365.571V40.8127H369.131V55.2049H365.571V49.3805H359.457V55.2049H355.897Z" fill="#404041"/>
<path d="M371.56 55.3737V52.2083C372.565 52.0395 373.402 51.4064 373.779 50.4779C374.282 49.4649 374.533 47.7345 374.533 45.371V40.855H384.961V55.2471H381.443V43.7672H377.967V45.371C377.967 48.663 377.464 51.1109 376.501 52.7992C375.496 54.4452 373.863 55.2893 371.56 55.3737Z" fill="#404041"/>
<path d="M387.724 51.2375C387.682 50.309 387.976 49.3805 388.562 48.6208C389.106 47.9033 389.902 47.3546 390.74 47.0592C391.577 46.7215 392.457 46.5105 393.378 46.3839C394.257 46.2573 395.137 46.1729 396.016 46.1729H396.644V45.9618C396.644 44.2736 395.765 43.4295 393.964 43.4295C392.54 43.4717 391.158 43.936 389.986 44.8223L388.688 42.2477C389.441 41.6991 390.279 41.277 391.2 40.9816C392.205 40.6439 393.252 40.4751 394.299 40.4751C396.184 40.4751 397.608 40.9816 398.655 41.9945C399.702 43.0074 400.204 44.4002 400.204 46.2151V55.2048H396.896V53.9809L396.98 52.9257H396.938C396.477 53.7277 395.849 54.3607 395.053 54.7828C394.257 55.2471 393.336 55.5003 392.415 55.5003C391.2 55.5425 389.986 55.1204 389.064 54.3185C388.143 53.5588 387.641 52.4193 387.724 51.2375ZM391.242 50.9421C391.242 51.4485 391.452 51.9128 391.828 52.2505C392.247 52.6303 392.834 52.8413 393.42 52.7991C394.341 52.7991 395.221 52.3771 395.765 51.6174C396.351 50.8999 396.686 49.9714 396.686 49.0006V48.663H396.058C392.834 48.6208 391.242 49.3805 391.242 50.9421Z" fill="#404041"/>
<path d="M403.806 55.2049V40.8128H407.198V48.4942C407.198 49.0851 407.156 49.6337 407.115 50.2246H407.156C407.24 50.0558 407.575 49.4649 408.203 48.4942L413.48 40.8128H416.914V55.2049H413.522V47.5235C413.522 47.1014 413.564 46.5527 413.606 45.793H413.564C413.522 45.9196 413.145 46.5105 412.517 47.5235L407.198 55.2049H403.806ZM413.606 38.4071C411.679 39.7998 409.041 39.7998 407.115 38.4071C406.235 37.7318 405.733 36.6766 405.774 35.5793V35.1572H408.497V35.5371C408.455 36.0435 408.664 36.5078 409.041 36.8454C409.418 37.1409 409.879 37.3097 410.339 37.3097C410.842 37.3097 411.302 37.1409 411.679 36.8454C412.056 36.5078 412.266 36.0013 412.266 35.4949V35.1572H414.946V35.5793C414.988 36.6766 414.485 37.7318 413.606 38.4071Z" fill="#404041"/>
<path d="M420.767 55.2049V40.8127H424.326V46.3839H430.441V40.8127H434V55.2049H430.441V49.3805H424.326V55.2049H420.767Z" fill="#404041"/>
<path d="M248.729 27.1381V7.00607H252.373V18.6126L252.164 21.7358H252.205C252.834 20.4274 253.42 19.3723 253.881 18.5704L261.419 6.96387H265.02V27.1381H261.419V15.5316L261.628 12.4084H261.586C260.958 13.6746 260.414 14.7297 259.911 15.5316L252.289 27.0959L248.729 27.1381Z" fill="#404041"/>
<path d="M269.083 27.1381V12.6616H272.642V18.2328H278.756V12.6616H282.316V27.0959H278.756V21.2716H272.642V27.1381H269.083Z" fill="#404041"/>
<path d="M287.551 25.3232C286.043 23.9304 285.206 21.9468 285.289 19.8787C285.248 17.8106 286.043 15.827 287.551 14.4342C289.059 12.9992 291.069 12.2395 293.121 12.2817C295.215 12.2395 297.225 12.9992 298.732 14.4342C300.24 15.827 301.078 17.8106 300.994 19.8787C301.036 21.9468 300.24 23.9304 298.732 25.3232C295.508 28.1932 290.734 28.1932 287.551 25.3232ZM288.891 19.8787C288.849 21.0605 289.268 22.2422 290.105 23.1285C290.901 23.9726 291.99 24.4369 293.121 24.3947C294.251 24.4369 295.34 23.9726 296.136 23.1285C296.974 22.2844 297.434 21.1027 297.392 19.8787C297.434 18.6969 296.974 17.5152 296.136 16.6289C295.34 15.7848 294.251 15.3205 293.121 15.3627C291.99 15.3627 290.901 15.7848 290.105 16.6289C289.31 17.5152 288.849 18.6969 288.891 19.8787Z" fill="#404041"/>
<path d="M303.088 19.8787C303.046 17.8529 303.8 15.9114 305.224 14.4764C306.648 12.9992 308.532 12.2817 310.878 12.2817C311.924 12.2817 312.93 12.4506 313.893 12.8304C314.814 13.1681 315.694 13.7167 316.364 14.4342L314.772 16.8821C313.809 15.8692 312.469 15.3205 311.045 15.3205C309.872 15.2783 308.7 15.7426 307.904 16.6289C307.108 17.473 306.648 18.6548 306.69 19.8365C306.648 21.0183 307.108 22.2 307.946 23.0442C308.784 23.9305 309.956 24.3947 311.171 24.3525C312.762 24.3525 314.27 23.6772 315.4 22.4955L316.782 25.0278C316.029 25.7875 315.149 26.3784 314.186 26.7583C313.139 27.1803 312.008 27.3913 310.878 27.3913C308.574 27.3913 306.69 26.6738 305.224 25.2389C303.842 23.8883 303.046 21.9046 303.088 19.8787Z" fill="#404041"/>
<path d="M323.022 27.1382V15.7427H318.29V12.7039H331.314V15.7427H326.582V27.1382H323.022Z" fill="#404041"/>
<path d="M333.576 32.7937V12.6617H336.842V13.7168L336.8 14.7297H336.842C337.303 13.97 337.973 13.3369 338.769 12.9571C341.239 11.7331 344.255 12.324 346.097 14.4343C347.27 15.8271 347.814 17.6419 347.814 19.921C347.814 22.2001 347.186 24.015 345.972 25.4077C344.799 26.7583 343.04 27.5602 341.281 27.4758C339.648 27.518 338.099 26.7583 337.135 25.4499H337.052C337.135 25.872 337.135 26.2941 337.135 26.6739V32.7937H333.576ZM337.052 19.9632C337.01 21.1028 337.345 22.2001 338.015 23.0864C338.601 23.9305 339.606 24.437 340.611 24.3948C341.616 24.3948 342.538 23.9727 343.166 23.213C343.836 22.4111 344.213 21.3138 344.213 19.921C344.255 18.7393 343.92 17.5997 343.25 16.629C342.663 15.8271 341.7 15.3628 340.695 15.3628C339.69 15.3628 338.769 15.7849 338.099 16.5024C337.387 17.3465 337.052 18.486 337.052 19.9632Z" fill="#404041"/>
<path d="M349.741 23.1286C349.699 22.2001 349.992 21.2716 350.578 20.5119C351.123 19.7944 351.918 19.2457 352.756 18.9503C353.594 18.6126 354.515 18.4016 355.394 18.275C356.274 18.1484 357.195 18.064 358.075 18.064H358.703V17.8529C358.703 16.1647 357.781 15.3206 355.981 15.3206C354.557 15.3628 353.133 15.8271 352.002 16.7134L350.662 14.1388C351.416 13.5902 352.253 13.1681 353.175 12.8727C354.18 12.535 355.227 12.3662 356.316 12.3662C358.2 12.3662 359.666 12.8727 360.713 13.8856C361.76 14.8985 362.304 16.3335 362.304 18.1062V27.1382H358.996V25.9142L359.08 24.8591H359.038C358.577 25.6188 357.907 26.2941 357.153 26.7583C356.358 27.2226 355.436 27.4758 354.515 27.4758C353.3 27.518 352.086 27.096 351.165 26.2941C350.201 25.4921 349.699 24.3104 349.741 23.1286ZM353.3 22.8332C353.3 23.3397 353.51 23.8039 353.887 24.1416C354.306 24.5214 354.892 24.7324 355.478 24.6902C356.399 24.6902 357.279 24.2682 357.823 23.5085C358.41 22.791 358.745 21.8625 358.745 20.8917V20.5119H358.116C354.892 20.5119 353.3 21.2716 353.3 22.8332Z" fill="#404041"/>
<path d="M365.948 27.1381V12.6616H369.507V18.2328H375.622V12.6616H379.181V27.0959H375.622V21.2716H369.507V27.1381H365.948Z" fill="#404041"/>
<path d="M382.992 27.1381V12.6616H386.552V18.2328H392.666V12.6616H396.226V27.0959H392.666V21.2716H386.552V27.1381H382.992Z" fill="#404041"/>
<path d="M400.037 27.1381V12.6616H403.596V17.6419H406.151C407.868 17.6419 409.166 18.0639 410.129 18.8658C411.093 19.6677 411.553 20.8917 411.553 22.4111C411.637 23.6773 411.134 24.9434 410.213 25.872C409.334 26.7161 407.952 27.1381 406.151 27.1381H400.037ZM403.638 24.648H405.606C406.277 24.6902 406.905 24.4792 407.407 24.0149C407.826 23.5929 408.035 22.9598 407.994 22.3689C408.035 21.7358 407.784 21.1449 407.365 20.6807C406.863 20.2164 406.193 20.0054 405.523 20.0476H403.638V24.648ZM413.563 27.1381V12.6616H417.123V27.0959L413.563 27.1381Z" fill="#404041"/>
<path d="M420.055 19.8788C420.055 17.6419 420.725 15.827 422.107 14.4343C423.489 12.9993 425.415 12.2396 427.384 12.324C429.352 12.324 430.943 12.9571 432.074 14.2654C433.247 15.616 433.833 17.3886 433.749 19.1613C433.749 19.6255 433.707 20.0898 433.623 20.5541H423.74C423.782 21.6514 424.285 22.6643 425.122 23.3818C425.96 24.0571 426.965 24.437 428.054 24.3948C429.561 24.3526 431.027 23.8039 432.158 22.791L433.582 25.3655C432.828 26.0408 431.906 26.5473 430.943 26.8849C429.938 27.2648 428.891 27.4336 427.802 27.4336C425.499 27.4336 423.614 26.7161 422.232 25.2389C420.809 23.8461 420.013 21.9046 420.055 19.8788ZM423.824 18.1061H430.148C430.189 17.262 429.854 16.4601 429.31 15.8692C428.766 15.3206 428.012 15.0251 427.258 15.0251C426.42 15.0251 425.625 15.3206 424.996 15.8692C424.368 16.4601 423.95 17.262 423.824 18.1061Z" fill="#404041"/>
</g>
<defs>
<clipPath id="clip0_446_2">
<rect width="434" height="62" fill="white"/>
</clipPath>
</defs>
</svg>
