<svg width="18" height="20" viewBox="0 0 18 20" fill="none" xmlns="http://www.w3.org/2000/svg">
<g clip-path="url(#clip0_354_196)">
<path d="M0.804647 0.759506C0.310348 1.2809 0.0821839 1.98223 0.0112033 2.67003C-0.00538734 3.19191 -0.00162452 3.71444 0.010006 4.23632C0.0768818 5.15915 0.297007 6.06372 0.525171 6.96079C0.853222 7.97587 1.1876 8.99812 1.70516 9.94311C2.02893 10.5608 2.34056 11.1867 2.73361 11.7689C3.39724 12.8232 4.16075 13.8266 5.06041 14.7103C5.51485 15.1363 5.95083 15.5811 6.42375 15.9896C7.02409 16.4676 7.6116 16.9637 8.26548 17.3769C8.96468 17.8742 9.71827 18.2991 10.504 18.6602C11.6055 19.1984 12.7848 19.5883 13.9918 19.8471C14.6849 19.9861 15.409 20.0587 16.1101 19.9412C16.8658 19.8021 17.5722 19.3223 17.861 18.6291C18.0377 18.2842 18.0083 17.8869 17.9751 17.5164C17.8679 17.0816 17.4753 16.797 17.1416 16.5165C16.4277 15.9923 15.7508 15.4266 15.0558 14.8808C14.4868 14.433 13.8991 14.0024 13.384 13.4969C13.2042 13.3256 13.0178 13.1508 12.7848 13.0475C12.6297 12.9984 12.4518 13.0358 12.3389 13.1497C12.0984 13.3782 11.9281 13.6616 11.722 13.9177C11.5263 14.1579 11.3866 14.4414 11.1504 14.65C11.1326 14.6536 11.0958 14.6611 11.0773 14.6646C10.7192 14.5466 10.4322 14.2965 10.1298 14.0878C9.36012 13.5029 8.57574 12.9207 7.93606 12.2019C6.66474 10.8894 5.59336 9.38733 4.87705 7.73286C4.83652 7.60834 4.77717 7.49099 4.70602 7.37983C4.9022 7.30909 5.04826 7.15947 5.23521 7.07179C5.68298 6.81997 6.12871 6.56278 6.57272 6.3038C6.84142 6.14537 7.11183 5.8696 7.05351 5.54461C6.9425 5.13731 6.64627 4.81231 6.4181 4.46222C5.65767 3.26248 4.88492 2.07024 4.09678 0.887287C3.76257 0.367362 3.15795 -0.0374954 2.49741 0.00276208C1.85961 0.037804 1.24815 0.325311 0.804818 0.759506H0.804647Z" fill="white"/>
</g>
<defs>
<clipPath id="clip0_354_196">
<rect width="18" height="20" fill="white"/>
</clipPath>
</defs>
</svg>
