<svg width="50" height="50" viewBox="0 0 50 50" fill="none" xmlns="http://www.w3.org/2000/svg">
<g clip-path="url(#clip0_572_181)">
<path d="M48.9487 24.7995C48.9487 38.1367 38.1367 48.9487 24.7995 48.9487C11.4622 48.9487 0.650204 38.1367 0.650204 24.7995C0.650204 11.4622 11.4622 0.650204 24.7995 0.650204C38.1367 0.650204 48.9487 11.4622 48.9487 24.7995Z" stroke="#393939" stroke-width="1.30041"/>
<path d="M13.5853 29.0924C12.6543 29.0716 11.7341 28.8883 10.8662 28.5507C9.33963 28.06 7.8165 27.5591 6.29677 27.048C6.1341 27.0023 5.98634 26.9145 5.86842 26.7935C5.75049 26.6725 5.66656 26.5225 5.62509 26.3587C5.58362 26.1949 5.58608 26.023 5.63222 25.8605C5.67835 25.6979 5.76654 25.5504 5.88788 25.4328C6.32068 25.0368 6.82805 24.731 7.38035 24.5333L24.3188 17.5412L35.6656 12.8389C36.2382 12.5914 36.8697 12.5134 37.4852 12.614C37.7886 12.6642 38.0621 12.8266 38.2514 13.069C38.4407 13.3113 38.5321 13.6159 38.5075 13.9224C38.4799 14.6956 38.4117 15.4667 38.303 16.2327C38.2008 17.0505 38.0577 17.8683 37.935 18.6861C37.8123 19.5039 37.6999 20.2603 37.5772 21.0474L37.2092 23.4292C37.0661 24.3186 36.923 25.2079 36.7901 26.0973C36.6572 26.9866 36.5141 27.8146 36.3812 28.6733C36.2483 29.532 36.1052 30.4009 35.9723 31.2596C35.8394 32.1183 35.6963 32.9974 35.5532 33.8561C35.4101 34.7147 35.2874 35.5734 35.1443 36.4321C35.0845 36.9661 34.9889 37.4954 34.8581 38.0166C34.744 38.4149 34.5643 38.7915 34.3265 39.1308C34.087 39.4263 33.7622 39.6408 33.3963 39.7451C33.0305 39.8493 32.6414 39.8383 32.282 39.7135C31.1385 39.4066 30.0634 38.8864 29.1131 38.1801C27.0686 36.7797 24.973 35.4099 22.9286 34.0094C22.1517 33.4778 21.4157 32.8952 20.6797 32.3227C20.4927 32.1857 20.3363 32.0113 20.2202 31.8108C20.104 31.6102 20.0308 31.3877 20.005 31.1574C19.9897 30.9144 20.0317 30.6713 20.1275 30.4476C20.2234 30.2239 20.3705 30.0258 20.557 29.8693C21.0579 29.3889 21.5792 28.9187 22.0801 28.4484C22.9797 27.6102 23.8793 26.7924 24.7584 25.944C26.3837 24.3902 27.9886 22.8261 29.5936 21.2621C30.0146 20.8831 30.3225 20.3948 30.4829 19.8514C30.5851 19.4732 30.3807 19.2687 30.0127 19.3505C29.4245 19.4968 28.8694 19.7535 28.3771 20.107C26.2713 21.4972 24.1757 22.9079 22.0801 24.3084C19.9845 25.7088 17.7969 27.2115 15.64 28.6427C15.02 29.0064 14.3006 29.1639 13.5853 29.0924Z" fill="#393939"/>
</g>
<defs>
<clipPath id="clip0_572_181">
<rect width="49.5989" height="49.5989" fill="white"/>
</clipPath>
</defs>
</svg>
