<svg width="12" height="12" viewBox="0 0 12 12" fill="none" xmlns="http://www.w3.org/2000/svg">
<path d="M6 12C9.31371 12 12 9.31371 12 6C12 2.68629 9.31371 0 6 0C2.68629 0 0 2.68629 0 6C0 9.31371 2.68629 12 6 12Z" fill="#333333"/>
<path fill-rule="evenodd" clip-rule="evenodd" d="M2.71595 5.93666C4.46507 5.1746 5.63142 4.6722 6.21501 4.42946C7.88128 3.73641 8.22751 3.61602 8.45318 3.61204C8.50282 3.61117 8.6138 3.62347 8.68568 3.6818C8.74638 3.73105 8.76308 3.79759 8.77108 3.84429C8.77907 3.89099 8.78902 3.99736 8.78111 4.08049C8.69081 5.02923 8.30011 7.33157 8.10134 8.39418C8.01723 8.8438 7.85162 8.99456 7.69129 9.00932C7.34286 9.04138 7.07828 8.77905 6.74081 8.55783C6.21273 8.21167 5.9144 7.99618 5.40181 7.65839C4.80942 7.26802 5.19344 7.05346 5.53104 6.70282C5.61939 6.61105 7.15459 5.21467 7.1843 5.088C7.18802 5.07216 7.19147 5.01311 7.15638 4.98192C7.1213 4.95074 7.06952 4.9614 7.03216 4.96988C6.97919 4.9819 6.13558 5.5395 4.50132 6.64267C4.26186 6.8071 4.04497 6.88721 3.85064 6.88302C3.63641 6.87839 3.22432 6.76189 2.91797 6.6623C2.54222 6.54016 2.24358 6.47559 2.26958 6.26815C2.28313 6.16011 2.43192 6.04961 2.71595 5.93666Z" fill="#F5F5F5"/>
</svg>
