<svg width="23" height="30" viewBox="0 0 23 30" fill="none" xmlns="http://www.w3.org/2000/svg">
<g clip-path="url(#clip0_354_198)">
<path d="M4.59321 7.88079C4.60401 8.00118 4.61804 8.12158 4.63424 8.24197C4.65043 8.36237 4.66986 8.48164 4.69253 8.60091C4.7152 8.72018 4.74003 8.83833 4.76702 8.95647C4.79508 9.07462 4.82531 9.19164 4.85877 9.30754C4.89332 9.42568 4.93002 9.5427 4.96996 9.65972C5.0099 9.77562 5.05201 9.89151 5.09842 10.0052C5.14376 10.1188 5.19234 10.2324 5.24308 10.3438C5.29382 10.4552 5.34779 10.5655 5.40285 10.6747C5.45898 10.7838 5.51727 10.8907 5.57881 10.9965C5.64034 11.1022 5.70403 11.2069 5.76988 11.3093C5.83573 11.4117 5.90482 11.5129 5.97498 11.6119C6.04623 11.711 6.11856 11.8077 6.19413 11.9034C6.26969 11.999 6.34742 12.0924 6.4273 12.1835C6.50718 12.2747 6.58923 12.3636 6.67343 12.4513C6.75763 12.538 6.84399 12.6235 6.93143 12.7056C7.01995 12.7878 7.10955 12.8688 7.20131 12.9464C7.29306 13.0241 7.38698 13.0994 7.48306 13.1726C7.57913 13.2457 7.67629 13.3166 7.77452 13.3841C7.87384 13.4516 7.97423 13.518 8.07571 13.581C8.17826 13.644 8.28081 13.7037 8.38661 13.7611C9.86553 14.5678 11.4751 14.6939 13.1019 14.4114C15.1432 13.7082 16.6913 12.718 17.7136 10.6443C17.7675 10.5351 17.8193 10.4237 17.8679 10.3123C17.9165 10.1998 17.9629 10.0873 18.0061 9.97253C18.0493 9.85776 18.0903 9.74299 18.1281 9.62597C18.1659 9.50895 18.2004 9.39192 18.2328 9.27378C18.2652 9.15563 18.2943 9.03636 18.3202 8.91597C18.3472 8.79557 18.3699 8.67517 18.3904 8.55478C18.4109 8.43326 18.4293 8.31174 18.4433 8.19022C18.4584 8.06869 18.4703 7.94605 18.4789 7.8234C18.4876 7.70075 18.494 7.57811 18.4973 7.45434C18.5005 7.33169 18.5005 7.20792 18.4973 7.08527C18.494 6.96263 18.4886 6.83885 18.48 6.71621C18.4714 6.59356 18.4595 6.47091 18.4455 6.34939C18.4314 6.22675 18.4131 6.10523 18.3926 5.98483C18.3721 5.86331 18.3483 5.74291 18.3224 5.62252C18.2965 5.50212 18.2673 5.38285 18.235 5.2647C18.2026 5.14656 18.168 5.02841 18.1302 4.91139C18.0925 4.7955 18.0525 4.6796 18.0093 4.56596C17.9662 4.45231 17.9197 4.33867 17.8712 4.22727C17.8226 4.11588 17.7708 4.00561 17.7168 3.89646C17.6628 3.78732 17.6056 3.68043 17.5473 3.57466C17.4879 3.46889 17.4264 3.36425 17.3616 3.26185C17.2969 3.15946 17.231 3.05819 17.1619 2.95917C17.0928 2.86016 17.0216 2.76226 16.9471 2.66775C16.8737 2.57211 16.7971 2.47872 16.7182 2.38757C16.6394 2.29643 16.5596 2.20642 16.4764 2.11978C16.3933 2.03314 16.3091 1.94762 16.2217 1.86548C16.1353 1.78222 16.0468 1.70233 15.955 1.62469C15.8644 1.54705 15.7715 1.47054 15.6776 1.3974C15.5837 1.32426 15.4876 1.25338 15.3894 1.18474C15.2911 1.1161 15.1918 1.05084 15.0914 0.987829C14.991 0.924818 14.8885 0.864058 14.7849 0.806673C14.6812 0.749288 14.5754 0.694153 14.4696 0.642394C13.0209 -0.0574785 11.6888 -0.0743564 10.1397 0.0775451C8.12968 0.681776 6.48343 1.71246 5.44279 3.67142C5.38665 3.77719 5.33268 3.88521 5.28086 3.99436C5.22904 4.1035 5.18047 4.21377 5.13513 4.32516C5.08871 4.43656 5.04553 4.54908 5.00451 4.66272C4.96349 4.77637 4.9257 4.89114 4.89116 5.00703C4.85554 5.12293 4.82315 5.23882 4.794 5.35697C4.76486 5.47399 4.73787 5.59213 4.71412 5.71141C4.69037 5.83068 4.66878 5.94995 4.65043 6.06922C4.63208 6.18961 4.61696 6.30889 4.60401 6.43041C4.59106 6.5508 4.58242 6.67232 4.57486 6.79272C4.56839 6.91424 4.56407 7.03464 4.56299 7.15616C4.56299 7.27768 4.56299 7.3992 4.56839 7.5196C4.5727 7.64112 4.58134 7.76152 4.59106 7.88191L4.59321 7.88079ZM5.75045 7.04364C5.75477 6.9435 5.76016 6.84448 5.7688 6.74434C5.77743 6.64532 5.78823 6.54518 5.80226 6.44728C5.81522 6.34827 5.83141 6.24925 5.84976 6.15136C5.86811 6.05347 5.88862 5.95557 5.91129 5.85881C5.93396 5.76204 5.95879 5.66527 5.98686 5.56963C6.01385 5.47399 6.04407 5.37947 6.07538 5.28496C6.10776 5.19044 6.14123 5.09705 6.17793 5.00478C6.21464 4.91252 6.25242 4.82138 6.29344 4.73023C7.10199 2.90517 8.5237 1.96675 10.2779 1.31189C11.6597 1.14198 12.8612 1.18474 14.1264 1.85423C14.2116 1.89811 14.2948 1.94537 14.3779 1.99376C14.4599 2.04214 14.542 2.0939 14.6218 2.14678C14.7017 2.19967 14.7805 2.2548 14.8583 2.31219C14.936 2.36957 15.0115 2.42808 15.0871 2.48884C15.1616 2.5496 15.235 2.61261 15.3063 2.67788C15.3775 2.74314 15.4477 2.80952 15.5168 2.87816C15.5858 2.9468 15.6528 3.01656 15.7175 3.08857C15.7823 3.16058 15.846 3.23372 15.9086 3.30911C15.9701 3.3845 16.0306 3.46101 16.0878 3.53865C16.1461 3.61741 16.2022 3.69618 16.2562 3.77832C16.3102 3.85933 16.3631 3.94147 16.4127 4.02586C16.4635 4.11025 16.5121 4.19464 16.5574 4.28128C16.6038 4.36792 16.6481 4.45456 16.6902 4.54345C16.7323 4.63234 16.7722 4.72236 16.81 4.81237C16.8478 4.90351 16.8834 4.99466 16.9169 5.08805C16.9503 5.18031 16.9816 5.2737 17.0108 5.36822C17.041 5.46386 17.068 5.5595 17.0928 5.65627C17.1177 5.75304 17.1414 5.84981 17.1619 5.9477C17.1824 6.04559 17.2008 6.14461 17.217 6.2425C17.2332 6.34152 17.2461 6.44053 17.258 6.54068C17.2688 6.63969 17.2785 6.73984 17.285 6.83998C17.2915 6.94012 17.2958 7.04026 17.2979 7.14041C17.3001 7.24055 17.299 7.34069 17.2958 7.44083C17.2925 7.54098 17.2872 7.64112 17.2796 7.74126C17.272 7.8414 17.2623 7.94042 17.2494 8.04056C17.2375 8.13958 17.2224 8.2386 17.2051 8.33762C17.1878 8.43663 17.1684 8.53452 17.1468 8.63242C17.1252 8.73031 17.1015 8.82708 17.0745 8.92384C17.0486 9.02061 17.0194 9.11625 16.9892 9.21077C16.9579 9.30529 16.9255 9.3998 16.8899 9.49319C16.8543 9.58659 16.8176 9.67885 16.7776 9.76999C16.7377 9.86113 16.6967 9.95115 16.6524 10.0412C15.7532 11.8336 14.3757 12.6269 12.6096 13.2266C11.4589 13.3988 10.2801 13.2761 9.20811 12.7956C9.11959 12.7563 9.03215 12.7135 8.94579 12.6696C8.85943 12.6257 8.77415 12.5785 8.68995 12.5301C8.60575 12.4817 8.52262 12.43 8.44166 12.3771C8.35962 12.3242 8.27973 12.2691 8.20093 12.2105C8.12213 12.1532 8.0444 12.0935 7.96884 12.0316C7.89219 11.9698 7.81771 11.9067 7.74538 11.8415C7.67197 11.7762 7.60072 11.7087 7.53164 11.6389C7.46147 11.5703 7.39346 11.4983 7.32761 11.4263C7.26176 11.3531 7.19699 11.2789 7.13438 11.2024C7.07176 11.1259 7.01131 11.0482 6.95194 10.9683C6.89257 10.8884 6.83643 10.8085 6.78138 10.7253C6.72632 10.6431 6.67343 10.5588 6.62269 10.4732C6.57195 10.3877 6.52338 10.3011 6.47588 10.2133C6.42946 10.1256 6.3852 10.0367 6.34202 9.94665C6.29992 9.85663 6.25998 9.76549 6.22111 9.67322C6.18333 9.58096 6.14771 9.48757 6.11424 9.39305C6.08078 9.29966 6.04947 9.20514 6.02032 9.11063C5.99118 9.01498 5.96419 8.91934 5.93936 8.82258C5.91453 8.72581 5.89294 8.62904 5.87243 8.53115C5.853 8.43326 5.83465 8.33537 5.81954 8.23635C5.80442 8.13733 5.79147 8.03831 5.78067 7.9393C5.76988 7.84028 5.76232 7.74014 5.75692 7.64112C5.75153 7.54098 5.74829 7.44196 5.74721 7.34182C5.74721 7.24167 5.74721 7.14153 5.75153 7.04251L5.75045 7.04364Z" fill="black"/>
<path d="M19.1841 19.4175C16.807 17.1693 13.8664 16.1049 10.6571 16.2917L10.3775 16.3097C7.10656 16.7451 4.45421 18.1224 2.42365 20.8555C1.1833 22.5275 -0.225462 25.5498 0.0303813 27.7293C0.103788 28.3493 0.360711 28.9333 0.860523 29.3046C2.41933 30.4647 10.7564 29.8199 13.0849 29.8301C14.9352 29.8379 21.1294 30.3702 22.3168 29.1077C22.8188 28.5743 23.0217 27.8407 22.9991 27.1037C22.917 24.3695 21.0743 21.2054 19.1841 19.4186V19.4175ZM21.4306 28.2019C20.6922 29.0143 14.3501 28.5597 13.0849 28.5473L1.34846 28.5361C1.31823 26.2317 1.74896 24.0679 2.97852 22.118C4.73056 19.3399 7.29655 18.1449 10.3041 17.5092C13.1734 17.2931 15.8776 18.0853 18.0808 20.0577C19.7735 21.5745 21.6281 24.5113 21.7814 26.9316C21.8116 27.4098 21.7576 27.8418 21.4306 28.2019Z" fill="black"/>
</g>
<defs>
<clipPath id="clip0_354_198">
<rect width="23" height="30" fill="white"/>
</clipPath>
</defs>
</svg>
