<svg width="50" height="50" viewBox="0 0 50 50" fill="none" xmlns="http://www.w3.org/2000/svg">
<g clip-path="url(#clip0_1155_234)">
<path d="M24.7998 0.650391C38.1369 0.650569 48.9492 11.4626 48.9492 24.7998C48.949 38.1368 38.1368 48.949 24.7998 48.9492C11.4626 48.9492 0.650569 38.1369 0.650391 24.7998C0.650391 11.4625 11.4625 0.650391 24.7998 0.650391Z" stroke="#393939" stroke-width="1.30041"/>
<path d="M27.6008 20.2708C27.6008 21.477 27.6008 22.673 27.6008 23.869C27.5916 24.0826 27.63 24.2956 27.7133 24.4926C27.7301 24.5695 27.7642 24.6416 27.8129 24.7035C27.8616 24.7654 27.9237 24.8154 27.9946 24.8498C28.0654 24.8842 28.1431 24.9022 28.2218 24.9023C28.3006 24.9024 28.3783 24.8846 28.4493 24.8504C28.6637 24.775 28.8641 24.6645 29.0422 24.5233C29.5756 24.1057 30.0532 23.6213 30.4631 23.0819C31.3349 21.9539 32.1144 20.7574 32.7938 19.5041C33.3778 18.4836 33.9067 17.4326 34.3782 16.3556C34.4498 16.1134 34.5808 15.893 34.7594 15.7145C34.9379 15.5359 35.1583 15.4049 35.4005 15.3333C35.5777 15.2888 35.7595 15.2648 35.9423 15.2618H39.5814C39.7928 15.26 40.0031 15.2911 40.205 15.3538C40.3755 15.3907 40.5264 15.4895 40.6283 15.6311C40.7303 15.7727 40.7761 15.947 40.757 16.1205C40.7435 16.4729 40.6637 16.8197 40.5219 17.1427C40.2883 17.7496 40.0081 18.3374 39.6836 18.901C38.8454 20.4956 37.8232 22.029 36.8009 23.5112C36.4943 23.9712 36.1672 24.421 35.8605 24.881C35.7519 25.0456 35.6529 25.2162 35.564 25.3922C35.4791 25.523 35.4339 25.6757 35.4339 25.8317C35.4339 25.9877 35.4791 26.1404 35.564 26.2713C35.6964 26.4938 35.8505 26.7027 36.024 26.8948C36.3716 27.2629 36.7396 27.6206 37.0463 27.9784C38.3222 29.2428 39.4915 30.6104 40.5423 32.0674C40.8121 32.4317 41.0385 32.8262 41.217 33.2429C41.3456 33.5138 41.4053 33.8123 41.3908 34.1118C41.3923 34.2696 41.3476 34.4243 41.2623 34.5569C41.1769 34.6895 41.0545 34.7942 40.9103 34.8581C40.7232 34.9354 40.5277 34.9903 40.3277 35.0216C40.1916 35.0321 40.0549 35.0321 39.9188 35.0216H36.6169C36.3215 35.0345 36.0266 34.9847 35.7517 34.8755C35.4769 34.7662 35.2283 34.6 35.0222 34.3878C34.5622 33.9381 34.1227 33.4678 33.6933 32.9874C32.8292 32.0057 31.8929 31.09 30.8924 30.2478C30.4994 29.9481 30.0822 29.6814 29.6453 29.4504C29.2546 29.2266 28.8065 29.1234 28.3573 29.154C28.1947 29.1478 28.0358 29.2034 27.9125 29.3096C27.7893 29.4158 27.7108 29.5647 27.6928 29.7264C27.678 29.9067 27.678 30.0879 27.6928 30.2682C27.6928 31.3518 27.6928 32.4251 27.6928 33.5087C27.7027 33.6892 27.7027 33.8701 27.6928 34.0505C27.6832 34.199 27.6346 34.3423 27.5521 34.4661C27.4696 34.5899 27.3559 34.6898 27.2226 34.7559C27.0119 34.8595 26.7885 34.9351 26.5581 34.9807C25.7848 35.1134 24.9964 35.134 24.2172 35.0421C21.8288 34.7818 19.5653 33.8416 17.6953 32.3331C16.3502 31.3001 15.1652 30.0737 14.1788 28.694C12.4929 26.4322 11.031 24.0117 9.81388 21.4668C9.18107 20.156 8.67778 18.7865 8.31119 17.3778C8.22623 17.0412 8.16137 16.6999 8.11697 16.3556C8.10412 16.1795 8.12493 16.0025 8.1783 15.8342C8.23591 15.6902 8.33429 15.5661 8.46139 15.4771C8.5885 15.3881 8.73879 15.3382 8.89387 15.3333C9.05707 15.3182 9.22134 15.3182 9.38454 15.3333H13.1873C13.449 15.3362 13.7041 15.4163 13.9206 15.5636C14.137 15.7109 14.3051 15.9189 14.4037 16.1614C14.5264 16.4476 14.6388 16.7543 14.7513 17.0507C15.5767 19.4219 16.6744 21.6894 18.0224 23.8077C18.434 24.4548 18.9027 25.0638 19.4229 25.6273C19.6519 25.8923 19.921 26.12 20.2203 26.3019C20.388 26.4069 20.5856 26.4536 20.7825 26.4348C20.875 26.4305 20.9639 26.3978 21.037 26.3411C21.1102 26.2843 21.1641 26.2064 21.1914 26.1179C21.2538 25.9464 21.295 25.7679 21.314 25.5864C21.314 25.3717 21.314 25.1468 21.314 24.9322V19.821C21.3495 18.8022 21.0032 17.8069 20.3429 17.0303C20.2444 16.9126 20.1523 16.7897 20.0669 16.6623C19.9619 16.5397 19.8961 16.3885 19.8779 16.2281C19.8597 16.0678 19.8899 15.9057 19.9647 15.7627C20.0402 15.6168 20.1547 15.4946 20.2955 15.4098C20.4362 15.325 20.5977 15.2808 20.762 15.2822H26.4763C26.6122 15.2671 26.7494 15.2671 26.8852 15.2822C27.016 15.3048 27.1383 15.3623 27.2391 15.4487C27.3398 15.5351 27.4154 15.6471 27.4577 15.7729C27.5491 16.0461 27.5907 16.3335 27.5804 16.6214C27.6008 17.8583 27.6008 19.0645 27.6008 20.2708Z" fill="#393939"/>
</g>
<defs>
<clipPath id="clip0_1155_234">
<rect width="49.5989" height="49.5989" fill="white"/>
</clipPath>
</defs>
</svg>
