<svg width="50" height="50" viewBox="0 0 50 50" fill="none" xmlns="http://www.w3.org/2000/svg">
<g clip-path="url(#clip0_572_392)">
<path d="M24.9824 1.23326C38.1254 1.23326 48.7667 11.8746 48.7667 25.0176C48.7667 38.1607 38.1254 48.802 24.9824 48.802C11.8393 48.802 1.23326 38.1254 1.23326 24.9824C1.23326 11.8393 11.8746 1.23326 24.9824 1.23326ZM24.9824 0C11.2051 0 0 11.2051 0 24.9824C0 38.7597 11.2051 49.9648 24.9824 49.9648C38.7597 49.9648 50 38.7597 50 24.9824C50 11.2051 38.7949 0 24.9824 0Z" fill="#393939"/>
<path fill-rule="evenodd" clip-rule="evenodd" d="M39.0765 21.5995C37.4909 15.0104 31.8179 10.5354 24.9821 10.4297C24.0659 10.4649 23.1145 10.5354 22.2336 10.7116C12.6494 12.6496 7.68114 23.2556 12.3323 31.7828C12.5085 32.0294 12.5085 32.2408 12.4733 32.4875C11.8038 34.7073 11.1695 36.9625 10.5705 39.2176C10.5 39.476 10.594 39.5699 10.8524 39.4995C13.2132 38.8652 15.5036 38.2662 17.8644 37.6672C18.0758 37.5967 18.2167 37.5967 18.3929 37.6672C21.388 39.1823 24.5592 39.6404 27.8714 39.0061C35.7995 37.491 41.0145 29.3867 39.1117 21.5291L39.0765 21.5995ZM27.0258 36.751C26.321 36.8568 25.6868 36.9272 25.3697 36.892C22.8327 36.892 20.7537 36.3282 18.851 35.2359C18.5691 35.0597 18.3577 35.0245 18.111 35.1302C16.8073 35.4473 15.5388 35.7997 14.2351 36.1168C13.9532 36.1873 13.9532 36.1168 13.9884 35.8701C14.3408 34.6721 14.6579 33.4389 15.0455 32.2056C15.116 31.8885 15.116 31.6066 14.9045 31.3599C12.2971 27.0964 12.4028 21.8462 15.3274 17.8645C18.3929 13.7771 22.586 12.0858 27.5543 13.1781C32.4521 14.1999 35.6234 17.4064 36.7509 22.3042C38.3365 28.9991 33.8263 35.6587 27.061 36.751H27.0258Z" fill="#393939"/>
<path fill-rule="evenodd" clip-rule="evenodd" d="M28.7874 31.7832C28.2941 31.8536 27.7655 31.7479 27.2722 31.607C23.96 30.6204 21.4583 28.6119 19.4498 25.8635C18.7099 24.8417 17.9699 23.7493 17.7585 22.4456C17.4414 20.9657 17.9347 19.6267 19.0622 18.6049C19.4498 18.2525 20.5421 18.0763 21.0002 18.323C21.1412 18.4287 21.2116 18.5696 21.3173 18.7106C21.7402 19.7324 22.163 20.6838 22.5858 21.6704C22.6563 21.8818 22.6211 22.0932 22.5154 22.3047C22.3039 22.7627 21.9516 23.1151 21.6345 23.5027C21.3526 23.7493 21.3526 23.996 21.5288 24.2779C22.7268 26.2511 24.3124 27.6958 26.4618 28.5062C26.7789 28.6119 27.0256 28.5767 27.2018 28.33C27.5894 27.9072 27.9417 27.4139 28.2941 26.9558C28.5055 26.6739 28.7874 26.6387 29.1045 26.7796C29.8092 27.0968 30.514 27.4139 31.1834 27.731C31.3596 27.8367 31.5006 27.9072 31.6767 27.9777C32.3815 28.33 32.3815 28.3653 32.311 29.1405C32.2053 30.6556 31.0425 31.3956 29.7388 31.7832C29.3864 31.8536 29.1045 31.8536 28.7874 31.7832Z" fill="#393939"/>
</g>
<defs>
<clipPath id="clip0_572_392">
<rect width="50" height="50" fill="white"/>
</clipPath>
</defs>
</svg>
