<svg width="50" height="50" viewBox="0 0 50 50" fill="none" xmlns="http://www.w3.org/2000/svg">
<g clip-path="url(#clip0_1155_226)">
<path d="M24.7998 0.650391C38.1369 0.650569 48.9492 11.4626 48.9492 24.7998C48.949 38.1368 38.1368 48.949 24.7998 48.9492C11.4626 48.9492 0.650569 38.1369 0.650391 24.7998C0.650391 11.4625 11.4625 0.650391 24.7998 0.650391Z" stroke="#393939" stroke-width="1.30041"/>
<g clip-path="url(#clip1_1155_226)">
<path d="M24.1703 14.0246C25.5539 14.0246 26.9388 14.0107 28.3225 14.028C29.7003 14.0453 31.0793 14.0857 32.4571 14.1341C33.3917 14.1676 34.325 14.2218 35.2584 14.2898C35.9227 14.3382 36.5918 14.3844 37.2468 14.5008C38.1907 14.668 38.9802 15.1374 39.6083 15.8616C40.1393 16.4727 40.3966 17.1981 40.5171 17.9799C40.5896 18.4492 40.6609 18.9186 40.7276 19.3891C40.9194 20.7556 41.0235 22.1267 40.9978 23.5093C40.9744 24.7824 41.0048 26.0555 40.9896 27.3286C40.9826 27.9236 40.9358 28.5186 40.8902 29.1125C40.8364 29.8113 40.7814 30.5102 40.6925 31.2055C40.5744 32.1396 40.3346 33.0436 39.8387 33.8601C39.5954 34.2614 39.2398 34.5624 38.8632 34.8426C38.2211 35.32 37.4749 35.5137 36.6982 35.5841C35.676 35.6763 34.649 35.7294 33.6232 35.7893C32.67 35.8447 31.7167 35.8862 30.7635 35.9312C30.5448 35.9415 30.3249 35.9392 30.1062 35.9415C28.2944 35.9623 26.4815 35.9923 24.6697 36.0004C23.7878 36.0038 22.9071 35.9623 22.0252 35.9473C21.7234 35.9427 21.4205 35.9646 21.1187 35.96C19.7748 35.9346 18.4297 35.9162 17.0858 35.87C16.3174 35.8435 15.5501 35.7709 14.7828 35.7144C14.2529 35.6763 13.7208 35.6579 13.1968 35.5852C11.5885 35.3627 10.3955 34.5739 9.75922 33.0575C9.54985 32.5593 9.49254 32.0266 9.41418 31.5019C9.3171 30.8526 9.22937 30.2 9.16738 29.5461C9.09838 28.8254 9.02703 28.1012 9.0165 27.3782C8.99545 25.8122 8.99779 24.245 9.02001 22.679C9.03054 21.9456 9.10305 21.2122 9.1592 20.48C9.20364 19.9057 9.24575 19.3303 9.32528 18.7606C9.41652 18.1091 9.56155 17.4668 9.82238 16.8567C10.3253 15.6667 11.2037 14.8964 12.4774 14.5735C13.1137 14.412 13.7629 14.3567 14.4132 14.3175C15.2202 14.269 16.0273 14.2287 16.8355 14.1895C17.6437 14.1503 18.4508 14.103 19.259 14.0845C20.8953 14.0465 22.5328 14.0257 24.1691 13.998C24.1691 14.0061 24.1691 14.0153 24.1691 14.0234L24.1703 14.0246ZM20.8801 19.4721V29.9024C24.2709 28.1681 27.6417 26.4441 31.0536 24.6994C27.6429 22.9466 24.2685 21.2122 20.8801 19.4709V19.4721Z" fill="#393939"/>
<path d="M20.8809 19.4727C24.2693 21.2139 27.6437 22.9483 31.0543 24.7011C27.6425 26.4458 24.2716 28.1698 20.8809 29.9041V19.4727Z" fill="#F5F7F9"/>
</g>
</g>
<defs>
<clipPath id="clip0_1155_226">
<rect width="49.5989" height="49.5989" fill="white"/>
</clipPath>
<clipPath id="clip1_1155_226">
<rect width="32" height="22" fill="white" transform="translate(9 14)"/>
</clipPath>
</defs>
</svg>
